G04 #@! TF.GenerationSoftware,KiCad,Pcbnew,(5.1.0-0)*
G04 #@! TF.CreationDate,2019-07-20T15:32:48+01:00*
G04 #@! TF.ProjectId,Li-ionCharger,4c692d69-6f6e-4436-9861-726765722e6b,rev?*
G04 #@! TF.SameCoordinates,Original*
G04 #@! TF.FileFunction,Copper,L1,Top*
G04 #@! TF.FilePolarity,Positive*
%FSLAX46Y46*%
G04 Gerber Fmt 4.6, Leading zero omitted, Abs format (unit mm)*
G04 Created by KiCad (PCBNEW (5.1.0-0)) date 2019-07-20 15:32:48*
%MOMM*%
%LPD*%
G04 APERTURE LIST*
%ADD10R,1.700000X1.700000*%
%ADD11O,1.700000X1.700000*%
%ADD12C,0.100000*%
%ADD13C,0.875000*%
%ADD14C,1.000000*%
%ADD15R,0.300000X0.650000*%
%ADD16R,2.480000X1.550000*%
%ADD17C,0.900000*%
%ADD18O,1.400000X0.900000*%
%ADD19C,0.800000*%
%ADD20C,0.250000*%
%ADD21C,0.254000*%
G04 APERTURE END LIST*
D10*
X114808000Y-71882000D03*
D11*
X114808000Y-74422000D03*
D12*
G36*
X124674691Y-73186053D02*
G01*
X124695926Y-73189203D01*
X124716750Y-73194419D01*
X124736962Y-73201651D01*
X124756368Y-73210830D01*
X124774781Y-73221866D01*
X124792024Y-73234654D01*
X124807930Y-73249070D01*
X124822346Y-73264976D01*
X124835134Y-73282219D01*
X124846170Y-73300632D01*
X124855349Y-73320038D01*
X124862581Y-73340250D01*
X124867797Y-73361074D01*
X124870947Y-73382309D01*
X124872000Y-73403750D01*
X124872000Y-73916250D01*
X124870947Y-73937691D01*
X124867797Y-73958926D01*
X124862581Y-73979750D01*
X124855349Y-73999962D01*
X124846170Y-74019368D01*
X124835134Y-74037781D01*
X124822346Y-74055024D01*
X124807930Y-74070930D01*
X124792024Y-74085346D01*
X124774781Y-74098134D01*
X124756368Y-74109170D01*
X124736962Y-74118349D01*
X124716750Y-74125581D01*
X124695926Y-74130797D01*
X124674691Y-74133947D01*
X124653250Y-74135000D01*
X124215750Y-74135000D01*
X124194309Y-74133947D01*
X124173074Y-74130797D01*
X124152250Y-74125581D01*
X124132038Y-74118349D01*
X124112632Y-74109170D01*
X124094219Y-74098134D01*
X124076976Y-74085346D01*
X124061070Y-74070930D01*
X124046654Y-74055024D01*
X124033866Y-74037781D01*
X124022830Y-74019368D01*
X124013651Y-73999962D01*
X124006419Y-73979750D01*
X124001203Y-73958926D01*
X123998053Y-73937691D01*
X123997000Y-73916250D01*
X123997000Y-73403750D01*
X123998053Y-73382309D01*
X124001203Y-73361074D01*
X124006419Y-73340250D01*
X124013651Y-73320038D01*
X124022830Y-73300632D01*
X124033866Y-73282219D01*
X124046654Y-73264976D01*
X124061070Y-73249070D01*
X124076976Y-73234654D01*
X124094219Y-73221866D01*
X124112632Y-73210830D01*
X124132038Y-73201651D01*
X124152250Y-73194419D01*
X124173074Y-73189203D01*
X124194309Y-73186053D01*
X124215750Y-73185000D01*
X124653250Y-73185000D01*
X124674691Y-73186053D01*
X124674691Y-73186053D01*
G37*
D13*
X124434500Y-73660000D03*
D12*
G36*
X126249691Y-73186053D02*
G01*
X126270926Y-73189203D01*
X126291750Y-73194419D01*
X126311962Y-73201651D01*
X126331368Y-73210830D01*
X126349781Y-73221866D01*
X126367024Y-73234654D01*
X126382930Y-73249070D01*
X126397346Y-73264976D01*
X126410134Y-73282219D01*
X126421170Y-73300632D01*
X126430349Y-73320038D01*
X126437581Y-73340250D01*
X126442797Y-73361074D01*
X126445947Y-73382309D01*
X126447000Y-73403750D01*
X126447000Y-73916250D01*
X126445947Y-73937691D01*
X126442797Y-73958926D01*
X126437581Y-73979750D01*
X126430349Y-73999962D01*
X126421170Y-74019368D01*
X126410134Y-74037781D01*
X126397346Y-74055024D01*
X126382930Y-74070930D01*
X126367024Y-74085346D01*
X126349781Y-74098134D01*
X126331368Y-74109170D01*
X126311962Y-74118349D01*
X126291750Y-74125581D01*
X126270926Y-74130797D01*
X126249691Y-74133947D01*
X126228250Y-74135000D01*
X125790750Y-74135000D01*
X125769309Y-74133947D01*
X125748074Y-74130797D01*
X125727250Y-74125581D01*
X125707038Y-74118349D01*
X125687632Y-74109170D01*
X125669219Y-74098134D01*
X125651976Y-74085346D01*
X125636070Y-74070930D01*
X125621654Y-74055024D01*
X125608866Y-74037781D01*
X125597830Y-74019368D01*
X125588651Y-73999962D01*
X125581419Y-73979750D01*
X125576203Y-73958926D01*
X125573053Y-73937691D01*
X125572000Y-73916250D01*
X125572000Y-73403750D01*
X125573053Y-73382309D01*
X125576203Y-73361074D01*
X125581419Y-73340250D01*
X125588651Y-73320038D01*
X125597830Y-73300632D01*
X125608866Y-73282219D01*
X125621654Y-73264976D01*
X125636070Y-73249070D01*
X125651976Y-73234654D01*
X125669219Y-73221866D01*
X125687632Y-73210830D01*
X125707038Y-73201651D01*
X125727250Y-73194419D01*
X125748074Y-73189203D01*
X125769309Y-73186053D01*
X125790750Y-73185000D01*
X126228250Y-73185000D01*
X126249691Y-73186053D01*
X126249691Y-73186053D01*
G37*
D13*
X126009500Y-73660000D03*
D12*
G36*
X126249691Y-74710053D02*
G01*
X126270926Y-74713203D01*
X126291750Y-74718419D01*
X126311962Y-74725651D01*
X126331368Y-74734830D01*
X126349781Y-74745866D01*
X126367024Y-74758654D01*
X126382930Y-74773070D01*
X126397346Y-74788976D01*
X126410134Y-74806219D01*
X126421170Y-74824632D01*
X126430349Y-74844038D01*
X126437581Y-74864250D01*
X126442797Y-74885074D01*
X126445947Y-74906309D01*
X126447000Y-74927750D01*
X126447000Y-75440250D01*
X126445947Y-75461691D01*
X126442797Y-75482926D01*
X126437581Y-75503750D01*
X126430349Y-75523962D01*
X126421170Y-75543368D01*
X126410134Y-75561781D01*
X126397346Y-75579024D01*
X126382930Y-75594930D01*
X126367024Y-75609346D01*
X126349781Y-75622134D01*
X126331368Y-75633170D01*
X126311962Y-75642349D01*
X126291750Y-75649581D01*
X126270926Y-75654797D01*
X126249691Y-75657947D01*
X126228250Y-75659000D01*
X125790750Y-75659000D01*
X125769309Y-75657947D01*
X125748074Y-75654797D01*
X125727250Y-75649581D01*
X125707038Y-75642349D01*
X125687632Y-75633170D01*
X125669219Y-75622134D01*
X125651976Y-75609346D01*
X125636070Y-75594930D01*
X125621654Y-75579024D01*
X125608866Y-75561781D01*
X125597830Y-75543368D01*
X125588651Y-75523962D01*
X125581419Y-75503750D01*
X125576203Y-75482926D01*
X125573053Y-75461691D01*
X125572000Y-75440250D01*
X125572000Y-74927750D01*
X125573053Y-74906309D01*
X125576203Y-74885074D01*
X125581419Y-74864250D01*
X125588651Y-74844038D01*
X125597830Y-74824632D01*
X125608866Y-74806219D01*
X125621654Y-74788976D01*
X125636070Y-74773070D01*
X125651976Y-74758654D01*
X125669219Y-74745866D01*
X125687632Y-74734830D01*
X125707038Y-74725651D01*
X125727250Y-74718419D01*
X125748074Y-74713203D01*
X125769309Y-74710053D01*
X125790750Y-74709000D01*
X126228250Y-74709000D01*
X126249691Y-74710053D01*
X126249691Y-74710053D01*
G37*
D13*
X126009500Y-75184000D03*
D12*
G36*
X124674691Y-74710053D02*
G01*
X124695926Y-74713203D01*
X124716750Y-74718419D01*
X124736962Y-74725651D01*
X124756368Y-74734830D01*
X124774781Y-74745866D01*
X124792024Y-74758654D01*
X124807930Y-74773070D01*
X124822346Y-74788976D01*
X124835134Y-74806219D01*
X124846170Y-74824632D01*
X124855349Y-74844038D01*
X124862581Y-74864250D01*
X124867797Y-74885074D01*
X124870947Y-74906309D01*
X124872000Y-74927750D01*
X124872000Y-75440250D01*
X124870947Y-75461691D01*
X124867797Y-75482926D01*
X124862581Y-75503750D01*
X124855349Y-75523962D01*
X124846170Y-75543368D01*
X124835134Y-75561781D01*
X124822346Y-75579024D01*
X124807930Y-75594930D01*
X124792024Y-75609346D01*
X124774781Y-75622134D01*
X124756368Y-75633170D01*
X124736962Y-75642349D01*
X124716750Y-75649581D01*
X124695926Y-75654797D01*
X124674691Y-75657947D01*
X124653250Y-75659000D01*
X124215750Y-75659000D01*
X124194309Y-75657947D01*
X124173074Y-75654797D01*
X124152250Y-75649581D01*
X124132038Y-75642349D01*
X124112632Y-75633170D01*
X124094219Y-75622134D01*
X124076976Y-75609346D01*
X124061070Y-75594930D01*
X124046654Y-75579024D01*
X124033866Y-75561781D01*
X124022830Y-75543368D01*
X124013651Y-75523962D01*
X124006419Y-75503750D01*
X124001203Y-75482926D01*
X123998053Y-75461691D01*
X123997000Y-75440250D01*
X123997000Y-74927750D01*
X123998053Y-74906309D01*
X124001203Y-74885074D01*
X124006419Y-74864250D01*
X124013651Y-74844038D01*
X124022830Y-74824632D01*
X124033866Y-74806219D01*
X124046654Y-74788976D01*
X124061070Y-74773070D01*
X124076976Y-74758654D01*
X124094219Y-74745866D01*
X124112632Y-74734830D01*
X124132038Y-74725651D01*
X124152250Y-74718419D01*
X124173074Y-74713203D01*
X124194309Y-74710053D01*
X124215750Y-74709000D01*
X124653250Y-74709000D01*
X124674691Y-74710053D01*
X124674691Y-74710053D01*
G37*
D13*
X124434500Y-75184000D03*
D12*
G36*
X128230691Y-71154053D02*
G01*
X128251926Y-71157203D01*
X128272750Y-71162419D01*
X128292962Y-71169651D01*
X128312368Y-71178830D01*
X128330781Y-71189866D01*
X128348024Y-71202654D01*
X128363930Y-71217070D01*
X128378346Y-71232976D01*
X128391134Y-71250219D01*
X128402170Y-71268632D01*
X128411349Y-71288038D01*
X128418581Y-71308250D01*
X128423797Y-71329074D01*
X128426947Y-71350309D01*
X128428000Y-71371750D01*
X128428000Y-71884250D01*
X128426947Y-71905691D01*
X128423797Y-71926926D01*
X128418581Y-71947750D01*
X128411349Y-71967962D01*
X128402170Y-71987368D01*
X128391134Y-72005781D01*
X128378346Y-72023024D01*
X128363930Y-72038930D01*
X128348024Y-72053346D01*
X128330781Y-72066134D01*
X128312368Y-72077170D01*
X128292962Y-72086349D01*
X128272750Y-72093581D01*
X128251926Y-72098797D01*
X128230691Y-72101947D01*
X128209250Y-72103000D01*
X127771750Y-72103000D01*
X127750309Y-72101947D01*
X127729074Y-72098797D01*
X127708250Y-72093581D01*
X127688038Y-72086349D01*
X127668632Y-72077170D01*
X127650219Y-72066134D01*
X127632976Y-72053346D01*
X127617070Y-72038930D01*
X127602654Y-72023024D01*
X127589866Y-72005781D01*
X127578830Y-71987368D01*
X127569651Y-71967962D01*
X127562419Y-71947750D01*
X127557203Y-71926926D01*
X127554053Y-71905691D01*
X127553000Y-71884250D01*
X127553000Y-71371750D01*
X127554053Y-71350309D01*
X127557203Y-71329074D01*
X127562419Y-71308250D01*
X127569651Y-71288038D01*
X127578830Y-71268632D01*
X127589866Y-71250219D01*
X127602654Y-71232976D01*
X127617070Y-71217070D01*
X127632976Y-71202654D01*
X127650219Y-71189866D01*
X127668632Y-71178830D01*
X127688038Y-71169651D01*
X127708250Y-71162419D01*
X127729074Y-71157203D01*
X127750309Y-71154053D01*
X127771750Y-71153000D01*
X128209250Y-71153000D01*
X128230691Y-71154053D01*
X128230691Y-71154053D01*
G37*
D13*
X127990500Y-71628000D03*
D12*
G36*
X129805691Y-71154053D02*
G01*
X129826926Y-71157203D01*
X129847750Y-71162419D01*
X129867962Y-71169651D01*
X129887368Y-71178830D01*
X129905781Y-71189866D01*
X129923024Y-71202654D01*
X129938930Y-71217070D01*
X129953346Y-71232976D01*
X129966134Y-71250219D01*
X129977170Y-71268632D01*
X129986349Y-71288038D01*
X129993581Y-71308250D01*
X129998797Y-71329074D01*
X130001947Y-71350309D01*
X130003000Y-71371750D01*
X130003000Y-71884250D01*
X130001947Y-71905691D01*
X129998797Y-71926926D01*
X129993581Y-71947750D01*
X129986349Y-71967962D01*
X129977170Y-71987368D01*
X129966134Y-72005781D01*
X129953346Y-72023024D01*
X129938930Y-72038930D01*
X129923024Y-72053346D01*
X129905781Y-72066134D01*
X129887368Y-72077170D01*
X129867962Y-72086349D01*
X129847750Y-72093581D01*
X129826926Y-72098797D01*
X129805691Y-72101947D01*
X129784250Y-72103000D01*
X129346750Y-72103000D01*
X129325309Y-72101947D01*
X129304074Y-72098797D01*
X129283250Y-72093581D01*
X129263038Y-72086349D01*
X129243632Y-72077170D01*
X129225219Y-72066134D01*
X129207976Y-72053346D01*
X129192070Y-72038930D01*
X129177654Y-72023024D01*
X129164866Y-72005781D01*
X129153830Y-71987368D01*
X129144651Y-71967962D01*
X129137419Y-71947750D01*
X129132203Y-71926926D01*
X129129053Y-71905691D01*
X129128000Y-71884250D01*
X129128000Y-71371750D01*
X129129053Y-71350309D01*
X129132203Y-71329074D01*
X129137419Y-71308250D01*
X129144651Y-71288038D01*
X129153830Y-71268632D01*
X129164866Y-71250219D01*
X129177654Y-71232976D01*
X129192070Y-71217070D01*
X129207976Y-71202654D01*
X129225219Y-71189866D01*
X129243632Y-71178830D01*
X129263038Y-71169651D01*
X129283250Y-71162419D01*
X129304074Y-71157203D01*
X129325309Y-71154053D01*
X129346750Y-71153000D01*
X129784250Y-71153000D01*
X129805691Y-71154053D01*
X129805691Y-71154053D01*
G37*
D13*
X129565500Y-71628000D03*
D12*
G36*
X126249691Y-68868053D02*
G01*
X126270926Y-68871203D01*
X126291750Y-68876419D01*
X126311962Y-68883651D01*
X126331368Y-68892830D01*
X126349781Y-68903866D01*
X126367024Y-68916654D01*
X126382930Y-68931070D01*
X126397346Y-68946976D01*
X126410134Y-68964219D01*
X126421170Y-68982632D01*
X126430349Y-69002038D01*
X126437581Y-69022250D01*
X126442797Y-69043074D01*
X126445947Y-69064309D01*
X126447000Y-69085750D01*
X126447000Y-69598250D01*
X126445947Y-69619691D01*
X126442797Y-69640926D01*
X126437581Y-69661750D01*
X126430349Y-69681962D01*
X126421170Y-69701368D01*
X126410134Y-69719781D01*
X126397346Y-69737024D01*
X126382930Y-69752930D01*
X126367024Y-69767346D01*
X126349781Y-69780134D01*
X126331368Y-69791170D01*
X126311962Y-69800349D01*
X126291750Y-69807581D01*
X126270926Y-69812797D01*
X126249691Y-69815947D01*
X126228250Y-69817000D01*
X125790750Y-69817000D01*
X125769309Y-69815947D01*
X125748074Y-69812797D01*
X125727250Y-69807581D01*
X125707038Y-69800349D01*
X125687632Y-69791170D01*
X125669219Y-69780134D01*
X125651976Y-69767346D01*
X125636070Y-69752930D01*
X125621654Y-69737024D01*
X125608866Y-69719781D01*
X125597830Y-69701368D01*
X125588651Y-69681962D01*
X125581419Y-69661750D01*
X125576203Y-69640926D01*
X125573053Y-69619691D01*
X125572000Y-69598250D01*
X125572000Y-69085750D01*
X125573053Y-69064309D01*
X125576203Y-69043074D01*
X125581419Y-69022250D01*
X125588651Y-69002038D01*
X125597830Y-68982632D01*
X125608866Y-68964219D01*
X125621654Y-68946976D01*
X125636070Y-68931070D01*
X125651976Y-68916654D01*
X125669219Y-68903866D01*
X125687632Y-68892830D01*
X125707038Y-68883651D01*
X125727250Y-68876419D01*
X125748074Y-68871203D01*
X125769309Y-68868053D01*
X125790750Y-68867000D01*
X126228250Y-68867000D01*
X126249691Y-68868053D01*
X126249691Y-68868053D01*
G37*
D13*
X126009500Y-69342000D03*
D12*
G36*
X124674691Y-68868053D02*
G01*
X124695926Y-68871203D01*
X124716750Y-68876419D01*
X124736962Y-68883651D01*
X124756368Y-68892830D01*
X124774781Y-68903866D01*
X124792024Y-68916654D01*
X124807930Y-68931070D01*
X124822346Y-68946976D01*
X124835134Y-68964219D01*
X124846170Y-68982632D01*
X124855349Y-69002038D01*
X124862581Y-69022250D01*
X124867797Y-69043074D01*
X124870947Y-69064309D01*
X124872000Y-69085750D01*
X124872000Y-69598250D01*
X124870947Y-69619691D01*
X124867797Y-69640926D01*
X124862581Y-69661750D01*
X124855349Y-69681962D01*
X124846170Y-69701368D01*
X124835134Y-69719781D01*
X124822346Y-69737024D01*
X124807930Y-69752930D01*
X124792024Y-69767346D01*
X124774781Y-69780134D01*
X124756368Y-69791170D01*
X124736962Y-69800349D01*
X124716750Y-69807581D01*
X124695926Y-69812797D01*
X124674691Y-69815947D01*
X124653250Y-69817000D01*
X124215750Y-69817000D01*
X124194309Y-69815947D01*
X124173074Y-69812797D01*
X124152250Y-69807581D01*
X124132038Y-69800349D01*
X124112632Y-69791170D01*
X124094219Y-69780134D01*
X124076976Y-69767346D01*
X124061070Y-69752930D01*
X124046654Y-69737024D01*
X124033866Y-69719781D01*
X124022830Y-69701368D01*
X124013651Y-69681962D01*
X124006419Y-69661750D01*
X124001203Y-69640926D01*
X123998053Y-69619691D01*
X123997000Y-69598250D01*
X123997000Y-69085750D01*
X123998053Y-69064309D01*
X124001203Y-69043074D01*
X124006419Y-69022250D01*
X124013651Y-69002038D01*
X124022830Y-68982632D01*
X124033866Y-68964219D01*
X124046654Y-68946976D01*
X124061070Y-68931070D01*
X124076976Y-68916654D01*
X124094219Y-68903866D01*
X124112632Y-68892830D01*
X124132038Y-68883651D01*
X124152250Y-68876419D01*
X124173074Y-68871203D01*
X124194309Y-68868053D01*
X124215750Y-68867000D01*
X124653250Y-68867000D01*
X124674691Y-68868053D01*
X124674691Y-68868053D01*
G37*
D13*
X124434500Y-69342000D03*
D14*
X122682000Y-75946000D03*
X123190000Y-71120000D03*
X128778000Y-75184000D03*
D15*
X135652000Y-74194000D03*
X136152000Y-74194000D03*
X136652000Y-74194000D03*
X137152000Y-74194000D03*
X137652000Y-74194000D03*
X137652000Y-71094000D03*
X137152000Y-71094000D03*
X136652000Y-71094000D03*
X136152000Y-71094000D03*
X135652000Y-71094000D03*
D16*
X136652000Y-72644000D03*
D12*
G36*
X118861054Y-73973083D02*
G01*
X118882895Y-73976323D01*
X118904314Y-73981688D01*
X118925104Y-73989127D01*
X118945064Y-73998568D01*
X118964003Y-74009919D01*
X118981738Y-74023073D01*
X118998099Y-74037901D01*
X119012927Y-74054262D01*
X119026081Y-74071997D01*
X119037432Y-74090936D01*
X119046873Y-74110896D01*
X119054312Y-74131686D01*
X119059677Y-74153105D01*
X119062917Y-74174946D01*
X119064000Y-74197000D01*
X119064000Y-74647000D01*
X119062917Y-74669054D01*
X119059677Y-74690895D01*
X119054312Y-74712314D01*
X119046873Y-74733104D01*
X119037432Y-74753064D01*
X119026081Y-74772003D01*
X119012927Y-74789738D01*
X118998099Y-74806099D01*
X118981738Y-74820927D01*
X118964003Y-74834081D01*
X118945064Y-74845432D01*
X118925104Y-74854873D01*
X118904314Y-74862312D01*
X118882895Y-74867677D01*
X118861054Y-74870917D01*
X118839000Y-74872000D01*
X117889000Y-74872000D01*
X117866946Y-74870917D01*
X117845105Y-74867677D01*
X117823686Y-74862312D01*
X117802896Y-74854873D01*
X117782936Y-74845432D01*
X117763997Y-74834081D01*
X117746262Y-74820927D01*
X117729901Y-74806099D01*
X117715073Y-74789738D01*
X117701919Y-74772003D01*
X117690568Y-74753064D01*
X117681127Y-74733104D01*
X117673688Y-74712314D01*
X117668323Y-74690895D01*
X117665083Y-74669054D01*
X117664000Y-74647000D01*
X117664000Y-74197000D01*
X117665083Y-74174946D01*
X117668323Y-74153105D01*
X117673688Y-74131686D01*
X117681127Y-74110896D01*
X117690568Y-74090936D01*
X117701919Y-74071997D01*
X117715073Y-74054262D01*
X117729901Y-74037901D01*
X117746262Y-74023073D01*
X117763997Y-74009919D01*
X117782936Y-73998568D01*
X117802896Y-73989127D01*
X117823686Y-73981688D01*
X117845105Y-73976323D01*
X117866946Y-73973083D01*
X117889000Y-73972000D01*
X118839000Y-73972000D01*
X118861054Y-73973083D01*
X118861054Y-73973083D01*
G37*
D17*
X118364000Y-74422000D03*
D18*
X118364000Y-73172000D03*
X118364000Y-71922000D03*
D19*
X136190701Y-69017949D03*
X125476000Y-67310000D03*
X135636000Y-75184000D03*
X136652000Y-75692000D03*
X128778000Y-77216000D03*
X126750653Y-71886653D03*
X137277000Y-69850000D03*
X129540000Y-69850000D03*
X135636000Y-69850000D03*
X127508000Y-69342000D03*
D20*
X123190000Y-70586500D02*
X124434500Y-69342000D01*
X123190000Y-71120000D02*
X123190000Y-70586500D01*
X136652000Y-71094000D02*
X136652000Y-70919000D01*
X136152000Y-71094000D02*
X136652000Y-71094000D01*
X124434500Y-73660000D02*
X124434500Y-75184000D01*
X121856999Y-72453001D02*
X123190000Y-71120000D01*
X121856999Y-76342001D02*
X121856999Y-72453001D01*
X122285999Y-76771001D02*
X121856999Y-76342001D01*
X123078001Y-76771001D02*
X122285999Y-76771001D01*
X123972888Y-75876114D02*
X123078001Y-76771001D01*
X123972888Y-75645612D02*
X123972888Y-75876114D01*
X124434500Y-75184000D02*
X123972888Y-75645612D01*
X121138000Y-73172000D02*
X118364000Y-73172000D01*
X121856999Y-72453001D02*
X121138000Y-73172000D01*
X116058000Y-73172000D02*
X114808000Y-74422000D01*
X118364000Y-73172000D02*
X116058000Y-73172000D01*
X136552000Y-70519000D02*
X136552000Y-69379248D01*
X136552000Y-69379248D02*
X136361001Y-69188249D01*
X136152000Y-70919000D02*
X136552000Y-70519000D01*
X136361001Y-69188249D02*
X136190701Y-69017949D01*
X136152000Y-71094000D02*
X136152000Y-70919000D01*
X125476000Y-68300500D02*
X124434500Y-69342000D01*
X125476000Y-67310000D02*
X125476000Y-68300500D01*
X136152000Y-74194000D02*
X135652000Y-74194000D01*
X126471112Y-74121612D02*
X126009500Y-73660000D01*
X128595888Y-74121612D02*
X126471112Y-74121612D01*
X129565500Y-73152000D02*
X128595888Y-74121612D01*
X129565500Y-73152000D02*
X129298750Y-73418750D01*
X135652000Y-75168000D02*
X135636000Y-75184000D01*
X135652000Y-74194000D02*
X135652000Y-75168000D01*
X127819002Y-70104000D02*
X126746506Y-70104000D01*
X122682000Y-74168506D02*
X122682000Y-75946000D01*
X126746506Y-70104000D02*
X122682000Y-74168506D01*
X129032000Y-68891002D02*
X127819002Y-70104000D01*
X130556000Y-69596000D02*
X129851002Y-68891002D01*
X130556000Y-72161500D02*
X130556000Y-69596000D01*
X129851002Y-68891002D02*
X129032000Y-68891002D01*
X129565500Y-73152000D02*
X130556000Y-72161500D01*
X137152000Y-74194000D02*
X136652000Y-74194000D01*
X126009500Y-75184000D02*
X128778000Y-75184000D01*
X136652000Y-74194000D02*
X136652000Y-74769000D01*
X136652000Y-74769000D02*
X136652000Y-75692000D01*
X128778000Y-75184000D02*
X128778000Y-77216000D01*
X127731847Y-71886653D02*
X127990500Y-71628000D01*
X126750653Y-71886653D02*
X127731847Y-71886653D01*
X137152000Y-71094000D02*
X137152000Y-70519000D01*
X137152000Y-69975000D02*
X137277000Y-69850000D01*
X137152000Y-70519000D02*
X137152000Y-69975000D01*
X129540000Y-71602500D02*
X129565500Y-71628000D01*
X129540000Y-69850000D02*
X129540000Y-71602500D01*
X135652000Y-71094000D02*
X135652000Y-70628000D01*
X135652000Y-69866000D02*
X135636000Y-69850000D01*
X135652000Y-70628000D02*
X135652000Y-69866000D01*
X127508000Y-69342000D02*
X126009500Y-69342000D01*
D21*
G36*
X142596001Y-65457061D02*
G01*
X142583803Y-65442197D01*
X142564557Y-65426403D01*
X142542601Y-65414667D01*
X142518776Y-65407440D01*
X142494000Y-65405000D01*
X130810000Y-65405000D01*
X130785224Y-65407440D01*
X130761399Y-65414667D01*
X130739443Y-65426403D01*
X130720197Y-65442197D01*
X130704403Y-65461443D01*
X130692667Y-65483399D01*
X130685440Y-65507224D01*
X130683000Y-65532000D01*
X130683000Y-68648199D01*
X130414805Y-68380004D01*
X130391003Y-68351001D01*
X130275278Y-68256028D01*
X130143249Y-68185456D01*
X129999988Y-68141999D01*
X129888335Y-68131002D01*
X129888324Y-68131002D01*
X129851002Y-68127326D01*
X129813680Y-68131002D01*
X129069322Y-68131002D01*
X129031999Y-68127326D01*
X128994676Y-68131002D01*
X128994667Y-68131002D01*
X128883014Y-68141999D01*
X128739753Y-68185456D01*
X128607724Y-68256028D01*
X128491999Y-68351001D01*
X128468201Y-68379999D01*
X128238956Y-68609245D01*
X128167774Y-68538063D01*
X127998256Y-68424795D01*
X127809898Y-68346774D01*
X127609939Y-68307000D01*
X127406061Y-68307000D01*
X127206102Y-68346774D01*
X127017744Y-68424795D01*
X126869948Y-68523549D01*
X126834115Y-68479885D01*
X126704275Y-68373329D01*
X126556142Y-68294150D01*
X126395408Y-68245392D01*
X126228250Y-68228928D01*
X125790750Y-68228928D01*
X125623592Y-68245392D01*
X125462858Y-68294150D01*
X125314725Y-68373329D01*
X125293070Y-68391100D01*
X125226494Y-68336463D01*
X125116180Y-68277498D01*
X124996482Y-68241188D01*
X124872000Y-68228928D01*
X124720250Y-68232000D01*
X124561500Y-68390750D01*
X124561500Y-69215000D01*
X124581500Y-69215000D01*
X124581500Y-69469000D01*
X124561500Y-69469000D01*
X124561500Y-70293250D01*
X124720250Y-70452000D01*
X124872000Y-70455072D01*
X124996482Y-70442812D01*
X125116180Y-70406502D01*
X125226494Y-70347537D01*
X125293070Y-70292900D01*
X125314725Y-70310671D01*
X125412677Y-70363027D01*
X124253169Y-71522535D01*
X124272458Y-71479174D01*
X124321731Y-71261095D01*
X124327511Y-71037594D01*
X124289577Y-70817260D01*
X124209387Y-70608560D01*
X124181588Y-70556550D01*
X123968169Y-70521439D01*
X124035312Y-70454296D01*
X124148750Y-70452000D01*
X124307500Y-70293250D01*
X124307500Y-69469000D01*
X123520750Y-69469000D01*
X123362000Y-69627750D01*
X123358928Y-69817000D01*
X123371188Y-69941482D01*
X123389375Y-70001437D01*
X123331095Y-69988269D01*
X123107594Y-69982489D01*
X122887260Y-70020423D01*
X122678560Y-70100613D01*
X122626550Y-70128412D01*
X122591439Y-70341834D01*
X123190000Y-70940395D01*
X123204143Y-70926253D01*
X123383748Y-71105858D01*
X123369605Y-71120000D01*
X123383748Y-71134143D01*
X123204143Y-71313748D01*
X123190000Y-71299605D01*
X122591439Y-71898166D01*
X122626550Y-72111588D01*
X122830826Y-72202458D01*
X123048905Y-72251731D01*
X123272406Y-72257511D01*
X123492740Y-72219577D01*
X123595681Y-72180023D01*
X122171003Y-73604702D01*
X122141999Y-73628505D01*
X122089890Y-73692001D01*
X122047026Y-73744230D01*
X122001520Y-73829365D01*
X121976454Y-73876260D01*
X121932997Y-74019521D01*
X121922000Y-74131174D01*
X121922000Y-74131184D01*
X121918324Y-74168506D01*
X121922000Y-74205829D01*
X121922001Y-75100867D01*
X121800388Y-75222480D01*
X121676176Y-75408376D01*
X121590617Y-75614933D01*
X121547000Y-75834212D01*
X121547000Y-76057788D01*
X121590617Y-76277067D01*
X121676176Y-76483624D01*
X121800388Y-76669520D01*
X121958480Y-76827612D01*
X122144376Y-76951824D01*
X122350933Y-77037383D01*
X122570212Y-77081000D01*
X122793788Y-77081000D01*
X123013067Y-77037383D01*
X123219624Y-76951824D01*
X123405520Y-76827612D01*
X123563612Y-76669520D01*
X123687824Y-76483624D01*
X123773383Y-76277067D01*
X123777571Y-76256010D01*
X123872518Y-76284812D01*
X123997000Y-76297072D01*
X124148750Y-76294000D01*
X124307500Y-76135250D01*
X124307500Y-75311000D01*
X124287500Y-75311000D01*
X124287500Y-75057000D01*
X124307500Y-75057000D01*
X124307500Y-73787000D01*
X124287500Y-73787000D01*
X124287500Y-73637807D01*
X124412307Y-73513000D01*
X124561500Y-73513000D01*
X124561500Y-73533000D01*
X124581500Y-73533000D01*
X124581500Y-73787000D01*
X124561500Y-73787000D01*
X124561500Y-75057000D01*
X124581500Y-75057000D01*
X124581500Y-75311000D01*
X124561500Y-75311000D01*
X124561500Y-76135250D01*
X124720250Y-76294000D01*
X124872000Y-76297072D01*
X124996482Y-76284812D01*
X125116180Y-76248502D01*
X125226494Y-76189537D01*
X125293070Y-76134900D01*
X125314725Y-76152671D01*
X125462858Y-76231850D01*
X125623592Y-76280608D01*
X125790750Y-76297072D01*
X126228250Y-76297072D01*
X126395408Y-76280608D01*
X126556142Y-76231850D01*
X126704275Y-76152671D01*
X126834115Y-76046115D01*
X126917918Y-75944000D01*
X127932868Y-75944000D01*
X128018000Y-76029132D01*
X128018001Y-76512288D01*
X127974063Y-76556226D01*
X127860795Y-76725744D01*
X127782774Y-76914102D01*
X127743000Y-77114061D01*
X127743000Y-77317939D01*
X127782774Y-77517898D01*
X127860795Y-77706256D01*
X127974063Y-77875774D01*
X128118226Y-78019937D01*
X128287744Y-78133205D01*
X128476102Y-78211226D01*
X128676061Y-78251000D01*
X128879939Y-78251000D01*
X129079898Y-78211226D01*
X129268256Y-78133205D01*
X129437774Y-78019937D01*
X129581937Y-77875774D01*
X129695205Y-77706256D01*
X129773226Y-77517898D01*
X129813000Y-77317939D01*
X129813000Y-77114061D01*
X129773226Y-76914102D01*
X129695205Y-76725744D01*
X129581937Y-76556226D01*
X129538000Y-76512289D01*
X129538000Y-76029132D01*
X129659612Y-75907520D01*
X129783824Y-75721624D01*
X129869383Y-75515067D01*
X129913000Y-75295788D01*
X129913000Y-75072212D01*
X129869383Y-74852933D01*
X129783824Y-74646376D01*
X129659612Y-74460480D01*
X129501520Y-74302388D01*
X129494563Y-74297739D01*
X130129299Y-73663004D01*
X130129308Y-73662993D01*
X130683000Y-73109302D01*
X130683000Y-79756000D01*
X130685440Y-79780776D01*
X130692667Y-79804601D01*
X130704403Y-79826557D01*
X130720197Y-79845803D01*
X130739443Y-79861597D01*
X130761399Y-79873333D01*
X130785224Y-79880560D01*
X130810000Y-79883000D01*
X142494000Y-79883000D01*
X142518776Y-79880560D01*
X142542601Y-79873333D01*
X142564557Y-79861597D01*
X142583803Y-79845803D01*
X142596000Y-79830940D01*
X142596000Y-81128000D01*
X113690000Y-81128000D01*
X113690000Y-75394903D01*
X113710412Y-75422269D01*
X113926645Y-75617178D01*
X114176748Y-75766157D01*
X114451109Y-75863481D01*
X114681000Y-75742814D01*
X114681000Y-74549000D01*
X114935000Y-74549000D01*
X114935000Y-75742814D01*
X115164891Y-75863481D01*
X115439252Y-75766157D01*
X115689355Y-75617178D01*
X115905588Y-75422269D01*
X116079641Y-75188920D01*
X116204825Y-74926099D01*
X116249476Y-74778890D01*
X116128155Y-74549000D01*
X114935000Y-74549000D01*
X114681000Y-74549000D01*
X114661000Y-74549000D01*
X114661000Y-74295000D01*
X114681000Y-74295000D01*
X114681000Y-74275000D01*
X114935000Y-74275000D01*
X114935000Y-74295000D01*
X116128155Y-74295000D01*
X116179873Y-74197000D01*
X117025928Y-74197000D01*
X117025928Y-74647000D01*
X117042512Y-74815377D01*
X117091625Y-74977283D01*
X117171382Y-75126497D01*
X117278716Y-75257284D01*
X117409503Y-75364618D01*
X117558717Y-75444375D01*
X117720623Y-75493488D01*
X117889000Y-75510072D01*
X118839000Y-75510072D01*
X119007377Y-75493488D01*
X119169283Y-75444375D01*
X119318497Y-75364618D01*
X119449284Y-75257284D01*
X119556618Y-75126497D01*
X119636375Y-74977283D01*
X119685488Y-74815377D01*
X119702072Y-74647000D01*
X119702072Y-74197000D01*
X119685488Y-74028623D01*
X119636375Y-73866717D01*
X119561338Y-73726334D01*
X119647279Y-73546563D01*
X119658408Y-73466001D01*
X119531502Y-73299000D01*
X118491000Y-73299000D01*
X118491000Y-73319000D01*
X118237000Y-73319000D01*
X118237000Y-73299000D01*
X117196498Y-73299000D01*
X117069592Y-73466001D01*
X117080721Y-73546563D01*
X117166662Y-73726334D01*
X117091625Y-73866717D01*
X117042512Y-74028623D01*
X117025928Y-74197000D01*
X116179873Y-74197000D01*
X116249476Y-74065110D01*
X116204825Y-73917901D01*
X116079641Y-73655080D01*
X115905588Y-73421731D01*
X115821534Y-73345966D01*
X115902180Y-73321502D01*
X116012494Y-73262537D01*
X116109185Y-73183185D01*
X116188537Y-73086494D01*
X116247502Y-72976180D01*
X116283812Y-72856482D01*
X116296072Y-72732000D01*
X116296072Y-71922000D01*
X117023751Y-71922000D01*
X117044700Y-72134697D01*
X117106741Y-72339220D01*
X117207491Y-72527710D01*
X117219273Y-72542066D01*
X117173649Y-72603051D01*
X117080721Y-72797437D01*
X117069592Y-72877999D01*
X117196498Y-73045000D01*
X118237000Y-73045000D01*
X118237000Y-73025000D01*
X118491000Y-73025000D01*
X118491000Y-73045000D01*
X119531502Y-73045000D01*
X119658408Y-72877999D01*
X119647279Y-72797437D01*
X119554351Y-72603051D01*
X119508727Y-72542066D01*
X119520509Y-72527710D01*
X119621259Y-72339220D01*
X119683300Y-72134697D01*
X119704249Y-71922000D01*
X119683300Y-71709303D01*
X119621259Y-71504780D01*
X119520509Y-71316290D01*
X119427047Y-71202406D01*
X122052489Y-71202406D01*
X122090423Y-71422740D01*
X122170613Y-71631440D01*
X122198412Y-71683450D01*
X122411834Y-71718561D01*
X123010395Y-71120000D01*
X122411834Y-70521439D01*
X122198412Y-70556550D01*
X122107542Y-70760826D01*
X122058269Y-70978905D01*
X122052489Y-71202406D01*
X119427047Y-71202406D01*
X119384922Y-71151078D01*
X119219710Y-71015491D01*
X119031220Y-70914741D01*
X118826697Y-70852700D01*
X118667294Y-70837000D01*
X118060706Y-70837000D01*
X117901303Y-70852700D01*
X117696780Y-70914741D01*
X117508290Y-71015491D01*
X117343078Y-71151078D01*
X117207491Y-71316290D01*
X117106741Y-71504780D01*
X117044700Y-71709303D01*
X117023751Y-71922000D01*
X116296072Y-71922000D01*
X116296072Y-71032000D01*
X116283812Y-70907518D01*
X116247502Y-70787820D01*
X116188537Y-70677506D01*
X116109185Y-70580815D01*
X116012494Y-70501463D01*
X115902180Y-70442498D01*
X115782482Y-70406188D01*
X115658000Y-70393928D01*
X113958000Y-70393928D01*
X113833518Y-70406188D01*
X113713820Y-70442498D01*
X113690000Y-70455230D01*
X113690000Y-68867000D01*
X123358928Y-68867000D01*
X123362000Y-69056250D01*
X123520750Y-69215000D01*
X124307500Y-69215000D01*
X124307500Y-68390750D01*
X124148750Y-68232000D01*
X123997000Y-68228928D01*
X123872518Y-68241188D01*
X123752820Y-68277498D01*
X123642506Y-68336463D01*
X123545815Y-68415815D01*
X123466463Y-68512506D01*
X123407498Y-68622820D01*
X123371188Y-68742518D01*
X123358928Y-68867000D01*
X113690000Y-68867000D01*
X113690000Y-64668000D01*
X142596001Y-64668000D01*
X142596001Y-65457061D01*
X142596001Y-65457061D01*
G37*
X142596001Y-65457061D02*
X142583803Y-65442197D01*
X142564557Y-65426403D01*
X142542601Y-65414667D01*
X142518776Y-65407440D01*
X142494000Y-65405000D01*
X130810000Y-65405000D01*
X130785224Y-65407440D01*
X130761399Y-65414667D01*
X130739443Y-65426403D01*
X130720197Y-65442197D01*
X130704403Y-65461443D01*
X130692667Y-65483399D01*
X130685440Y-65507224D01*
X130683000Y-65532000D01*
X130683000Y-68648199D01*
X130414805Y-68380004D01*
X130391003Y-68351001D01*
X130275278Y-68256028D01*
X130143249Y-68185456D01*
X129999988Y-68141999D01*
X129888335Y-68131002D01*
X129888324Y-68131002D01*
X129851002Y-68127326D01*
X129813680Y-68131002D01*
X129069322Y-68131002D01*
X129031999Y-68127326D01*
X128994676Y-68131002D01*
X128994667Y-68131002D01*
X128883014Y-68141999D01*
X128739753Y-68185456D01*
X128607724Y-68256028D01*
X128491999Y-68351001D01*
X128468201Y-68379999D01*
X128238956Y-68609245D01*
X128167774Y-68538063D01*
X127998256Y-68424795D01*
X127809898Y-68346774D01*
X127609939Y-68307000D01*
X127406061Y-68307000D01*
X127206102Y-68346774D01*
X127017744Y-68424795D01*
X126869948Y-68523549D01*
X126834115Y-68479885D01*
X126704275Y-68373329D01*
X126556142Y-68294150D01*
X126395408Y-68245392D01*
X126228250Y-68228928D01*
X125790750Y-68228928D01*
X125623592Y-68245392D01*
X125462858Y-68294150D01*
X125314725Y-68373329D01*
X125293070Y-68391100D01*
X125226494Y-68336463D01*
X125116180Y-68277498D01*
X124996482Y-68241188D01*
X124872000Y-68228928D01*
X124720250Y-68232000D01*
X124561500Y-68390750D01*
X124561500Y-69215000D01*
X124581500Y-69215000D01*
X124581500Y-69469000D01*
X124561500Y-69469000D01*
X124561500Y-70293250D01*
X124720250Y-70452000D01*
X124872000Y-70455072D01*
X124996482Y-70442812D01*
X125116180Y-70406502D01*
X125226494Y-70347537D01*
X125293070Y-70292900D01*
X125314725Y-70310671D01*
X125412677Y-70363027D01*
X124253169Y-71522535D01*
X124272458Y-71479174D01*
X124321731Y-71261095D01*
X124327511Y-71037594D01*
X124289577Y-70817260D01*
X124209387Y-70608560D01*
X124181588Y-70556550D01*
X123968169Y-70521439D01*
X124035312Y-70454296D01*
X124148750Y-70452000D01*
X124307500Y-70293250D01*
X124307500Y-69469000D01*
X123520750Y-69469000D01*
X123362000Y-69627750D01*
X123358928Y-69817000D01*
X123371188Y-69941482D01*
X123389375Y-70001437D01*
X123331095Y-69988269D01*
X123107594Y-69982489D01*
X122887260Y-70020423D01*
X122678560Y-70100613D01*
X122626550Y-70128412D01*
X122591439Y-70341834D01*
X123190000Y-70940395D01*
X123204143Y-70926253D01*
X123383748Y-71105858D01*
X123369605Y-71120000D01*
X123383748Y-71134143D01*
X123204143Y-71313748D01*
X123190000Y-71299605D01*
X122591439Y-71898166D01*
X122626550Y-72111588D01*
X122830826Y-72202458D01*
X123048905Y-72251731D01*
X123272406Y-72257511D01*
X123492740Y-72219577D01*
X123595681Y-72180023D01*
X122171003Y-73604702D01*
X122141999Y-73628505D01*
X122089890Y-73692001D01*
X122047026Y-73744230D01*
X122001520Y-73829365D01*
X121976454Y-73876260D01*
X121932997Y-74019521D01*
X121922000Y-74131174D01*
X121922000Y-74131184D01*
X121918324Y-74168506D01*
X121922000Y-74205829D01*
X121922001Y-75100867D01*
X121800388Y-75222480D01*
X121676176Y-75408376D01*
X121590617Y-75614933D01*
X121547000Y-75834212D01*
X121547000Y-76057788D01*
X121590617Y-76277067D01*
X121676176Y-76483624D01*
X121800388Y-76669520D01*
X121958480Y-76827612D01*
X122144376Y-76951824D01*
X122350933Y-77037383D01*
X122570212Y-77081000D01*
X122793788Y-77081000D01*
X123013067Y-77037383D01*
X123219624Y-76951824D01*
X123405520Y-76827612D01*
X123563612Y-76669520D01*
X123687824Y-76483624D01*
X123773383Y-76277067D01*
X123777571Y-76256010D01*
X123872518Y-76284812D01*
X123997000Y-76297072D01*
X124148750Y-76294000D01*
X124307500Y-76135250D01*
X124307500Y-75311000D01*
X124287500Y-75311000D01*
X124287500Y-75057000D01*
X124307500Y-75057000D01*
X124307500Y-73787000D01*
X124287500Y-73787000D01*
X124287500Y-73637807D01*
X124412307Y-73513000D01*
X124561500Y-73513000D01*
X124561500Y-73533000D01*
X124581500Y-73533000D01*
X124581500Y-73787000D01*
X124561500Y-73787000D01*
X124561500Y-75057000D01*
X124581500Y-75057000D01*
X124581500Y-75311000D01*
X124561500Y-75311000D01*
X124561500Y-76135250D01*
X124720250Y-76294000D01*
X124872000Y-76297072D01*
X124996482Y-76284812D01*
X125116180Y-76248502D01*
X125226494Y-76189537D01*
X125293070Y-76134900D01*
X125314725Y-76152671D01*
X125462858Y-76231850D01*
X125623592Y-76280608D01*
X125790750Y-76297072D01*
X126228250Y-76297072D01*
X126395408Y-76280608D01*
X126556142Y-76231850D01*
X126704275Y-76152671D01*
X126834115Y-76046115D01*
X126917918Y-75944000D01*
X127932868Y-75944000D01*
X128018000Y-76029132D01*
X128018001Y-76512288D01*
X127974063Y-76556226D01*
X127860795Y-76725744D01*
X127782774Y-76914102D01*
X127743000Y-77114061D01*
X127743000Y-77317939D01*
X127782774Y-77517898D01*
X127860795Y-77706256D01*
X127974063Y-77875774D01*
X128118226Y-78019937D01*
X128287744Y-78133205D01*
X128476102Y-78211226D01*
X128676061Y-78251000D01*
X128879939Y-78251000D01*
X129079898Y-78211226D01*
X129268256Y-78133205D01*
X129437774Y-78019937D01*
X129581937Y-77875774D01*
X129695205Y-77706256D01*
X129773226Y-77517898D01*
X129813000Y-77317939D01*
X129813000Y-77114061D01*
X129773226Y-76914102D01*
X129695205Y-76725744D01*
X129581937Y-76556226D01*
X129538000Y-76512289D01*
X129538000Y-76029132D01*
X129659612Y-75907520D01*
X129783824Y-75721624D01*
X129869383Y-75515067D01*
X129913000Y-75295788D01*
X129913000Y-75072212D01*
X129869383Y-74852933D01*
X129783824Y-74646376D01*
X129659612Y-74460480D01*
X129501520Y-74302388D01*
X129494563Y-74297739D01*
X130129299Y-73663004D01*
X130129308Y-73662993D01*
X130683000Y-73109302D01*
X130683000Y-79756000D01*
X130685440Y-79780776D01*
X130692667Y-79804601D01*
X130704403Y-79826557D01*
X130720197Y-79845803D01*
X130739443Y-79861597D01*
X130761399Y-79873333D01*
X130785224Y-79880560D01*
X130810000Y-79883000D01*
X142494000Y-79883000D01*
X142518776Y-79880560D01*
X142542601Y-79873333D01*
X142564557Y-79861597D01*
X142583803Y-79845803D01*
X142596000Y-79830940D01*
X142596000Y-81128000D01*
X113690000Y-81128000D01*
X113690000Y-75394903D01*
X113710412Y-75422269D01*
X113926645Y-75617178D01*
X114176748Y-75766157D01*
X114451109Y-75863481D01*
X114681000Y-75742814D01*
X114681000Y-74549000D01*
X114935000Y-74549000D01*
X114935000Y-75742814D01*
X115164891Y-75863481D01*
X115439252Y-75766157D01*
X115689355Y-75617178D01*
X115905588Y-75422269D01*
X116079641Y-75188920D01*
X116204825Y-74926099D01*
X116249476Y-74778890D01*
X116128155Y-74549000D01*
X114935000Y-74549000D01*
X114681000Y-74549000D01*
X114661000Y-74549000D01*
X114661000Y-74295000D01*
X114681000Y-74295000D01*
X114681000Y-74275000D01*
X114935000Y-74275000D01*
X114935000Y-74295000D01*
X116128155Y-74295000D01*
X116179873Y-74197000D01*
X117025928Y-74197000D01*
X117025928Y-74647000D01*
X117042512Y-74815377D01*
X117091625Y-74977283D01*
X117171382Y-75126497D01*
X117278716Y-75257284D01*
X117409503Y-75364618D01*
X117558717Y-75444375D01*
X117720623Y-75493488D01*
X117889000Y-75510072D01*
X118839000Y-75510072D01*
X119007377Y-75493488D01*
X119169283Y-75444375D01*
X119318497Y-75364618D01*
X119449284Y-75257284D01*
X119556618Y-75126497D01*
X119636375Y-74977283D01*
X119685488Y-74815377D01*
X119702072Y-74647000D01*
X119702072Y-74197000D01*
X119685488Y-74028623D01*
X119636375Y-73866717D01*
X119561338Y-73726334D01*
X119647279Y-73546563D01*
X119658408Y-73466001D01*
X119531502Y-73299000D01*
X118491000Y-73299000D01*
X118491000Y-73319000D01*
X118237000Y-73319000D01*
X118237000Y-73299000D01*
X117196498Y-73299000D01*
X117069592Y-73466001D01*
X117080721Y-73546563D01*
X117166662Y-73726334D01*
X117091625Y-73866717D01*
X117042512Y-74028623D01*
X117025928Y-74197000D01*
X116179873Y-74197000D01*
X116249476Y-74065110D01*
X116204825Y-73917901D01*
X116079641Y-73655080D01*
X115905588Y-73421731D01*
X115821534Y-73345966D01*
X115902180Y-73321502D01*
X116012494Y-73262537D01*
X116109185Y-73183185D01*
X116188537Y-73086494D01*
X116247502Y-72976180D01*
X116283812Y-72856482D01*
X116296072Y-72732000D01*
X116296072Y-71922000D01*
X117023751Y-71922000D01*
X117044700Y-72134697D01*
X117106741Y-72339220D01*
X117207491Y-72527710D01*
X117219273Y-72542066D01*
X117173649Y-72603051D01*
X117080721Y-72797437D01*
X117069592Y-72877999D01*
X117196498Y-73045000D01*
X118237000Y-73045000D01*
X118237000Y-73025000D01*
X118491000Y-73025000D01*
X118491000Y-73045000D01*
X119531502Y-73045000D01*
X119658408Y-72877999D01*
X119647279Y-72797437D01*
X119554351Y-72603051D01*
X119508727Y-72542066D01*
X119520509Y-72527710D01*
X119621259Y-72339220D01*
X119683300Y-72134697D01*
X119704249Y-71922000D01*
X119683300Y-71709303D01*
X119621259Y-71504780D01*
X119520509Y-71316290D01*
X119427047Y-71202406D01*
X122052489Y-71202406D01*
X122090423Y-71422740D01*
X122170613Y-71631440D01*
X122198412Y-71683450D01*
X122411834Y-71718561D01*
X123010395Y-71120000D01*
X122411834Y-70521439D01*
X122198412Y-70556550D01*
X122107542Y-70760826D01*
X122058269Y-70978905D01*
X122052489Y-71202406D01*
X119427047Y-71202406D01*
X119384922Y-71151078D01*
X119219710Y-71015491D01*
X119031220Y-70914741D01*
X118826697Y-70852700D01*
X118667294Y-70837000D01*
X118060706Y-70837000D01*
X117901303Y-70852700D01*
X117696780Y-70914741D01*
X117508290Y-71015491D01*
X117343078Y-71151078D01*
X117207491Y-71316290D01*
X117106741Y-71504780D01*
X117044700Y-71709303D01*
X117023751Y-71922000D01*
X116296072Y-71922000D01*
X116296072Y-71032000D01*
X116283812Y-70907518D01*
X116247502Y-70787820D01*
X116188537Y-70677506D01*
X116109185Y-70580815D01*
X116012494Y-70501463D01*
X115902180Y-70442498D01*
X115782482Y-70406188D01*
X115658000Y-70393928D01*
X113958000Y-70393928D01*
X113833518Y-70406188D01*
X113713820Y-70442498D01*
X113690000Y-70455230D01*
X113690000Y-68867000D01*
X123358928Y-68867000D01*
X123362000Y-69056250D01*
X123520750Y-69215000D01*
X124307500Y-69215000D01*
X124307500Y-68390750D01*
X124148750Y-68232000D01*
X123997000Y-68228928D01*
X123872518Y-68241188D01*
X123752820Y-68277498D01*
X123642506Y-68336463D01*
X123545815Y-68415815D01*
X123466463Y-68512506D01*
X123407498Y-68622820D01*
X123371188Y-68742518D01*
X123358928Y-68867000D01*
X113690000Y-68867000D01*
X113690000Y-64668000D01*
X142596001Y-64668000D01*
X142596001Y-65457061D01*
M02*
