G04 #@! TF.GenerationSoftware,KiCad,Pcbnew,(5.1.0-0)*
G04 #@! TF.CreationDate,2019-07-20T15:32:48+01:00*
G04 #@! TF.ProjectId,Li-ionCharger,4c692d69-6f6e-4436-9861-726765722e6b,rev?*
G04 #@! TF.SameCoordinates,Original*
G04 #@! TF.FileFunction,Paste,Top*
G04 #@! TF.FilePolarity,Positive*
%FSLAX46Y46*%
G04 Gerber Fmt 4.6, Leading zero omitted, Abs format (unit mm)*
G04 Created by KiCad (PCBNEW (5.1.0-0)) date 2019-07-20 15:32:48*
%MOMM*%
%LPD*%
G04 APERTURE LIST*
%ADD10C,0.100000*%
%ADD11C,0.875000*%
%ADD12R,0.300000X0.650000*%
%ADD13R,1.050000X0.600000*%
G04 APERTURE END LIST*
D10*
G36*
X124674691Y-73186053D02*
G01*
X124695926Y-73189203D01*
X124716750Y-73194419D01*
X124736962Y-73201651D01*
X124756368Y-73210830D01*
X124774781Y-73221866D01*
X124792024Y-73234654D01*
X124807930Y-73249070D01*
X124822346Y-73264976D01*
X124835134Y-73282219D01*
X124846170Y-73300632D01*
X124855349Y-73320038D01*
X124862581Y-73340250D01*
X124867797Y-73361074D01*
X124870947Y-73382309D01*
X124872000Y-73403750D01*
X124872000Y-73916250D01*
X124870947Y-73937691D01*
X124867797Y-73958926D01*
X124862581Y-73979750D01*
X124855349Y-73999962D01*
X124846170Y-74019368D01*
X124835134Y-74037781D01*
X124822346Y-74055024D01*
X124807930Y-74070930D01*
X124792024Y-74085346D01*
X124774781Y-74098134D01*
X124756368Y-74109170D01*
X124736962Y-74118349D01*
X124716750Y-74125581D01*
X124695926Y-74130797D01*
X124674691Y-74133947D01*
X124653250Y-74135000D01*
X124215750Y-74135000D01*
X124194309Y-74133947D01*
X124173074Y-74130797D01*
X124152250Y-74125581D01*
X124132038Y-74118349D01*
X124112632Y-74109170D01*
X124094219Y-74098134D01*
X124076976Y-74085346D01*
X124061070Y-74070930D01*
X124046654Y-74055024D01*
X124033866Y-74037781D01*
X124022830Y-74019368D01*
X124013651Y-73999962D01*
X124006419Y-73979750D01*
X124001203Y-73958926D01*
X123998053Y-73937691D01*
X123997000Y-73916250D01*
X123997000Y-73403750D01*
X123998053Y-73382309D01*
X124001203Y-73361074D01*
X124006419Y-73340250D01*
X124013651Y-73320038D01*
X124022830Y-73300632D01*
X124033866Y-73282219D01*
X124046654Y-73264976D01*
X124061070Y-73249070D01*
X124076976Y-73234654D01*
X124094219Y-73221866D01*
X124112632Y-73210830D01*
X124132038Y-73201651D01*
X124152250Y-73194419D01*
X124173074Y-73189203D01*
X124194309Y-73186053D01*
X124215750Y-73185000D01*
X124653250Y-73185000D01*
X124674691Y-73186053D01*
X124674691Y-73186053D01*
G37*
D11*
X124434500Y-73660000D03*
D10*
G36*
X126249691Y-73186053D02*
G01*
X126270926Y-73189203D01*
X126291750Y-73194419D01*
X126311962Y-73201651D01*
X126331368Y-73210830D01*
X126349781Y-73221866D01*
X126367024Y-73234654D01*
X126382930Y-73249070D01*
X126397346Y-73264976D01*
X126410134Y-73282219D01*
X126421170Y-73300632D01*
X126430349Y-73320038D01*
X126437581Y-73340250D01*
X126442797Y-73361074D01*
X126445947Y-73382309D01*
X126447000Y-73403750D01*
X126447000Y-73916250D01*
X126445947Y-73937691D01*
X126442797Y-73958926D01*
X126437581Y-73979750D01*
X126430349Y-73999962D01*
X126421170Y-74019368D01*
X126410134Y-74037781D01*
X126397346Y-74055024D01*
X126382930Y-74070930D01*
X126367024Y-74085346D01*
X126349781Y-74098134D01*
X126331368Y-74109170D01*
X126311962Y-74118349D01*
X126291750Y-74125581D01*
X126270926Y-74130797D01*
X126249691Y-74133947D01*
X126228250Y-74135000D01*
X125790750Y-74135000D01*
X125769309Y-74133947D01*
X125748074Y-74130797D01*
X125727250Y-74125581D01*
X125707038Y-74118349D01*
X125687632Y-74109170D01*
X125669219Y-74098134D01*
X125651976Y-74085346D01*
X125636070Y-74070930D01*
X125621654Y-74055024D01*
X125608866Y-74037781D01*
X125597830Y-74019368D01*
X125588651Y-73999962D01*
X125581419Y-73979750D01*
X125576203Y-73958926D01*
X125573053Y-73937691D01*
X125572000Y-73916250D01*
X125572000Y-73403750D01*
X125573053Y-73382309D01*
X125576203Y-73361074D01*
X125581419Y-73340250D01*
X125588651Y-73320038D01*
X125597830Y-73300632D01*
X125608866Y-73282219D01*
X125621654Y-73264976D01*
X125636070Y-73249070D01*
X125651976Y-73234654D01*
X125669219Y-73221866D01*
X125687632Y-73210830D01*
X125707038Y-73201651D01*
X125727250Y-73194419D01*
X125748074Y-73189203D01*
X125769309Y-73186053D01*
X125790750Y-73185000D01*
X126228250Y-73185000D01*
X126249691Y-73186053D01*
X126249691Y-73186053D01*
G37*
D11*
X126009500Y-73660000D03*
D10*
G36*
X126249691Y-74710053D02*
G01*
X126270926Y-74713203D01*
X126291750Y-74718419D01*
X126311962Y-74725651D01*
X126331368Y-74734830D01*
X126349781Y-74745866D01*
X126367024Y-74758654D01*
X126382930Y-74773070D01*
X126397346Y-74788976D01*
X126410134Y-74806219D01*
X126421170Y-74824632D01*
X126430349Y-74844038D01*
X126437581Y-74864250D01*
X126442797Y-74885074D01*
X126445947Y-74906309D01*
X126447000Y-74927750D01*
X126447000Y-75440250D01*
X126445947Y-75461691D01*
X126442797Y-75482926D01*
X126437581Y-75503750D01*
X126430349Y-75523962D01*
X126421170Y-75543368D01*
X126410134Y-75561781D01*
X126397346Y-75579024D01*
X126382930Y-75594930D01*
X126367024Y-75609346D01*
X126349781Y-75622134D01*
X126331368Y-75633170D01*
X126311962Y-75642349D01*
X126291750Y-75649581D01*
X126270926Y-75654797D01*
X126249691Y-75657947D01*
X126228250Y-75659000D01*
X125790750Y-75659000D01*
X125769309Y-75657947D01*
X125748074Y-75654797D01*
X125727250Y-75649581D01*
X125707038Y-75642349D01*
X125687632Y-75633170D01*
X125669219Y-75622134D01*
X125651976Y-75609346D01*
X125636070Y-75594930D01*
X125621654Y-75579024D01*
X125608866Y-75561781D01*
X125597830Y-75543368D01*
X125588651Y-75523962D01*
X125581419Y-75503750D01*
X125576203Y-75482926D01*
X125573053Y-75461691D01*
X125572000Y-75440250D01*
X125572000Y-74927750D01*
X125573053Y-74906309D01*
X125576203Y-74885074D01*
X125581419Y-74864250D01*
X125588651Y-74844038D01*
X125597830Y-74824632D01*
X125608866Y-74806219D01*
X125621654Y-74788976D01*
X125636070Y-74773070D01*
X125651976Y-74758654D01*
X125669219Y-74745866D01*
X125687632Y-74734830D01*
X125707038Y-74725651D01*
X125727250Y-74718419D01*
X125748074Y-74713203D01*
X125769309Y-74710053D01*
X125790750Y-74709000D01*
X126228250Y-74709000D01*
X126249691Y-74710053D01*
X126249691Y-74710053D01*
G37*
D11*
X126009500Y-75184000D03*
D10*
G36*
X124674691Y-74710053D02*
G01*
X124695926Y-74713203D01*
X124716750Y-74718419D01*
X124736962Y-74725651D01*
X124756368Y-74734830D01*
X124774781Y-74745866D01*
X124792024Y-74758654D01*
X124807930Y-74773070D01*
X124822346Y-74788976D01*
X124835134Y-74806219D01*
X124846170Y-74824632D01*
X124855349Y-74844038D01*
X124862581Y-74864250D01*
X124867797Y-74885074D01*
X124870947Y-74906309D01*
X124872000Y-74927750D01*
X124872000Y-75440250D01*
X124870947Y-75461691D01*
X124867797Y-75482926D01*
X124862581Y-75503750D01*
X124855349Y-75523962D01*
X124846170Y-75543368D01*
X124835134Y-75561781D01*
X124822346Y-75579024D01*
X124807930Y-75594930D01*
X124792024Y-75609346D01*
X124774781Y-75622134D01*
X124756368Y-75633170D01*
X124736962Y-75642349D01*
X124716750Y-75649581D01*
X124695926Y-75654797D01*
X124674691Y-75657947D01*
X124653250Y-75659000D01*
X124215750Y-75659000D01*
X124194309Y-75657947D01*
X124173074Y-75654797D01*
X124152250Y-75649581D01*
X124132038Y-75642349D01*
X124112632Y-75633170D01*
X124094219Y-75622134D01*
X124076976Y-75609346D01*
X124061070Y-75594930D01*
X124046654Y-75579024D01*
X124033866Y-75561781D01*
X124022830Y-75543368D01*
X124013651Y-75523962D01*
X124006419Y-75503750D01*
X124001203Y-75482926D01*
X123998053Y-75461691D01*
X123997000Y-75440250D01*
X123997000Y-74927750D01*
X123998053Y-74906309D01*
X124001203Y-74885074D01*
X124006419Y-74864250D01*
X124013651Y-74844038D01*
X124022830Y-74824632D01*
X124033866Y-74806219D01*
X124046654Y-74788976D01*
X124061070Y-74773070D01*
X124076976Y-74758654D01*
X124094219Y-74745866D01*
X124112632Y-74734830D01*
X124132038Y-74725651D01*
X124152250Y-74718419D01*
X124173074Y-74713203D01*
X124194309Y-74710053D01*
X124215750Y-74709000D01*
X124653250Y-74709000D01*
X124674691Y-74710053D01*
X124674691Y-74710053D01*
G37*
D11*
X124434500Y-75184000D03*
D10*
G36*
X128230691Y-71154053D02*
G01*
X128251926Y-71157203D01*
X128272750Y-71162419D01*
X128292962Y-71169651D01*
X128312368Y-71178830D01*
X128330781Y-71189866D01*
X128348024Y-71202654D01*
X128363930Y-71217070D01*
X128378346Y-71232976D01*
X128391134Y-71250219D01*
X128402170Y-71268632D01*
X128411349Y-71288038D01*
X128418581Y-71308250D01*
X128423797Y-71329074D01*
X128426947Y-71350309D01*
X128428000Y-71371750D01*
X128428000Y-71884250D01*
X128426947Y-71905691D01*
X128423797Y-71926926D01*
X128418581Y-71947750D01*
X128411349Y-71967962D01*
X128402170Y-71987368D01*
X128391134Y-72005781D01*
X128378346Y-72023024D01*
X128363930Y-72038930D01*
X128348024Y-72053346D01*
X128330781Y-72066134D01*
X128312368Y-72077170D01*
X128292962Y-72086349D01*
X128272750Y-72093581D01*
X128251926Y-72098797D01*
X128230691Y-72101947D01*
X128209250Y-72103000D01*
X127771750Y-72103000D01*
X127750309Y-72101947D01*
X127729074Y-72098797D01*
X127708250Y-72093581D01*
X127688038Y-72086349D01*
X127668632Y-72077170D01*
X127650219Y-72066134D01*
X127632976Y-72053346D01*
X127617070Y-72038930D01*
X127602654Y-72023024D01*
X127589866Y-72005781D01*
X127578830Y-71987368D01*
X127569651Y-71967962D01*
X127562419Y-71947750D01*
X127557203Y-71926926D01*
X127554053Y-71905691D01*
X127553000Y-71884250D01*
X127553000Y-71371750D01*
X127554053Y-71350309D01*
X127557203Y-71329074D01*
X127562419Y-71308250D01*
X127569651Y-71288038D01*
X127578830Y-71268632D01*
X127589866Y-71250219D01*
X127602654Y-71232976D01*
X127617070Y-71217070D01*
X127632976Y-71202654D01*
X127650219Y-71189866D01*
X127668632Y-71178830D01*
X127688038Y-71169651D01*
X127708250Y-71162419D01*
X127729074Y-71157203D01*
X127750309Y-71154053D01*
X127771750Y-71153000D01*
X128209250Y-71153000D01*
X128230691Y-71154053D01*
X128230691Y-71154053D01*
G37*
D11*
X127990500Y-71628000D03*
D10*
G36*
X129805691Y-71154053D02*
G01*
X129826926Y-71157203D01*
X129847750Y-71162419D01*
X129867962Y-71169651D01*
X129887368Y-71178830D01*
X129905781Y-71189866D01*
X129923024Y-71202654D01*
X129938930Y-71217070D01*
X129953346Y-71232976D01*
X129966134Y-71250219D01*
X129977170Y-71268632D01*
X129986349Y-71288038D01*
X129993581Y-71308250D01*
X129998797Y-71329074D01*
X130001947Y-71350309D01*
X130003000Y-71371750D01*
X130003000Y-71884250D01*
X130001947Y-71905691D01*
X129998797Y-71926926D01*
X129993581Y-71947750D01*
X129986349Y-71967962D01*
X129977170Y-71987368D01*
X129966134Y-72005781D01*
X129953346Y-72023024D01*
X129938930Y-72038930D01*
X129923024Y-72053346D01*
X129905781Y-72066134D01*
X129887368Y-72077170D01*
X129867962Y-72086349D01*
X129847750Y-72093581D01*
X129826926Y-72098797D01*
X129805691Y-72101947D01*
X129784250Y-72103000D01*
X129346750Y-72103000D01*
X129325309Y-72101947D01*
X129304074Y-72098797D01*
X129283250Y-72093581D01*
X129263038Y-72086349D01*
X129243632Y-72077170D01*
X129225219Y-72066134D01*
X129207976Y-72053346D01*
X129192070Y-72038930D01*
X129177654Y-72023024D01*
X129164866Y-72005781D01*
X129153830Y-71987368D01*
X129144651Y-71967962D01*
X129137419Y-71947750D01*
X129132203Y-71926926D01*
X129129053Y-71905691D01*
X129128000Y-71884250D01*
X129128000Y-71371750D01*
X129129053Y-71350309D01*
X129132203Y-71329074D01*
X129137419Y-71308250D01*
X129144651Y-71288038D01*
X129153830Y-71268632D01*
X129164866Y-71250219D01*
X129177654Y-71232976D01*
X129192070Y-71217070D01*
X129207976Y-71202654D01*
X129225219Y-71189866D01*
X129243632Y-71178830D01*
X129263038Y-71169651D01*
X129283250Y-71162419D01*
X129304074Y-71157203D01*
X129325309Y-71154053D01*
X129346750Y-71153000D01*
X129784250Y-71153000D01*
X129805691Y-71154053D01*
X129805691Y-71154053D01*
G37*
D11*
X129565500Y-71628000D03*
D10*
G36*
X126249691Y-68868053D02*
G01*
X126270926Y-68871203D01*
X126291750Y-68876419D01*
X126311962Y-68883651D01*
X126331368Y-68892830D01*
X126349781Y-68903866D01*
X126367024Y-68916654D01*
X126382930Y-68931070D01*
X126397346Y-68946976D01*
X126410134Y-68964219D01*
X126421170Y-68982632D01*
X126430349Y-69002038D01*
X126437581Y-69022250D01*
X126442797Y-69043074D01*
X126445947Y-69064309D01*
X126447000Y-69085750D01*
X126447000Y-69598250D01*
X126445947Y-69619691D01*
X126442797Y-69640926D01*
X126437581Y-69661750D01*
X126430349Y-69681962D01*
X126421170Y-69701368D01*
X126410134Y-69719781D01*
X126397346Y-69737024D01*
X126382930Y-69752930D01*
X126367024Y-69767346D01*
X126349781Y-69780134D01*
X126331368Y-69791170D01*
X126311962Y-69800349D01*
X126291750Y-69807581D01*
X126270926Y-69812797D01*
X126249691Y-69815947D01*
X126228250Y-69817000D01*
X125790750Y-69817000D01*
X125769309Y-69815947D01*
X125748074Y-69812797D01*
X125727250Y-69807581D01*
X125707038Y-69800349D01*
X125687632Y-69791170D01*
X125669219Y-69780134D01*
X125651976Y-69767346D01*
X125636070Y-69752930D01*
X125621654Y-69737024D01*
X125608866Y-69719781D01*
X125597830Y-69701368D01*
X125588651Y-69681962D01*
X125581419Y-69661750D01*
X125576203Y-69640926D01*
X125573053Y-69619691D01*
X125572000Y-69598250D01*
X125572000Y-69085750D01*
X125573053Y-69064309D01*
X125576203Y-69043074D01*
X125581419Y-69022250D01*
X125588651Y-69002038D01*
X125597830Y-68982632D01*
X125608866Y-68964219D01*
X125621654Y-68946976D01*
X125636070Y-68931070D01*
X125651976Y-68916654D01*
X125669219Y-68903866D01*
X125687632Y-68892830D01*
X125707038Y-68883651D01*
X125727250Y-68876419D01*
X125748074Y-68871203D01*
X125769309Y-68868053D01*
X125790750Y-68867000D01*
X126228250Y-68867000D01*
X126249691Y-68868053D01*
X126249691Y-68868053D01*
G37*
D11*
X126009500Y-69342000D03*
D10*
G36*
X124674691Y-68868053D02*
G01*
X124695926Y-68871203D01*
X124716750Y-68876419D01*
X124736962Y-68883651D01*
X124756368Y-68892830D01*
X124774781Y-68903866D01*
X124792024Y-68916654D01*
X124807930Y-68931070D01*
X124822346Y-68946976D01*
X124835134Y-68964219D01*
X124846170Y-68982632D01*
X124855349Y-69002038D01*
X124862581Y-69022250D01*
X124867797Y-69043074D01*
X124870947Y-69064309D01*
X124872000Y-69085750D01*
X124872000Y-69598250D01*
X124870947Y-69619691D01*
X124867797Y-69640926D01*
X124862581Y-69661750D01*
X124855349Y-69681962D01*
X124846170Y-69701368D01*
X124835134Y-69719781D01*
X124822346Y-69737024D01*
X124807930Y-69752930D01*
X124792024Y-69767346D01*
X124774781Y-69780134D01*
X124756368Y-69791170D01*
X124736962Y-69800349D01*
X124716750Y-69807581D01*
X124695926Y-69812797D01*
X124674691Y-69815947D01*
X124653250Y-69817000D01*
X124215750Y-69817000D01*
X124194309Y-69815947D01*
X124173074Y-69812797D01*
X124152250Y-69807581D01*
X124132038Y-69800349D01*
X124112632Y-69791170D01*
X124094219Y-69780134D01*
X124076976Y-69767346D01*
X124061070Y-69752930D01*
X124046654Y-69737024D01*
X124033866Y-69719781D01*
X124022830Y-69701368D01*
X124013651Y-69681962D01*
X124006419Y-69661750D01*
X124001203Y-69640926D01*
X123998053Y-69619691D01*
X123997000Y-69598250D01*
X123997000Y-69085750D01*
X123998053Y-69064309D01*
X124001203Y-69043074D01*
X124006419Y-69022250D01*
X124013651Y-69002038D01*
X124022830Y-68982632D01*
X124033866Y-68964219D01*
X124046654Y-68946976D01*
X124061070Y-68931070D01*
X124076976Y-68916654D01*
X124094219Y-68903866D01*
X124112632Y-68892830D01*
X124132038Y-68883651D01*
X124152250Y-68876419D01*
X124173074Y-68871203D01*
X124194309Y-68868053D01*
X124215750Y-68867000D01*
X124653250Y-68867000D01*
X124674691Y-68868053D01*
X124674691Y-68868053D01*
G37*
D11*
X124434500Y-69342000D03*
D12*
X135652000Y-74194000D03*
X136152000Y-74194000D03*
X136652000Y-74194000D03*
X137152000Y-74194000D03*
X137652000Y-74194000D03*
X137652000Y-71094000D03*
X137152000Y-71094000D03*
X136652000Y-71094000D03*
X136152000Y-71094000D03*
X135652000Y-71094000D03*
D13*
X136032000Y-72256500D03*
X136032000Y-73031500D03*
X137272000Y-73031500D03*
X137272000Y-72256500D03*
M02*
