G04 #@! TF.GenerationSoftware,KiCad,Pcbnew,(5.1.0-0)*
G04 #@! TF.CreationDate,2019-07-20T15:32:48+01:00*
G04 #@! TF.ProjectId,Li-ionCharger,4c692d69-6f6e-4436-9861-726765722e6b,rev?*
G04 #@! TF.SameCoordinates,Original*
G04 #@! TF.FileFunction,Legend,Bot*
G04 #@! TF.FilePolarity,Positive*
%FSLAX46Y46*%
G04 Gerber Fmt 4.6, Leading zero omitted, Abs format (unit mm)*
G04 Created by KiCad (PCBNEW (5.1.0-0)) date 2019-07-20 15:32:48*
%MOMM*%
%LPD*%
G04 APERTURE LIST*
%ADD10C,0.150000*%
%ADD11C,0.120000*%
G04 APERTURE END LIST*
D10*
X132675142Y-75366571D02*
X132532285Y-75414190D01*
X132484666Y-75461809D01*
X132437047Y-75557047D01*
X132437047Y-75699904D01*
X132484666Y-75795142D01*
X132532285Y-75842761D01*
X132627523Y-75890380D01*
X133008476Y-75890380D01*
X133008476Y-74890380D01*
X132675142Y-74890380D01*
X132579904Y-74938000D01*
X132532285Y-74985619D01*
X132484666Y-75080857D01*
X132484666Y-75176095D01*
X132532285Y-75271333D01*
X132579904Y-75318952D01*
X132675142Y-75366571D01*
X133008476Y-75366571D01*
X132056095Y-75604666D02*
X131579904Y-75604666D01*
X132151333Y-75890380D02*
X131818000Y-74890380D01*
X131484666Y-75890380D01*
X131294190Y-74890380D02*
X130722761Y-74890380D01*
X131008476Y-75890380D02*
X131008476Y-74890380D01*
X130389428Y-75509428D02*
X129627523Y-75509428D01*
X130008476Y-75890380D02*
X130008476Y-75128476D01*
X123047047Y-74874380D02*
X123618476Y-74874380D01*
X123332761Y-74874380D02*
X123332761Y-73874380D01*
X123428000Y-74017238D01*
X123523238Y-74112476D01*
X123618476Y-74160095D01*
X122666095Y-73969619D02*
X122618476Y-73922000D01*
X122523238Y-73874380D01*
X122285142Y-73874380D01*
X122189904Y-73922000D01*
X122142285Y-73969619D01*
X122094666Y-74064857D01*
X122094666Y-74160095D01*
X122142285Y-74302952D01*
X122713714Y-74874380D01*
X122094666Y-74874380D01*
X121808952Y-73874380D02*
X121475619Y-74874380D01*
X121142285Y-73874380D01*
X123023142Y-69270571D02*
X122880285Y-69318190D01*
X122832666Y-69365809D01*
X122785047Y-69461047D01*
X122785047Y-69603904D01*
X122832666Y-69699142D01*
X122880285Y-69746761D01*
X122975523Y-69794380D01*
X123356476Y-69794380D01*
X123356476Y-68794380D01*
X123023142Y-68794380D01*
X122927904Y-68842000D01*
X122880285Y-68889619D01*
X122832666Y-68984857D01*
X122832666Y-69080095D01*
X122880285Y-69175333D01*
X122927904Y-69222952D01*
X123023142Y-69270571D01*
X123356476Y-69270571D01*
X122404095Y-69508666D02*
X121927904Y-69508666D01*
X122499333Y-69794380D02*
X122166000Y-68794380D01*
X121832666Y-69794380D01*
X121642190Y-68794380D02*
X121070761Y-68794380D01*
X121356476Y-69794380D02*
X121356476Y-68794380D01*
X120737428Y-69413428D02*
X119975523Y-69413428D01*
X118983047Y-77414380D02*
X119554476Y-77414380D01*
X119268761Y-77414380D02*
X119268761Y-76414380D01*
X119364000Y-76557238D01*
X119459238Y-76652476D01*
X119554476Y-76700095D01*
X118602095Y-76509619D02*
X118554476Y-76462000D01*
X118459238Y-76414380D01*
X118221142Y-76414380D01*
X118125904Y-76462000D01*
X118078285Y-76509619D01*
X118030666Y-76604857D01*
X118030666Y-76700095D01*
X118078285Y-76842952D01*
X118649714Y-77414380D01*
X118030666Y-77414380D01*
X117744952Y-76414380D02*
X117411619Y-77414380D01*
X117078285Y-76414380D01*
X117983047Y-69413428D02*
X118744952Y-69413428D01*
X118364000Y-69794380D02*
X118364000Y-69032476D01*
X116403428Y-73532952D02*
X116403428Y-72771047D01*
D11*
X129578000Y-73887000D02*
X127293000Y-73887000D01*
X127293000Y-73887000D02*
X127293000Y-72417000D01*
X127293000Y-72417000D02*
X129578000Y-72417000D01*
X120664000Y-75972000D02*
X117064000Y-75972000D01*
X117064000Y-75972000D02*
X117064000Y-70372000D01*
X117064000Y-70372000D02*
X120664000Y-70372000D01*
X120664000Y-70372000D02*
X120664000Y-75972000D01*
X118664000Y-76282000D02*
X116754000Y-76282000D01*
X116754000Y-76282000D02*
X116754000Y-74372000D01*
X118364000Y-75972000D02*
X118364000Y-75672000D01*
X118364000Y-75672000D02*
X117364000Y-75672000D01*
X117364000Y-75672000D02*
X117364000Y-70672000D01*
X117364000Y-70672000D02*
X118364000Y-70672000D01*
X118364000Y-70672000D02*
X118364000Y-70372000D01*
X119114000Y-75972000D02*
X119114000Y-75672000D01*
X119114000Y-75672000D02*
X120214000Y-75672000D01*
X120214000Y-75672000D02*
X120214000Y-75372000D01*
X120214000Y-75372000D02*
X120664000Y-75372000D01*
X119114000Y-70372000D02*
X119114000Y-70672000D01*
X119114000Y-70672000D02*
X120214000Y-70672000D01*
X120214000Y-70672000D02*
X120214000Y-70972000D01*
X120214000Y-70972000D02*
X120664000Y-70972000D01*
X120214000Y-75372000D02*
X120214000Y-74172000D01*
X120214000Y-74172000D02*
X120514000Y-74172000D01*
X120514000Y-74172000D02*
X120514000Y-73422000D01*
X120514000Y-73422000D02*
X120214000Y-73422000D01*
X120214000Y-73422000D02*
X120214000Y-72922000D01*
X120214000Y-72922000D02*
X120514000Y-72922000D01*
X120514000Y-72922000D02*
X120514000Y-72172000D01*
X120514000Y-72172000D02*
X120214000Y-72172000D01*
X120214000Y-72172000D02*
X120214000Y-70972000D01*
D10*
X132056095Y-73604380D02*
X132056095Y-72604380D01*
X131818000Y-72604380D01*
X131675142Y-72652000D01*
X131579904Y-72747238D01*
X131532285Y-72842476D01*
X131484666Y-73032952D01*
X131484666Y-73175809D01*
X131532285Y-73366285D01*
X131579904Y-73461523D01*
X131675142Y-73556761D01*
X131818000Y-73604380D01*
X132056095Y-73604380D01*
X130532285Y-73604380D02*
X131103714Y-73604380D01*
X130818000Y-73604380D02*
X130818000Y-72604380D01*
X130913238Y-72747238D01*
X131008476Y-72842476D01*
X131103714Y-72890095D01*
X119340380Y-72818666D02*
X120054666Y-72818666D01*
X120197523Y-72771047D01*
X120292761Y-72675809D01*
X120340380Y-72532952D01*
X120340380Y-72437714D01*
X120340380Y-73818666D02*
X120340380Y-73247238D01*
X120340380Y-73532952D02*
X119340380Y-73532952D01*
X119483238Y-73437714D01*
X119578476Y-73342476D01*
X119626095Y-73247238D01*
M02*
