G04 #@! TF.GenerationSoftware,KiCad,Pcbnew,(5.1.0-0)*
G04 #@! TF.CreationDate,2019-07-20T15:32:48+01:00*
G04 #@! TF.ProjectId,Li-ionCharger,4c692d69-6f6e-4436-9861-726765722e6b,rev?*
G04 #@! TF.SameCoordinates,Original*
G04 #@! TF.FileFunction,Soldermask,Top*
G04 #@! TF.FilePolarity,Negative*
%FSLAX46Y46*%
G04 Gerber Fmt 4.6, Leading zero omitted, Abs format (unit mm)*
G04 Created by KiCad (PCBNEW (5.1.0-0)) date 2019-07-20 15:32:48*
%MOMM*%
%LPD*%
G04 APERTURE LIST*
%ADD10C,0.100000*%
G04 APERTURE END LIST*
D10*
G36*
X138684000Y-79502000D02*
G01*
X134620000Y-79502000D01*
X134620000Y-76962000D01*
X138684000Y-76962000D01*
X138684000Y-79502000D01*
G37*
X138684000Y-79502000D02*
X134620000Y-79502000D01*
X134620000Y-76962000D01*
X138684000Y-76962000D01*
X138684000Y-79502000D01*
G36*
X138684000Y-68326000D02*
G01*
X134620000Y-68326000D01*
X134620000Y-65786000D01*
X138684000Y-65786000D01*
X138684000Y-68326000D01*
G37*
X138684000Y-68326000D02*
X134620000Y-68326000D01*
X134620000Y-65786000D01*
X138684000Y-65786000D01*
X138684000Y-68326000D01*
G36*
X138684000Y-73406000D02*
G01*
X137922000Y-73406000D01*
X137922000Y-71882000D01*
X138684000Y-71882000D01*
X138684000Y-73406000D01*
G37*
X138684000Y-73406000D02*
X137922000Y-73406000D01*
X137922000Y-71882000D01*
X138684000Y-71882000D01*
X138684000Y-73406000D01*
G36*
X142240000Y-79502000D02*
G01*
X138684000Y-79502000D01*
X138684000Y-65786000D01*
X142240000Y-65786000D01*
X142240000Y-79502000D01*
G37*
X142240000Y-79502000D02*
X138684000Y-79502000D01*
X138684000Y-65786000D01*
X142240000Y-65786000D01*
X142240000Y-79502000D01*
G36*
X134620000Y-79502000D02*
G01*
X131064000Y-79502000D01*
X131064000Y-65786000D01*
X134620000Y-65786000D01*
X134620000Y-79502000D01*
G37*
X134620000Y-79502000D02*
X131064000Y-79502000D01*
X131064000Y-65786000D01*
X134620000Y-65786000D01*
X134620000Y-79502000D01*
G36*
X135382000Y-73406000D02*
G01*
X134620000Y-73406000D01*
X134620000Y-71882000D01*
X135382000Y-71882000D01*
X135382000Y-73406000D01*
G37*
X135382000Y-73406000D02*
X134620000Y-73406000D01*
X134620000Y-71882000D01*
X135382000Y-71882000D01*
X135382000Y-73406000D01*
G36*
X122842721Y-75416174D02*
G01*
X122942995Y-75457709D01*
X122942996Y-75457710D01*
X123033242Y-75518010D01*
X123109990Y-75594758D01*
X123132796Y-75628890D01*
X123170291Y-75685005D01*
X123211826Y-75785279D01*
X123233000Y-75891730D01*
X123233000Y-76000270D01*
X123211826Y-76106721D01*
X123170291Y-76206995D01*
X123170290Y-76206996D01*
X123109990Y-76297242D01*
X123033242Y-76373990D01*
X122987812Y-76404345D01*
X122942995Y-76434291D01*
X122842721Y-76475826D01*
X122736270Y-76497000D01*
X122627730Y-76497000D01*
X122521279Y-76475826D01*
X122421005Y-76434291D01*
X122376188Y-76404345D01*
X122330758Y-76373990D01*
X122254010Y-76297242D01*
X122193710Y-76206996D01*
X122193709Y-76206995D01*
X122152174Y-76106721D01*
X122131000Y-76000270D01*
X122131000Y-75891730D01*
X122152174Y-75785279D01*
X122193709Y-75685005D01*
X122231204Y-75628890D01*
X122254010Y-75594758D01*
X122330758Y-75518010D01*
X122421004Y-75457710D01*
X122421005Y-75457709D01*
X122521279Y-75416174D01*
X122627730Y-75395000D01*
X122736270Y-75395000D01*
X122842721Y-75416174D01*
X122842721Y-75416174D01*
G37*
G36*
X128938721Y-74654174D02*
G01*
X129038995Y-74695709D01*
X129062869Y-74711661D01*
X129129242Y-74756010D01*
X129205990Y-74832758D01*
X129229210Y-74867509D01*
X129266291Y-74923005D01*
X129307826Y-75023279D01*
X129329000Y-75129730D01*
X129329000Y-75238270D01*
X129307826Y-75344721D01*
X129266291Y-75444995D01*
X129266290Y-75444996D01*
X129205990Y-75535242D01*
X129129242Y-75611990D01*
X129103949Y-75628890D01*
X129038995Y-75672291D01*
X128938721Y-75713826D01*
X128832270Y-75735000D01*
X128723730Y-75735000D01*
X128617279Y-75713826D01*
X128517005Y-75672291D01*
X128452051Y-75628890D01*
X128426758Y-75611990D01*
X128350010Y-75535242D01*
X128289710Y-75444996D01*
X128289709Y-75444995D01*
X128248174Y-75344721D01*
X128227000Y-75238270D01*
X128227000Y-75129730D01*
X128248174Y-75023279D01*
X128289709Y-74923005D01*
X128326790Y-74867509D01*
X128350010Y-74832758D01*
X128426758Y-74756010D01*
X128493131Y-74711661D01*
X128517005Y-74695709D01*
X128617279Y-74654174D01*
X128723730Y-74633000D01*
X128832270Y-74633000D01*
X128938721Y-74654174D01*
X128938721Y-74654174D01*
G37*
G36*
X124776591Y-74662085D02*
G01*
X124810569Y-74672393D01*
X124841890Y-74689134D01*
X124869339Y-74711661D01*
X124891866Y-74739110D01*
X124908607Y-74770431D01*
X124918915Y-74804409D01*
X124923000Y-74845890D01*
X124923000Y-75522110D01*
X124918915Y-75563591D01*
X124908607Y-75597569D01*
X124891866Y-75628890D01*
X124869339Y-75656339D01*
X124841890Y-75678866D01*
X124810569Y-75695607D01*
X124776591Y-75705915D01*
X124735110Y-75710000D01*
X124133890Y-75710000D01*
X124092409Y-75705915D01*
X124058431Y-75695607D01*
X124027110Y-75678866D01*
X123999661Y-75656339D01*
X123977134Y-75628890D01*
X123960393Y-75597569D01*
X123950085Y-75563591D01*
X123946000Y-75522110D01*
X123946000Y-74845890D01*
X123950085Y-74804409D01*
X123960393Y-74770431D01*
X123977134Y-74739110D01*
X123999661Y-74711661D01*
X124027110Y-74689134D01*
X124058431Y-74672393D01*
X124092409Y-74662085D01*
X124133890Y-74658000D01*
X124735110Y-74658000D01*
X124776591Y-74662085D01*
X124776591Y-74662085D01*
G37*
G36*
X126351591Y-74662085D02*
G01*
X126385569Y-74672393D01*
X126416890Y-74689134D01*
X126444339Y-74711661D01*
X126466866Y-74739110D01*
X126483607Y-74770431D01*
X126493915Y-74804409D01*
X126498000Y-74845890D01*
X126498000Y-75522110D01*
X126493915Y-75563591D01*
X126483607Y-75597569D01*
X126466866Y-75628890D01*
X126444339Y-75656339D01*
X126416890Y-75678866D01*
X126385569Y-75695607D01*
X126351591Y-75705915D01*
X126310110Y-75710000D01*
X125708890Y-75710000D01*
X125667409Y-75705915D01*
X125633431Y-75695607D01*
X125602110Y-75678866D01*
X125574661Y-75656339D01*
X125552134Y-75628890D01*
X125535393Y-75597569D01*
X125525085Y-75563591D01*
X125521000Y-75522110D01*
X125521000Y-74845890D01*
X125525085Y-74804409D01*
X125535393Y-74770431D01*
X125552134Y-74739110D01*
X125574661Y-74711661D01*
X125602110Y-74689134D01*
X125633431Y-74672393D01*
X125667409Y-74662085D01*
X125708890Y-74658000D01*
X126310110Y-74658000D01*
X126351591Y-74662085D01*
X126351591Y-74662085D01*
G37*
G36*
X114918442Y-73527518D02*
G01*
X114984627Y-73534037D01*
X115154466Y-73585557D01*
X115154468Y-73585558D01*
X115163867Y-73590582D01*
X115310991Y-73669222D01*
X115331145Y-73685762D01*
X115448186Y-73781814D01*
X115524907Y-73875300D01*
X115560778Y-73919009D01*
X115644443Y-74075534D01*
X115695963Y-74245373D01*
X115713359Y-74422000D01*
X115695963Y-74598627D01*
X115644443Y-74768466D01*
X115560778Y-74924991D01*
X115531448Y-74960729D01*
X115448186Y-75062186D01*
X115365882Y-75129730D01*
X115310991Y-75174778D01*
X115154466Y-75258443D01*
X114984627Y-75309963D01*
X114918443Y-75316481D01*
X114852260Y-75323000D01*
X114763740Y-75323000D01*
X114697557Y-75316481D01*
X114631373Y-75309963D01*
X114461534Y-75258443D01*
X114305009Y-75174778D01*
X114250118Y-75129730D01*
X114167814Y-75062186D01*
X114084552Y-74960729D01*
X114055222Y-74924991D01*
X113971557Y-74768466D01*
X113920037Y-74598627D01*
X113902641Y-74422000D01*
X113920037Y-74245373D01*
X113971557Y-74075534D01*
X114055222Y-73919009D01*
X114091093Y-73875300D01*
X114167814Y-73781814D01*
X114284855Y-73685762D01*
X114305009Y-73669222D01*
X114452133Y-73590582D01*
X114461532Y-73585558D01*
X114461534Y-73585557D01*
X114631373Y-73534037D01*
X114697558Y-73527518D01*
X114763740Y-73521000D01*
X114852260Y-73521000D01*
X114918442Y-73527518D01*
X114918442Y-73527518D01*
G37*
G36*
X118712213Y-71428249D02*
G01*
X118806652Y-71456897D01*
X118893687Y-71503418D01*
X118969975Y-71566025D01*
X119032582Y-71642313D01*
X119079103Y-71729348D01*
X119107751Y-71823787D01*
X119117424Y-71922000D01*
X119107751Y-72020213D01*
X119079103Y-72114652D01*
X119032582Y-72201687D01*
X118969975Y-72277975D01*
X118893687Y-72340582D01*
X118806652Y-72387103D01*
X118712213Y-72415751D01*
X118642623Y-72422605D01*
X118618600Y-72427384D01*
X118595961Y-72436761D01*
X118575587Y-72450375D01*
X118558260Y-72467702D01*
X118544646Y-72488076D01*
X118535269Y-72510715D01*
X118530489Y-72534748D01*
X118530489Y-72559253D01*
X118535270Y-72583286D01*
X118544647Y-72605925D01*
X118558261Y-72626299D01*
X118575588Y-72643626D01*
X118595962Y-72657240D01*
X118618601Y-72666617D01*
X118642623Y-72671395D01*
X118712213Y-72678249D01*
X118806652Y-72706897D01*
X118893687Y-72753418D01*
X118969975Y-72816025D01*
X119032582Y-72892313D01*
X119079103Y-72979348D01*
X119107751Y-73073787D01*
X119117424Y-73172000D01*
X119107751Y-73270213D01*
X119079103Y-73364652D01*
X119032582Y-73451687D01*
X118969975Y-73527975D01*
X118893687Y-73590582D01*
X118806652Y-73637103D01*
X118712213Y-73665751D01*
X118652766Y-73671606D01*
X118628742Y-73676385D01*
X118606103Y-73685762D01*
X118585729Y-73699376D01*
X118568402Y-73716703D01*
X118554789Y-73737077D01*
X118545411Y-73759716D01*
X118540631Y-73783749D01*
X118540631Y-73808253D01*
X118545412Y-73832287D01*
X118554789Y-73854926D01*
X118568403Y-73875300D01*
X118585730Y-73892627D01*
X118606104Y-73906240D01*
X118628743Y-73915618D01*
X118665028Y-73921000D01*
X118920860Y-73921000D01*
X118963560Y-73925205D01*
X118998713Y-73935869D01*
X119031110Y-73953186D01*
X119059509Y-73976491D01*
X119082814Y-74004890D01*
X119100131Y-74037287D01*
X119110795Y-74072440D01*
X119115000Y-74115140D01*
X119115000Y-74728860D01*
X119110795Y-74771560D01*
X119100131Y-74806713D01*
X119082814Y-74839110D01*
X119059509Y-74867509D01*
X119031110Y-74890814D01*
X118998713Y-74908131D01*
X118963560Y-74918795D01*
X118920860Y-74923000D01*
X117807140Y-74923000D01*
X117764440Y-74918795D01*
X117729287Y-74908131D01*
X117696890Y-74890814D01*
X117668491Y-74867509D01*
X117645186Y-74839110D01*
X117627869Y-74806713D01*
X117617205Y-74771560D01*
X117613000Y-74728860D01*
X117613000Y-74115140D01*
X117617205Y-74072440D01*
X117627869Y-74037287D01*
X117645186Y-74004890D01*
X117668491Y-73976491D01*
X117696890Y-73953186D01*
X117729287Y-73935869D01*
X117764440Y-73925205D01*
X117807140Y-73921000D01*
X118062972Y-73921000D01*
X118087358Y-73918598D01*
X118110807Y-73911485D01*
X118132418Y-73899934D01*
X118151360Y-73884389D01*
X118166905Y-73865447D01*
X118178456Y-73843836D01*
X118185569Y-73820387D01*
X118187971Y-73796001D01*
X118185569Y-73771615D01*
X118178456Y-73748166D01*
X118166905Y-73726555D01*
X118151360Y-73707613D01*
X118132418Y-73692068D01*
X118110807Y-73680517D01*
X118075230Y-73671606D01*
X118015787Y-73665751D01*
X117921348Y-73637103D01*
X117834313Y-73590582D01*
X117758025Y-73527975D01*
X117695418Y-73451687D01*
X117648897Y-73364652D01*
X117620249Y-73270213D01*
X117610576Y-73172000D01*
X117620249Y-73073787D01*
X117648897Y-72979348D01*
X117695418Y-72892313D01*
X117758025Y-72816025D01*
X117834313Y-72753418D01*
X117921348Y-72706897D01*
X118015787Y-72678249D01*
X118085377Y-72671395D01*
X118109400Y-72666616D01*
X118132039Y-72657239D01*
X118152413Y-72643625D01*
X118169740Y-72626298D01*
X118183354Y-72605924D01*
X118192731Y-72583285D01*
X118197511Y-72559252D01*
X118197511Y-72534747D01*
X118192730Y-72510714D01*
X118183353Y-72488075D01*
X118169739Y-72467701D01*
X118152412Y-72450374D01*
X118132038Y-72436760D01*
X118109399Y-72427383D01*
X118085377Y-72422605D01*
X118015787Y-72415751D01*
X117921348Y-72387103D01*
X117834313Y-72340582D01*
X117758025Y-72277975D01*
X117695418Y-72201687D01*
X117648897Y-72114652D01*
X117620249Y-72020213D01*
X117610576Y-71922000D01*
X117620249Y-71823787D01*
X117648897Y-71729348D01*
X117695418Y-71642313D01*
X117758025Y-71566025D01*
X117834313Y-71503418D01*
X117921348Y-71456897D01*
X118015787Y-71428249D01*
X118089388Y-71421000D01*
X118638612Y-71421000D01*
X118712213Y-71428249D01*
X118712213Y-71428249D01*
G37*
G36*
X137853000Y-74570000D02*
G01*
X135451000Y-74570000D01*
X135451000Y-73818000D01*
X137853000Y-73818000D01*
X137853000Y-74570000D01*
X137853000Y-74570000D01*
G37*
G36*
X126351591Y-73138085D02*
G01*
X126385569Y-73148393D01*
X126416890Y-73165134D01*
X126444339Y-73187661D01*
X126466866Y-73215110D01*
X126483607Y-73246431D01*
X126493915Y-73280409D01*
X126498000Y-73321890D01*
X126498000Y-73998110D01*
X126493915Y-74039591D01*
X126483607Y-74073569D01*
X126466866Y-74104890D01*
X126444339Y-74132339D01*
X126416890Y-74154866D01*
X126385569Y-74171607D01*
X126351591Y-74181915D01*
X126310110Y-74186000D01*
X125708890Y-74186000D01*
X125667409Y-74181915D01*
X125633431Y-74171607D01*
X125602110Y-74154866D01*
X125574661Y-74132339D01*
X125552134Y-74104890D01*
X125535393Y-74073569D01*
X125525085Y-74039591D01*
X125521000Y-73998110D01*
X125521000Y-73321890D01*
X125525085Y-73280409D01*
X125535393Y-73246431D01*
X125552134Y-73215110D01*
X125574661Y-73187661D01*
X125602110Y-73165134D01*
X125633431Y-73148393D01*
X125667409Y-73138085D01*
X125708890Y-73134000D01*
X126310110Y-73134000D01*
X126351591Y-73138085D01*
X126351591Y-73138085D01*
G37*
G36*
X124776591Y-73138085D02*
G01*
X124810569Y-73148393D01*
X124841890Y-73165134D01*
X124869339Y-73187661D01*
X124891866Y-73215110D01*
X124908607Y-73246431D01*
X124918915Y-73280409D01*
X124923000Y-73321890D01*
X124923000Y-73998110D01*
X124918915Y-74039591D01*
X124908607Y-74073569D01*
X124891866Y-74104890D01*
X124869339Y-74132339D01*
X124841890Y-74154866D01*
X124810569Y-74171607D01*
X124776591Y-74181915D01*
X124735110Y-74186000D01*
X124133890Y-74186000D01*
X124092409Y-74181915D01*
X124058431Y-74171607D01*
X124027110Y-74154866D01*
X123999661Y-74132339D01*
X123977134Y-74104890D01*
X123960393Y-74073569D01*
X123950085Y-74039591D01*
X123946000Y-73998110D01*
X123946000Y-73321890D01*
X123950085Y-73280409D01*
X123960393Y-73246431D01*
X123977134Y-73215110D01*
X123999661Y-73187661D01*
X124027110Y-73165134D01*
X124058431Y-73148393D01*
X124092409Y-73138085D01*
X124133890Y-73134000D01*
X124735110Y-73134000D01*
X124776591Y-73138085D01*
X124776591Y-73138085D01*
G37*
G36*
X137943000Y-73470000D02*
G01*
X135361000Y-73470000D01*
X135361000Y-71818000D01*
X137943000Y-71818000D01*
X137943000Y-73470000D01*
X137943000Y-73470000D01*
G37*
G36*
X115709000Y-72783000D02*
G01*
X113907000Y-72783000D01*
X113907000Y-70981000D01*
X115709000Y-70981000D01*
X115709000Y-72783000D01*
X115709000Y-72783000D01*
G37*
G36*
X128332591Y-71106085D02*
G01*
X128366569Y-71116393D01*
X128397890Y-71133134D01*
X128425339Y-71155661D01*
X128447866Y-71183110D01*
X128464607Y-71214431D01*
X128474915Y-71248409D01*
X128479000Y-71289890D01*
X128479000Y-71966110D01*
X128474915Y-72007591D01*
X128464607Y-72041569D01*
X128447866Y-72072890D01*
X128425339Y-72100339D01*
X128397890Y-72122866D01*
X128366569Y-72139607D01*
X128332591Y-72149915D01*
X128291110Y-72154000D01*
X127689890Y-72154000D01*
X127648409Y-72149915D01*
X127614431Y-72139607D01*
X127583110Y-72122866D01*
X127555661Y-72100339D01*
X127533134Y-72072890D01*
X127516393Y-72041569D01*
X127506085Y-72007591D01*
X127502000Y-71966110D01*
X127502000Y-71289890D01*
X127506085Y-71248409D01*
X127516393Y-71214431D01*
X127533134Y-71183110D01*
X127555661Y-71155661D01*
X127583110Y-71133134D01*
X127614431Y-71116393D01*
X127648409Y-71106085D01*
X127689890Y-71102000D01*
X128291110Y-71102000D01*
X128332591Y-71106085D01*
X128332591Y-71106085D01*
G37*
G36*
X129907591Y-71106085D02*
G01*
X129941569Y-71116393D01*
X129972890Y-71133134D01*
X130000339Y-71155661D01*
X130022866Y-71183110D01*
X130039607Y-71214431D01*
X130049915Y-71248409D01*
X130054000Y-71289890D01*
X130054000Y-71966110D01*
X130049915Y-72007591D01*
X130039607Y-72041569D01*
X130022866Y-72072890D01*
X130000339Y-72100339D01*
X129972890Y-72122866D01*
X129941569Y-72139607D01*
X129907591Y-72149915D01*
X129866110Y-72154000D01*
X129264890Y-72154000D01*
X129223409Y-72149915D01*
X129189431Y-72139607D01*
X129158110Y-72122866D01*
X129130661Y-72100339D01*
X129108134Y-72072890D01*
X129091393Y-72041569D01*
X129081085Y-72007591D01*
X129077000Y-71966110D01*
X129077000Y-71289890D01*
X129081085Y-71248409D01*
X129091393Y-71214431D01*
X129108134Y-71183110D01*
X129130661Y-71155661D01*
X129158110Y-71133134D01*
X129189431Y-71116393D01*
X129223409Y-71106085D01*
X129264890Y-71102000D01*
X129866110Y-71102000D01*
X129907591Y-71106085D01*
X129907591Y-71106085D01*
G37*
G36*
X123350721Y-70590174D02*
G01*
X123450995Y-70631709D01*
X123450996Y-70631710D01*
X123541242Y-70692010D01*
X123617990Y-70768758D01*
X123617991Y-70768760D01*
X123678291Y-70859005D01*
X123719826Y-70959279D01*
X123741000Y-71065730D01*
X123741000Y-71174270D01*
X123719826Y-71280721D01*
X123678291Y-71380995D01*
X123678290Y-71380996D01*
X123617990Y-71471242D01*
X123541242Y-71547990D01*
X123514249Y-71566026D01*
X123450995Y-71608291D01*
X123350721Y-71649826D01*
X123244270Y-71671000D01*
X123135730Y-71671000D01*
X123029279Y-71649826D01*
X122929005Y-71608291D01*
X122865751Y-71566026D01*
X122838758Y-71547990D01*
X122762010Y-71471242D01*
X122701710Y-71380996D01*
X122701709Y-71380995D01*
X122660174Y-71280721D01*
X122639000Y-71174270D01*
X122639000Y-71065730D01*
X122660174Y-70959279D01*
X122701709Y-70859005D01*
X122762009Y-70768760D01*
X122762010Y-70768758D01*
X122838758Y-70692010D01*
X122929004Y-70631710D01*
X122929005Y-70631709D01*
X123029279Y-70590174D01*
X123135730Y-70569000D01*
X123244270Y-70569000D01*
X123350721Y-70590174D01*
X123350721Y-70590174D01*
G37*
G36*
X137853000Y-71470000D02*
G01*
X135451000Y-71470000D01*
X135451000Y-70718000D01*
X137853000Y-70718000D01*
X137853000Y-71470000D01*
X137853000Y-71470000D01*
G37*
G36*
X126351591Y-68820085D02*
G01*
X126385569Y-68830393D01*
X126416890Y-68847134D01*
X126444339Y-68869661D01*
X126466866Y-68897110D01*
X126483607Y-68928431D01*
X126493915Y-68962409D01*
X126498000Y-69003890D01*
X126498000Y-69680110D01*
X126493915Y-69721591D01*
X126483607Y-69755569D01*
X126466866Y-69786890D01*
X126444339Y-69814339D01*
X126416890Y-69836866D01*
X126385569Y-69853607D01*
X126351591Y-69863915D01*
X126310110Y-69868000D01*
X125708890Y-69868000D01*
X125667409Y-69863915D01*
X125633431Y-69853607D01*
X125602110Y-69836866D01*
X125574661Y-69814339D01*
X125552134Y-69786890D01*
X125535393Y-69755569D01*
X125525085Y-69721591D01*
X125521000Y-69680110D01*
X125521000Y-69003890D01*
X125525085Y-68962409D01*
X125535393Y-68928431D01*
X125552134Y-68897110D01*
X125574661Y-68869661D01*
X125602110Y-68847134D01*
X125633431Y-68830393D01*
X125667409Y-68820085D01*
X125708890Y-68816000D01*
X126310110Y-68816000D01*
X126351591Y-68820085D01*
X126351591Y-68820085D01*
G37*
G36*
X124776591Y-68820085D02*
G01*
X124810569Y-68830393D01*
X124841890Y-68847134D01*
X124869339Y-68869661D01*
X124891866Y-68897110D01*
X124908607Y-68928431D01*
X124918915Y-68962409D01*
X124923000Y-69003890D01*
X124923000Y-69680110D01*
X124918915Y-69721591D01*
X124908607Y-69755569D01*
X124891866Y-69786890D01*
X124869339Y-69814339D01*
X124841890Y-69836866D01*
X124810569Y-69853607D01*
X124776591Y-69863915D01*
X124735110Y-69868000D01*
X124133890Y-69868000D01*
X124092409Y-69863915D01*
X124058431Y-69853607D01*
X124027110Y-69836866D01*
X123999661Y-69814339D01*
X123977134Y-69786890D01*
X123960393Y-69755569D01*
X123950085Y-69721591D01*
X123946000Y-69680110D01*
X123946000Y-69003890D01*
X123950085Y-68962409D01*
X123960393Y-68928431D01*
X123977134Y-68897110D01*
X123999661Y-68869661D01*
X124027110Y-68847134D01*
X124058431Y-68830393D01*
X124092409Y-68820085D01*
X124133890Y-68816000D01*
X124735110Y-68816000D01*
X124776591Y-68820085D01*
X124776591Y-68820085D01*
G37*
M02*
