G04 #@! TF.GenerationSoftware,KiCad,Pcbnew,(5.1.0-0)*
G04 #@! TF.CreationDate,2019-07-17T00:11:31+01:00*
G04 #@! TF.ProjectId,Face6,46616365-362e-46b6-9963-61645f706362,rev?*
G04 #@! TF.SameCoordinates,Original*
G04 #@! TF.FileFunction,Soldermask,Bot*
G04 #@! TF.FilePolarity,Negative*
%FSLAX46Y46*%
G04 Gerber Fmt 4.6, Leading zero omitted, Abs format (unit mm)*
G04 Created by KiCad (PCBNEW (5.1.0-0)) date 2019-07-17 00:11:31*
%MOMM*%
%LPD*%
G04 APERTURE LIST*
%ADD10C,0.100000*%
G04 APERTURE END LIST*
D10*
G36*
X173671890Y-136788017D02*
G01*
X173739092Y-136815853D01*
X173790364Y-136837091D01*
X173883023Y-136899004D01*
X173896988Y-136908335D01*
X173987665Y-136999012D01*
X174058910Y-137105638D01*
X174107983Y-137224110D01*
X174133000Y-137349881D01*
X174133000Y-137478119D01*
X174107983Y-137603890D01*
X174060248Y-137719133D01*
X174058909Y-137722364D01*
X173987665Y-137828988D01*
X173896988Y-137919665D01*
X173790364Y-137990909D01*
X173790363Y-137990910D01*
X173790362Y-137990910D01*
X173671890Y-138039983D01*
X173546119Y-138065000D01*
X173417881Y-138065000D01*
X173292110Y-138039983D01*
X173173638Y-137990910D01*
X173173637Y-137990910D01*
X173173636Y-137990909D01*
X173067012Y-137919665D01*
X172976335Y-137828988D01*
X172905091Y-137722364D01*
X172903753Y-137719133D01*
X172856017Y-137603890D01*
X172831000Y-137478119D01*
X172831000Y-137349881D01*
X172856017Y-137224110D01*
X172905090Y-137105638D01*
X172976335Y-136999012D01*
X173067012Y-136908335D01*
X173080977Y-136899004D01*
X173173636Y-136837091D01*
X173224909Y-136815853D01*
X173292110Y-136788017D01*
X173417881Y-136763000D01*
X173546119Y-136763000D01*
X173671890Y-136788017D01*
X173671890Y-136788017D01*
G37*
G36*
X166686890Y-136788017D02*
G01*
X166754092Y-136815853D01*
X166805364Y-136837091D01*
X166898023Y-136899004D01*
X166911988Y-136908335D01*
X167002665Y-136999012D01*
X167076068Y-137108867D01*
X167091613Y-137127809D01*
X167110555Y-137143354D01*
X167132166Y-137154905D01*
X167155615Y-137162018D01*
X167180001Y-137164420D01*
X167204387Y-137162018D01*
X167227836Y-137154905D01*
X167249447Y-137143354D01*
X167268389Y-137127809D01*
X167283934Y-137108867D01*
X167295485Y-137087256D01*
X167302598Y-137063807D01*
X167302677Y-137063000D01*
X170007000Y-137063000D01*
X170007000Y-137765000D01*
X167302677Y-137765000D01*
X167302598Y-137764193D01*
X167295485Y-137740744D01*
X167283934Y-137719133D01*
X167268389Y-137700191D01*
X167249447Y-137684646D01*
X167227836Y-137673095D01*
X167204387Y-137665982D01*
X167180001Y-137663580D01*
X167155615Y-137665982D01*
X167132166Y-137673095D01*
X167110555Y-137684646D01*
X167091613Y-137700191D01*
X167076068Y-137719133D01*
X167002665Y-137828988D01*
X166911988Y-137919665D01*
X166805364Y-137990909D01*
X166805363Y-137990910D01*
X166805362Y-137990910D01*
X166686890Y-138039983D01*
X166561119Y-138065000D01*
X166432881Y-138065000D01*
X166307110Y-138039983D01*
X166188638Y-137990910D01*
X166188637Y-137990910D01*
X166188636Y-137990909D01*
X166082012Y-137919665D01*
X165991335Y-137828988D01*
X165920091Y-137722364D01*
X165918753Y-137719133D01*
X165871017Y-137603890D01*
X165846000Y-137478119D01*
X165846000Y-137349881D01*
X165871017Y-137224110D01*
X165920090Y-137105638D01*
X165991335Y-136999012D01*
X166082012Y-136908335D01*
X166095977Y-136899004D01*
X166188636Y-136837091D01*
X166239909Y-136815853D01*
X166307110Y-136788017D01*
X166432881Y-136763000D01*
X166561119Y-136763000D01*
X166686890Y-136788017D01*
X166686890Y-136788017D01*
G37*
G36*
X162729271Y-135766103D02*
G01*
X162785635Y-135771654D01*
X163002600Y-135837470D01*
X163002602Y-135837471D01*
X163202555Y-135944347D01*
X163377818Y-136088182D01*
X163521653Y-136263445D01*
X163580440Y-136373429D01*
X163628530Y-136463400D01*
X163694346Y-136680365D01*
X163716569Y-136906000D01*
X163694346Y-137131635D01*
X163669279Y-137214270D01*
X163628529Y-137348602D01*
X163521653Y-137548555D01*
X163377818Y-137723818D01*
X163202555Y-137867653D01*
X163002602Y-137974529D01*
X163002600Y-137974530D01*
X162785635Y-138040346D01*
X162729271Y-138045897D01*
X162616545Y-138057000D01*
X162503455Y-138057000D01*
X162390729Y-138045897D01*
X162334365Y-138040346D01*
X162117400Y-137974530D01*
X162117398Y-137974529D01*
X161917445Y-137867653D01*
X161742182Y-137723818D01*
X161598347Y-137548555D01*
X161491471Y-137348602D01*
X161450722Y-137214270D01*
X161425654Y-137131635D01*
X161403431Y-136906000D01*
X161425654Y-136680365D01*
X161491470Y-136463400D01*
X161539560Y-136373429D01*
X161598347Y-136263445D01*
X161742182Y-136088182D01*
X161917445Y-135944347D01*
X162117398Y-135837471D01*
X162117400Y-135837470D01*
X162334365Y-135771654D01*
X162390729Y-135766103D01*
X162503455Y-135755000D01*
X162616545Y-135755000D01*
X162729271Y-135766103D01*
X162729271Y-135766103D01*
G37*
G36*
X159672721Y-136630174D02*
G01*
X159772995Y-136671709D01*
X159785951Y-136680366D01*
X159863242Y-136732010D01*
X159939990Y-136808758D01*
X159958921Y-136837090D01*
X160000291Y-136899005D01*
X160041826Y-136999279D01*
X160063000Y-137105730D01*
X160063000Y-137214270D01*
X160041826Y-137320721D01*
X160000291Y-137420995D01*
X160000290Y-137420996D01*
X159939990Y-137511242D01*
X159863242Y-137587990D01*
X159839446Y-137603890D01*
X159772995Y-137648291D01*
X159672721Y-137689826D01*
X159566270Y-137711000D01*
X159457730Y-137711000D01*
X159351279Y-137689826D01*
X159251005Y-137648291D01*
X159184554Y-137603890D01*
X159160758Y-137587990D01*
X159084010Y-137511242D01*
X159023710Y-137420996D01*
X159023709Y-137420995D01*
X158982174Y-137320721D01*
X158961000Y-137214270D01*
X158961000Y-137105730D01*
X158982174Y-136999279D01*
X159023709Y-136899005D01*
X159065079Y-136837090D01*
X159084010Y-136808758D01*
X159160758Y-136732010D01*
X159238049Y-136680366D01*
X159251005Y-136671709D01*
X159351279Y-136630174D01*
X159457730Y-136609000D01*
X159566270Y-136609000D01*
X159672721Y-136630174D01*
X159672721Y-136630174D01*
G37*
G36*
X184663234Y-133419854D02*
G01*
X184880199Y-133485670D01*
X184880201Y-133485671D01*
X185080153Y-133592547D01*
X185080155Y-133592548D01*
X185080154Y-133592548D01*
X185255418Y-133736382D01*
X185308526Y-133801095D01*
X185399253Y-133911645D01*
X185501362Y-134102679D01*
X185514975Y-134123053D01*
X185532302Y-134140380D01*
X185552677Y-134153994D01*
X185575315Y-134163372D01*
X185599349Y-134168152D01*
X185623853Y-134168152D01*
X185647886Y-134163372D01*
X185670525Y-134153994D01*
X185690899Y-134140381D01*
X185708226Y-134123054D01*
X185721840Y-134102679D01*
X185731218Y-134080041D01*
X185735998Y-134056007D01*
X185736600Y-134043755D01*
X185736600Y-133903200D01*
X187338600Y-133903200D01*
X187338600Y-136505200D01*
X185736600Y-136505200D01*
X185736600Y-136364645D01*
X185734198Y-136340259D01*
X185727085Y-136316810D01*
X185715534Y-136295199D01*
X185699989Y-136276257D01*
X185681047Y-136260712D01*
X185659436Y-136249161D01*
X185635987Y-136242048D01*
X185611601Y-136239646D01*
X185587215Y-136242048D01*
X185563766Y-136249161D01*
X185542155Y-136260712D01*
X185523213Y-136276257D01*
X185507668Y-136295199D01*
X185501362Y-136305721D01*
X185399253Y-136496755D01*
X185255418Y-136672018D01*
X185080155Y-136815853D01*
X184880202Y-136922729D01*
X184880200Y-136922730D01*
X184663235Y-136988546D01*
X184437600Y-137010769D01*
X184211966Y-136988546D01*
X183995001Y-136922730D01*
X183994999Y-136922729D01*
X183795046Y-136815853D01*
X183619783Y-136672018D01*
X183475948Y-136496754D01*
X183369071Y-136296802D01*
X183368585Y-136295199D01*
X183303254Y-136079835D01*
X183286600Y-135910743D01*
X183286600Y-134497658D01*
X183303254Y-134328566D01*
X183369070Y-134111601D01*
X183385939Y-134080041D01*
X183475947Y-133911647D01*
X183555631Y-133814551D01*
X183619782Y-133736382D01*
X183698783Y-133671548D01*
X183795045Y-133592547D01*
X183994998Y-133485671D01*
X183995000Y-133485670D01*
X184211965Y-133419854D01*
X184437600Y-133397631D01*
X184663234Y-133419854D01*
X184663234Y-133419854D01*
G37*
G36*
X192863234Y-133419854D02*
G01*
X193080199Y-133485670D01*
X193080201Y-133485671D01*
X193280153Y-133592547D01*
X193280155Y-133592548D01*
X193280154Y-133592548D01*
X193455418Y-133736382D01*
X193508526Y-133801095D01*
X193599253Y-133911645D01*
X193697078Y-134094664D01*
X193706130Y-134111600D01*
X193767233Y-134313028D01*
X193771946Y-134328566D01*
X193780040Y-134410740D01*
X193788600Y-134497657D01*
X193788600Y-135910743D01*
X193771946Y-136079835D01*
X193706616Y-136295199D01*
X193706129Y-136296802D01*
X193599253Y-136496755D01*
X193455418Y-136672018D01*
X193280155Y-136815853D01*
X193080202Y-136922729D01*
X193080200Y-136922730D01*
X192863235Y-136988546D01*
X192637600Y-137010769D01*
X192411966Y-136988546D01*
X192195001Y-136922730D01*
X192194999Y-136922729D01*
X191995046Y-136815853D01*
X191819783Y-136672018D01*
X191675948Y-136496754D01*
X191569071Y-136296802D01*
X191569070Y-136296800D01*
X191503254Y-136079835D01*
X191503254Y-136079831D01*
X191502612Y-136077716D01*
X191498691Y-136058003D01*
X191489315Y-136035364D01*
X191475701Y-136014990D01*
X191458375Y-135997662D01*
X191438001Y-135984048D01*
X191415362Y-135974670D01*
X191391329Y-135969889D01*
X191366825Y-135969889D01*
X191342791Y-135974669D01*
X191320152Y-135984045D01*
X191299778Y-135997659D01*
X191282450Y-136014985D01*
X191268835Y-136035361D01*
X191206829Y-136151365D01*
X191106733Y-136273333D01*
X190984765Y-136373429D01*
X190845613Y-136447808D01*
X190795282Y-136463075D01*
X190694623Y-136493610D01*
X190537600Y-136509075D01*
X190380578Y-136493610D01*
X190279919Y-136463075D01*
X190229588Y-136447808D01*
X190090436Y-136373429D01*
X189968468Y-136273333D01*
X189868372Y-136151365D01*
X189793993Y-136012213D01*
X189773406Y-135944347D01*
X189748191Y-135861223D01*
X189736601Y-135743545D01*
X189736600Y-134664856D01*
X189748190Y-134547178D01*
X189785448Y-134424354D01*
X189793992Y-134396188D01*
X189868371Y-134257036D01*
X189887005Y-134234330D01*
X189968467Y-134135067D01*
X190090435Y-134034971D01*
X190229587Y-133960592D01*
X190279918Y-133945325D01*
X190380577Y-133914790D01*
X190537600Y-133899325D01*
X190694622Y-133914790D01*
X190795281Y-133945325D01*
X190845612Y-133960592D01*
X190984764Y-134034971D01*
X191106733Y-134135067D01*
X191192264Y-134239287D01*
X191206829Y-134257035D01*
X191268835Y-134373039D01*
X191282449Y-134393413D01*
X191299776Y-134410740D01*
X191320150Y-134424354D01*
X191342789Y-134433731D01*
X191366823Y-134438511D01*
X191391327Y-134438511D01*
X191415360Y-134433730D01*
X191437999Y-134424353D01*
X191458373Y-134410739D01*
X191475700Y-134393412D01*
X191489314Y-134373038D01*
X191498691Y-134350399D01*
X191502612Y-134330685D01*
X191503254Y-134328567D01*
X191503254Y-134328566D01*
X191569070Y-134111601D01*
X191585939Y-134080041D01*
X191675947Y-133911647D01*
X191755631Y-133814551D01*
X191819782Y-133736382D01*
X191898783Y-133671548D01*
X191995045Y-133592547D01*
X192194998Y-133485671D01*
X192195000Y-133485670D01*
X192411965Y-133419854D01*
X192637600Y-133397631D01*
X192863234Y-133419854D01*
X192863234Y-133419854D01*
G37*
G36*
X188694622Y-133914790D02*
G01*
X188795281Y-133945325D01*
X188845612Y-133960592D01*
X188984764Y-134034971D01*
X189106733Y-134135067D01*
X189192264Y-134239287D01*
X189206829Y-134257035D01*
X189281208Y-134396187D01*
X189289752Y-134424353D01*
X189327010Y-134547177D01*
X189330757Y-134585224D01*
X189338360Y-134662413D01*
X189338600Y-134664855D01*
X189338600Y-135743545D01*
X189327010Y-135861223D01*
X189301795Y-135944347D01*
X189281208Y-136012213D01*
X189206829Y-136151365D01*
X189106733Y-136273333D01*
X188984765Y-136373429D01*
X188845613Y-136447808D01*
X188795282Y-136463075D01*
X188694623Y-136493610D01*
X188537600Y-136509075D01*
X188380578Y-136493610D01*
X188279919Y-136463075D01*
X188229588Y-136447808D01*
X188090436Y-136373429D01*
X187968468Y-136273333D01*
X187868372Y-136151365D01*
X187793993Y-136012213D01*
X187773406Y-135944347D01*
X187748191Y-135861223D01*
X187736601Y-135743545D01*
X187736600Y-134664856D01*
X187748190Y-134547178D01*
X187785448Y-134424354D01*
X187793992Y-134396188D01*
X187868371Y-134257036D01*
X187887005Y-134234330D01*
X187968467Y-134135067D01*
X188090435Y-134034971D01*
X188229587Y-133960592D01*
X188279918Y-133945325D01*
X188380577Y-133914790D01*
X188537600Y-133899325D01*
X188694622Y-133914790D01*
X188694622Y-133914790D01*
G37*
G36*
X154804213Y-134130249D02*
G01*
X154898652Y-134158897D01*
X154985687Y-134205418D01*
X155061975Y-134268025D01*
X155124582Y-134344313D01*
X155171103Y-134431348D01*
X155199751Y-134525787D01*
X155205606Y-134585234D01*
X155210385Y-134609258D01*
X155219762Y-134631897D01*
X155233376Y-134652271D01*
X155250703Y-134669598D01*
X155271077Y-134683211D01*
X155293716Y-134692589D01*
X155317749Y-134697369D01*
X155342253Y-134697369D01*
X155366287Y-134692588D01*
X155388926Y-134683211D01*
X155409300Y-134669597D01*
X155426627Y-134652270D01*
X155440240Y-134631896D01*
X155449618Y-134609257D01*
X155455000Y-134572972D01*
X155455000Y-134317140D01*
X155459205Y-134274440D01*
X155469869Y-134239287D01*
X155487186Y-134206890D01*
X155510491Y-134178491D01*
X155538890Y-134155186D01*
X155571287Y-134137869D01*
X155606440Y-134127205D01*
X155649140Y-134123000D01*
X156262860Y-134123000D01*
X156305560Y-134127205D01*
X156340713Y-134137869D01*
X156373110Y-134155186D01*
X156401509Y-134178491D01*
X156424814Y-134206890D01*
X156442131Y-134239287D01*
X156452795Y-134274440D01*
X156457000Y-134317140D01*
X156457000Y-135430860D01*
X156452795Y-135473560D01*
X156442131Y-135508713D01*
X156424814Y-135541110D01*
X156401509Y-135569509D01*
X156373110Y-135592814D01*
X156340713Y-135610131D01*
X156305560Y-135620795D01*
X156262860Y-135625000D01*
X155649140Y-135625000D01*
X155606440Y-135620795D01*
X155571287Y-135610131D01*
X155538890Y-135592814D01*
X155510491Y-135569509D01*
X155487186Y-135541110D01*
X155469869Y-135508713D01*
X155459205Y-135473560D01*
X155455000Y-135430860D01*
X155455000Y-135175028D01*
X155452598Y-135150642D01*
X155445485Y-135127193D01*
X155433934Y-135105582D01*
X155418389Y-135086640D01*
X155399447Y-135071095D01*
X155377836Y-135059544D01*
X155354387Y-135052431D01*
X155330001Y-135050029D01*
X155305615Y-135052431D01*
X155282166Y-135059544D01*
X155260555Y-135071095D01*
X155241613Y-135086640D01*
X155226068Y-135105582D01*
X155214517Y-135127193D01*
X155205606Y-135162770D01*
X155199751Y-135222213D01*
X155171103Y-135316652D01*
X155124582Y-135403687D01*
X155061975Y-135479975D01*
X154985687Y-135542582D01*
X154898651Y-135589103D01*
X154804212Y-135617751D01*
X154706000Y-135627424D01*
X154607787Y-135617751D01*
X154513348Y-135589103D01*
X154426313Y-135542582D01*
X154350025Y-135479975D01*
X154287418Y-135403687D01*
X154240897Y-135316651D01*
X154212249Y-135222212D01*
X154205395Y-135152622D01*
X154200616Y-135128599D01*
X154191239Y-135105960D01*
X154177625Y-135085586D01*
X154160298Y-135068259D01*
X154139924Y-135054645D01*
X154117285Y-135045268D01*
X154093252Y-135040488D01*
X154068747Y-135040488D01*
X154044714Y-135045269D01*
X154022075Y-135054646D01*
X154001701Y-135068260D01*
X153984374Y-135085587D01*
X153970760Y-135105961D01*
X153961383Y-135128600D01*
X153956605Y-135152623D01*
X153949751Y-135222213D01*
X153921103Y-135316652D01*
X153874582Y-135403687D01*
X153811975Y-135479975D01*
X153735687Y-135542582D01*
X153648651Y-135589103D01*
X153554212Y-135617751D01*
X153456000Y-135627424D01*
X153357787Y-135617751D01*
X153263348Y-135589103D01*
X153176313Y-135542582D01*
X153100025Y-135479975D01*
X153037418Y-135403687D01*
X152990897Y-135316651D01*
X152962249Y-135222212D01*
X152955000Y-135148611D01*
X152955000Y-134599398D01*
X152962250Y-134525789D01*
X152962250Y-134525787D01*
X152990898Y-134431348D01*
X153037419Y-134344313D01*
X153100026Y-134268025D01*
X153176314Y-134205418D01*
X153263349Y-134158897D01*
X153357788Y-134130249D01*
X153456000Y-134120576D01*
X153554213Y-134130249D01*
X153648652Y-134158897D01*
X153735687Y-134205418D01*
X153811975Y-134268025D01*
X153874582Y-134344313D01*
X153921103Y-134431348D01*
X153949751Y-134525787D01*
X153956605Y-134595377D01*
X153961384Y-134619400D01*
X153970761Y-134642039D01*
X153984375Y-134662413D01*
X154001702Y-134679740D01*
X154022076Y-134693354D01*
X154044715Y-134702731D01*
X154068748Y-134707511D01*
X154093253Y-134707511D01*
X154117286Y-134702730D01*
X154139925Y-134693353D01*
X154160299Y-134679739D01*
X154177626Y-134662412D01*
X154191240Y-134642038D01*
X154200617Y-134619399D01*
X154205397Y-134595367D01*
X154212250Y-134525789D01*
X154212250Y-134525787D01*
X154240898Y-134431348D01*
X154287419Y-134344313D01*
X154350026Y-134268025D01*
X154426314Y-134205418D01*
X154513349Y-134158897D01*
X154607788Y-134130249D01*
X154706000Y-134120576D01*
X154804213Y-134130249D01*
X154804213Y-134130249D01*
G37*
G36*
X180181617Y-133703420D02*
G01*
X180262399Y-133727925D01*
X180304335Y-133740646D01*
X180417424Y-133801094D01*
X180516554Y-133882447D01*
X180597906Y-133981575D01*
X180658354Y-134094664D01*
X180660785Y-134102679D01*
X180695580Y-134217382D01*
X180705000Y-134313027D01*
X180705000Y-134926973D01*
X180695580Y-135022618D01*
X180676159Y-135086640D01*
X180658354Y-135145336D01*
X180597906Y-135258425D01*
X180516554Y-135357554D01*
X180417425Y-135438906D01*
X180304336Y-135499354D01*
X180273483Y-135508713D01*
X180181618Y-135536580D01*
X180054000Y-135549149D01*
X179926383Y-135536580D01*
X179834518Y-135508713D01*
X179803665Y-135499354D01*
X179690576Y-135438906D01*
X179591447Y-135357554D01*
X179510096Y-135258427D01*
X179510095Y-135258425D01*
X179453547Y-135152633D01*
X179449645Y-135145333D01*
X179431841Y-135086640D01*
X179412420Y-135022618D01*
X179403000Y-134926973D01*
X179403000Y-134313028D01*
X179412420Y-134217383D01*
X179449645Y-134094669D01*
X179449646Y-134094665D01*
X179510094Y-133981576D01*
X179591447Y-133882446D01*
X179690575Y-133801094D01*
X179803664Y-133740646D01*
X179845600Y-133727925D01*
X179926382Y-133703420D01*
X180054000Y-133690851D01*
X180181617Y-133703420D01*
X180181617Y-133703420D01*
G37*
G36*
X178545242Y-133698404D02*
G01*
X178582337Y-133709657D01*
X178616515Y-133727925D01*
X178646481Y-133752519D01*
X178671075Y-133782485D01*
X178689343Y-133816663D01*
X178700596Y-133853758D01*
X178705000Y-133898474D01*
X178705000Y-135341526D01*
X178700596Y-135386242D01*
X178689343Y-135423337D01*
X178671075Y-135457515D01*
X178646481Y-135487481D01*
X178616515Y-135512075D01*
X178582337Y-135530343D01*
X178545242Y-135541596D01*
X178500526Y-135546000D01*
X177607474Y-135546000D01*
X177562758Y-135541596D01*
X177525663Y-135530343D01*
X177491485Y-135512075D01*
X177461519Y-135487481D01*
X177436925Y-135457515D01*
X177418657Y-135423337D01*
X177407404Y-135386242D01*
X177403000Y-135341526D01*
X177403000Y-133898474D01*
X177407404Y-133853758D01*
X177418657Y-133816663D01*
X177436925Y-133782485D01*
X177461519Y-133752519D01*
X177491485Y-133727925D01*
X177525663Y-133709657D01*
X177562758Y-133698404D01*
X177607474Y-133694000D01*
X178500526Y-133694000D01*
X178545242Y-133698404D01*
X178545242Y-133698404D01*
G37*
G36*
X172801000Y-135071000D02*
G01*
X170099000Y-135071000D01*
X170099000Y-134169000D01*
X172801000Y-134169000D01*
X172801000Y-135071000D01*
X172801000Y-135071000D01*
G37*
G36*
X165487500Y-134690500D02*
G01*
X164585500Y-134690500D01*
X164585500Y-129088500D01*
X165487500Y-129088500D01*
X165487500Y-134690500D01*
X165487500Y-134690500D01*
G37*
G36*
X201732343Y-130921361D02*
G01*
X201751568Y-130923254D01*
X201924234Y-130975632D01*
X202083365Y-131060689D01*
X202222844Y-131175156D01*
X202337311Y-131314635D01*
X202422368Y-131473766D01*
X202474746Y-131646433D01*
X202492432Y-131826000D01*
X202474746Y-132005567D01*
X202422368Y-132178234D01*
X202337311Y-132337365D01*
X202222844Y-132476844D01*
X202083365Y-132591311D01*
X201924234Y-132676368D01*
X201751568Y-132728746D01*
X201732343Y-132730639D01*
X201616998Y-132742000D01*
X201227002Y-132742000D01*
X201111657Y-132730639D01*
X201092432Y-132728746D01*
X200919766Y-132676368D01*
X200760635Y-132591311D01*
X200621156Y-132476844D01*
X200506689Y-132337365D01*
X200421632Y-132178234D01*
X200369254Y-132005567D01*
X200351568Y-131826000D01*
X200369254Y-131646433D01*
X200421632Y-131473766D01*
X200506689Y-131314635D01*
X200621156Y-131175156D01*
X200760635Y-131060689D01*
X200919766Y-130975632D01*
X201092432Y-130923254D01*
X201111657Y-130921361D01*
X201227002Y-130910000D01*
X201616998Y-130910000D01*
X201732343Y-130921361D01*
X201732343Y-130921361D01*
G37*
G36*
X228498600Y-131978600D02*
G01*
X226669400Y-131978600D01*
X226669400Y-130149400D01*
X228498600Y-130149400D01*
X228498600Y-131978600D01*
X228498600Y-131978600D01*
G37*
G36*
X225223294Y-130162633D02*
G01*
X225395695Y-130214931D01*
X225554583Y-130299858D01*
X225693849Y-130414151D01*
X225808142Y-130553417D01*
X225893069Y-130712305D01*
X225945367Y-130884706D01*
X225963025Y-131064000D01*
X225945367Y-131243294D01*
X225893069Y-131415695D01*
X225808142Y-131574583D01*
X225693849Y-131713849D01*
X225554583Y-131828142D01*
X225395695Y-131913069D01*
X225223294Y-131965367D01*
X225088931Y-131978600D01*
X224999069Y-131978600D01*
X224864706Y-131965367D01*
X224692305Y-131913069D01*
X224533417Y-131828142D01*
X224394151Y-131713849D01*
X224279858Y-131574583D01*
X224194931Y-131415695D01*
X224142633Y-131243294D01*
X224124975Y-131064000D01*
X224142633Y-130884706D01*
X224194931Y-130712305D01*
X224279858Y-130553417D01*
X224394151Y-130414151D01*
X224533417Y-130299858D01*
X224692305Y-130214931D01*
X224864706Y-130162633D01*
X224999069Y-130149400D01*
X225088931Y-130149400D01*
X225223294Y-130162633D01*
X225223294Y-130162633D01*
G37*
G36*
X178214721Y-130280174D02*
G01*
X178314995Y-130321709D01*
X178314996Y-130321710D01*
X178405242Y-130382010D01*
X178481990Y-130458758D01*
X178481991Y-130458760D01*
X178542291Y-130549005D01*
X178583826Y-130649279D01*
X178605000Y-130755730D01*
X178605000Y-130864270D01*
X178583826Y-130970721D01*
X178542291Y-131070995D01*
X178542290Y-131070996D01*
X178481990Y-131161242D01*
X178405242Y-131237990D01*
X178397305Y-131243293D01*
X178314995Y-131298291D01*
X178214721Y-131339826D01*
X178108270Y-131361000D01*
X177999730Y-131361000D01*
X177893279Y-131339826D01*
X177793005Y-131298291D01*
X177710695Y-131243293D01*
X177702758Y-131237990D01*
X177626010Y-131161242D01*
X177565710Y-131070996D01*
X177565709Y-131070995D01*
X177524174Y-130970721D01*
X177503000Y-130864270D01*
X177503000Y-130755730D01*
X177524174Y-130649279D01*
X177565709Y-130549005D01*
X177626009Y-130458760D01*
X177626010Y-130458758D01*
X177702758Y-130382010D01*
X177793004Y-130321710D01*
X177793005Y-130321709D01*
X177893279Y-130280174D01*
X177999730Y-130259000D01*
X178108270Y-130259000D01*
X178214721Y-130280174D01*
X178214721Y-130280174D01*
G37*
G36*
X180246721Y-130280174D02*
G01*
X180346995Y-130321709D01*
X180346996Y-130321710D01*
X180437242Y-130382010D01*
X180513990Y-130458758D01*
X180513991Y-130458760D01*
X180574291Y-130549005D01*
X180615826Y-130649279D01*
X180637000Y-130755730D01*
X180637000Y-130864270D01*
X180615826Y-130970721D01*
X180574291Y-131070995D01*
X180574290Y-131070996D01*
X180513990Y-131161242D01*
X180437242Y-131237990D01*
X180429305Y-131243293D01*
X180346995Y-131298291D01*
X180246721Y-131339826D01*
X180140270Y-131361000D01*
X180031730Y-131361000D01*
X179925279Y-131339826D01*
X179825005Y-131298291D01*
X179742695Y-131243293D01*
X179734758Y-131237990D01*
X179658010Y-131161242D01*
X179597710Y-131070996D01*
X179597709Y-131070995D01*
X179556174Y-130970721D01*
X179535000Y-130864270D01*
X179535000Y-130755730D01*
X179556174Y-130649279D01*
X179597709Y-130549005D01*
X179658009Y-130458760D01*
X179658010Y-130458758D01*
X179734758Y-130382010D01*
X179825004Y-130321710D01*
X179825005Y-130321709D01*
X179925279Y-130280174D01*
X180031730Y-130259000D01*
X180140270Y-130259000D01*
X180246721Y-130280174D01*
X180246721Y-130280174D01*
G37*
G36*
X173671890Y-128977517D02*
G01*
X173790364Y-129026591D01*
X173896988Y-129097835D01*
X173987665Y-129188512D01*
X174054236Y-129288142D01*
X174058910Y-129295138D01*
X174079644Y-129345195D01*
X174107983Y-129413610D01*
X174133000Y-129539382D01*
X174133000Y-129667618D01*
X174107983Y-129793390D01*
X174058909Y-129911864D01*
X173987665Y-130018488D01*
X173896988Y-130109165D01*
X173790364Y-130180409D01*
X173790363Y-130180410D01*
X173790362Y-130180410D01*
X173671890Y-130229483D01*
X173546119Y-130254500D01*
X173417881Y-130254500D01*
X173292110Y-130229483D01*
X173173638Y-130180410D01*
X173173637Y-130180410D01*
X173173636Y-130180409D01*
X173067012Y-130109165D01*
X172976335Y-130018488D01*
X172905091Y-129911864D01*
X172856017Y-129793390D01*
X172831000Y-129667618D01*
X172831000Y-129539382D01*
X172856017Y-129413610D01*
X172884356Y-129345195D01*
X172905090Y-129295138D01*
X172909765Y-129288142D01*
X172976335Y-129188512D01*
X173067012Y-129097835D01*
X173173636Y-129026591D01*
X173292110Y-128977517D01*
X173417881Y-128952500D01*
X173546119Y-128952500D01*
X173671890Y-128977517D01*
X173671890Y-128977517D01*
G37*
G36*
X201732343Y-128381361D02*
G01*
X201751568Y-128383254D01*
X201924234Y-128435632D01*
X202083365Y-128520689D01*
X202222844Y-128635156D01*
X202337311Y-128774635D01*
X202422368Y-128933766D01*
X202474746Y-129106433D01*
X202492432Y-129286000D01*
X202474746Y-129465567D01*
X202422368Y-129638234D01*
X202337311Y-129797365D01*
X202222844Y-129936844D01*
X202083365Y-130051311D01*
X201924234Y-130136368D01*
X201881273Y-130149400D01*
X201751568Y-130188746D01*
X201732343Y-130190639D01*
X201616998Y-130202000D01*
X201227002Y-130202000D01*
X201111657Y-130190639D01*
X201092432Y-130188746D01*
X200962727Y-130149400D01*
X200919766Y-130136368D01*
X200760635Y-130051311D01*
X200621156Y-129936844D01*
X200506689Y-129797365D01*
X200421632Y-129638234D01*
X200369254Y-129465567D01*
X200351568Y-129286000D01*
X200369254Y-129106433D01*
X200421632Y-128933766D01*
X200506689Y-128774635D01*
X200621156Y-128635156D01*
X200760635Y-128520689D01*
X200919766Y-128435632D01*
X201092432Y-128383254D01*
X201111657Y-128381361D01*
X201227002Y-128370000D01*
X201616998Y-128370000D01*
X201732343Y-128381361D01*
X201732343Y-128381361D01*
G37*
G36*
X203718601Y-128700397D02*
G01*
X203757305Y-128708096D01*
X203789340Y-128721365D01*
X203866680Y-128753400D01*
X203965115Y-128819173D01*
X204048827Y-128902885D01*
X204114600Y-129001320D01*
X204146635Y-129078660D01*
X204158139Y-129106433D01*
X204159904Y-129110696D01*
X204183000Y-129226805D01*
X204183000Y-129345195D01*
X204177455Y-129373069D01*
X204159904Y-129461305D01*
X204158138Y-129465568D01*
X204114600Y-129570680D01*
X204048827Y-129669115D01*
X203965115Y-129752827D01*
X203866680Y-129818600D01*
X203789340Y-129850635D01*
X203757305Y-129863904D01*
X203718601Y-129871603D01*
X203641195Y-129887000D01*
X203522805Y-129887000D01*
X203445399Y-129871603D01*
X203406695Y-129863904D01*
X203374660Y-129850635D01*
X203297320Y-129818600D01*
X203198885Y-129752827D01*
X203115173Y-129669115D01*
X203049400Y-129570680D01*
X203005862Y-129465568D01*
X203004096Y-129461305D01*
X202986545Y-129373069D01*
X202981000Y-129345195D01*
X202981000Y-129226805D01*
X203004096Y-129110696D01*
X203005862Y-129106433D01*
X203017365Y-129078660D01*
X203049400Y-129001320D01*
X203115173Y-128902885D01*
X203198885Y-128819173D01*
X203297320Y-128753400D01*
X203374660Y-128721365D01*
X203406695Y-128708096D01*
X203445399Y-128700397D01*
X203522805Y-128685000D01*
X203641195Y-128685000D01*
X203718601Y-128700397D01*
X203718601Y-128700397D01*
G37*
G36*
X227763294Y-127622633D02*
G01*
X227935695Y-127674931D01*
X228094583Y-127759858D01*
X228233849Y-127874151D01*
X228348142Y-128013417D01*
X228433069Y-128172305D01*
X228485367Y-128344706D01*
X228503025Y-128524000D01*
X228485367Y-128703294D01*
X228433069Y-128875695D01*
X228348142Y-129034583D01*
X228233849Y-129173849D01*
X228094583Y-129288142D01*
X227935695Y-129373069D01*
X227763294Y-129425367D01*
X227628931Y-129438600D01*
X227539069Y-129438600D01*
X227404706Y-129425367D01*
X227232305Y-129373069D01*
X227073417Y-129288142D01*
X226934151Y-129173849D01*
X226819858Y-129034583D01*
X226734931Y-128875695D01*
X226682633Y-128703294D01*
X226664975Y-128524000D01*
X226682633Y-128344706D01*
X226734931Y-128172305D01*
X226819858Y-128013417D01*
X226934151Y-127874151D01*
X227073417Y-127759858D01*
X227232305Y-127674931D01*
X227404706Y-127622633D01*
X227539069Y-127609400D01*
X227628931Y-127609400D01*
X227763294Y-127622633D01*
X227763294Y-127622633D01*
G37*
G36*
X225223294Y-127622633D02*
G01*
X225395695Y-127674931D01*
X225554583Y-127759858D01*
X225693849Y-127874151D01*
X225808142Y-128013417D01*
X225893069Y-128172305D01*
X225945367Y-128344706D01*
X225963025Y-128524000D01*
X225945367Y-128703294D01*
X225893069Y-128875695D01*
X225808142Y-129034583D01*
X225693849Y-129173849D01*
X225554583Y-129288142D01*
X225395695Y-129373069D01*
X225223294Y-129425367D01*
X225088931Y-129438600D01*
X224999069Y-129438600D01*
X224864706Y-129425367D01*
X224692305Y-129373069D01*
X224533417Y-129288142D01*
X224394151Y-129173849D01*
X224279858Y-129034583D01*
X224194931Y-128875695D01*
X224142633Y-128703294D01*
X224124975Y-128524000D01*
X224142633Y-128344706D01*
X224194931Y-128172305D01*
X224279858Y-128013417D01*
X224394151Y-127874151D01*
X224533417Y-127759858D01*
X224692305Y-127674931D01*
X224864706Y-127622633D01*
X224999069Y-127609400D01*
X225088931Y-127609400D01*
X225223294Y-127622633D01*
X225223294Y-127622633D01*
G37*
G36*
X166784721Y-128248174D02*
G01*
X166884995Y-128289709D01*
X166884996Y-128289710D01*
X166975242Y-128350010D01*
X167051990Y-128426758D01*
X167051991Y-128426760D01*
X167112291Y-128517005D01*
X167153826Y-128617279D01*
X167175000Y-128723730D01*
X167175000Y-128832270D01*
X167153826Y-128938721D01*
X167112291Y-129038995D01*
X167112290Y-129038996D01*
X167051990Y-129129242D01*
X166975242Y-129205990D01*
X166944090Y-129226805D01*
X166884995Y-129266291D01*
X166784721Y-129307826D01*
X166678270Y-129329000D01*
X166569730Y-129329000D01*
X166463279Y-129307826D01*
X166363005Y-129266291D01*
X166303910Y-129226805D01*
X166272758Y-129205990D01*
X166196010Y-129129242D01*
X166135710Y-129038996D01*
X166135709Y-129038995D01*
X166094174Y-128938721D01*
X166073000Y-128832270D01*
X166073000Y-128723730D01*
X166094174Y-128617279D01*
X166135709Y-128517005D01*
X166196009Y-128426760D01*
X166196010Y-128426758D01*
X166272758Y-128350010D01*
X166363004Y-128289710D01*
X166363005Y-128289709D01*
X166463279Y-128248174D01*
X166569730Y-128227000D01*
X166678270Y-128227000D01*
X166784721Y-128248174D01*
X166784721Y-128248174D01*
G37*
G36*
X163711000Y-127897000D02*
G01*
X161409000Y-127897000D01*
X161409000Y-125595000D01*
X163711000Y-125595000D01*
X163711000Y-127897000D01*
X163711000Y-127897000D01*
G37*
G36*
X201732343Y-125841361D02*
G01*
X201751568Y-125843254D01*
X201837900Y-125869443D01*
X201924234Y-125895632D01*
X202083365Y-125980689D01*
X202222844Y-126095156D01*
X202337311Y-126234635D01*
X202422368Y-126393766D01*
X202474746Y-126566433D01*
X202492432Y-126746000D01*
X202474746Y-126925567D01*
X202422368Y-127098234D01*
X202337311Y-127257365D01*
X202222844Y-127396844D01*
X202083365Y-127511311D01*
X201924234Y-127596368D01*
X201881273Y-127609400D01*
X201751568Y-127648746D01*
X201732343Y-127650639D01*
X201616998Y-127662000D01*
X201227002Y-127662000D01*
X201111657Y-127650639D01*
X201092432Y-127648746D01*
X200962727Y-127609400D01*
X200919766Y-127596368D01*
X200760635Y-127511311D01*
X200621156Y-127396844D01*
X200506689Y-127257365D01*
X200421632Y-127098234D01*
X200369254Y-126925567D01*
X200351568Y-126746000D01*
X200369254Y-126566433D01*
X200421632Y-126393766D01*
X200506689Y-126234635D01*
X200621156Y-126095156D01*
X200760635Y-125980689D01*
X200919766Y-125895632D01*
X201092432Y-125843254D01*
X201111657Y-125841361D01*
X201227002Y-125830000D01*
X201616998Y-125830000D01*
X201732343Y-125841361D01*
X201732343Y-125841361D01*
G37*
G36*
X227763294Y-125082633D02*
G01*
X227935695Y-125134931D01*
X228094583Y-125219858D01*
X228233849Y-125334151D01*
X228348142Y-125473417D01*
X228433069Y-125632305D01*
X228485367Y-125804706D01*
X228503025Y-125984000D01*
X228485367Y-126163294D01*
X228433069Y-126335695D01*
X228348142Y-126494583D01*
X228233849Y-126633849D01*
X228094583Y-126748142D01*
X227935695Y-126833069D01*
X227763294Y-126885367D01*
X227628931Y-126898600D01*
X227539069Y-126898600D01*
X227404706Y-126885367D01*
X227232305Y-126833069D01*
X227073417Y-126748142D01*
X226934151Y-126633849D01*
X226819858Y-126494583D01*
X226734931Y-126335695D01*
X226682633Y-126163294D01*
X226664975Y-125984000D01*
X226682633Y-125804706D01*
X226734931Y-125632305D01*
X226819858Y-125473417D01*
X226934151Y-125334151D01*
X227073417Y-125219858D01*
X227232305Y-125134931D01*
X227404706Y-125082633D01*
X227539069Y-125069400D01*
X227628931Y-125069400D01*
X227763294Y-125082633D01*
X227763294Y-125082633D01*
G37*
G36*
X225223294Y-125082633D02*
G01*
X225395695Y-125134931D01*
X225554583Y-125219858D01*
X225693849Y-125334151D01*
X225808142Y-125473417D01*
X225893069Y-125632305D01*
X225945367Y-125804706D01*
X225963025Y-125984000D01*
X225945367Y-126163294D01*
X225893069Y-126335695D01*
X225808142Y-126494583D01*
X225693849Y-126633849D01*
X225554583Y-126748142D01*
X225395695Y-126833069D01*
X225223294Y-126885367D01*
X225088931Y-126898600D01*
X224999069Y-126898600D01*
X224864706Y-126885367D01*
X224692305Y-126833069D01*
X224533417Y-126748142D01*
X224394151Y-126633849D01*
X224279858Y-126494583D01*
X224194931Y-126335695D01*
X224142633Y-126163294D01*
X224124975Y-125984000D01*
X224142633Y-125804706D01*
X224194931Y-125632305D01*
X224279858Y-125473417D01*
X224394151Y-125334151D01*
X224533417Y-125219858D01*
X224692305Y-125134931D01*
X224864706Y-125082633D01*
X224999069Y-125069400D01*
X225088931Y-125069400D01*
X225223294Y-125082633D01*
X225223294Y-125082633D01*
G37*
G36*
X173896721Y-125708174D02*
G01*
X173996995Y-125749709D01*
X173996996Y-125749710D01*
X174087242Y-125810010D01*
X174163990Y-125886758D01*
X174163991Y-125886760D01*
X174224291Y-125977005D01*
X174265826Y-126077279D01*
X174287000Y-126183730D01*
X174287000Y-126292270D01*
X174265826Y-126398721D01*
X174224291Y-126498995D01*
X174224290Y-126498996D01*
X174163990Y-126589242D01*
X174087242Y-126665990D01*
X174041812Y-126696345D01*
X173996995Y-126726291D01*
X173896721Y-126767826D01*
X173790270Y-126789000D01*
X173681730Y-126789000D01*
X173575279Y-126767826D01*
X173475005Y-126726291D01*
X173430188Y-126696345D01*
X173384758Y-126665990D01*
X173308010Y-126589242D01*
X173247710Y-126498996D01*
X173247709Y-126498995D01*
X173206174Y-126398721D01*
X173185000Y-126292270D01*
X173185000Y-126183730D01*
X173206174Y-126077279D01*
X173247709Y-125977005D01*
X173308009Y-125886760D01*
X173308010Y-125886758D01*
X173384758Y-125810010D01*
X173475004Y-125749710D01*
X173475005Y-125749709D01*
X173575279Y-125708174D01*
X173681730Y-125687000D01*
X173790270Y-125687000D01*
X173896721Y-125708174D01*
X173896721Y-125708174D01*
G37*
G36*
X187612721Y-125454174D02*
G01*
X187712995Y-125495709D01*
X187712996Y-125495710D01*
X187803242Y-125556010D01*
X187879990Y-125632758D01*
X187879991Y-125632760D01*
X187940291Y-125723005D01*
X187981826Y-125823279D01*
X188003000Y-125929730D01*
X188003000Y-126038270D01*
X187981826Y-126144721D01*
X187940291Y-126244995D01*
X187940290Y-126244996D01*
X187879990Y-126335242D01*
X187803242Y-126411990D01*
X187757812Y-126442345D01*
X187712995Y-126472291D01*
X187612721Y-126513826D01*
X187506270Y-126535000D01*
X187397730Y-126535000D01*
X187291279Y-126513826D01*
X187191005Y-126472291D01*
X187146188Y-126442345D01*
X187100758Y-126411990D01*
X187024010Y-126335242D01*
X186963710Y-126244996D01*
X186963709Y-126244995D01*
X186922174Y-126144721D01*
X186901000Y-126038270D01*
X186901000Y-125929730D01*
X186922174Y-125823279D01*
X186963709Y-125723005D01*
X187024009Y-125632760D01*
X187024010Y-125632758D01*
X187100758Y-125556010D01*
X187191004Y-125495710D01*
X187191005Y-125495709D01*
X187291279Y-125454174D01*
X187397730Y-125433000D01*
X187506270Y-125433000D01*
X187612721Y-125454174D01*
X187612721Y-125454174D01*
G37*
G36*
X179484721Y-125200174D02*
G01*
X179584995Y-125241709D01*
X179584996Y-125241710D01*
X179675242Y-125302010D01*
X179751990Y-125378758D01*
X179751991Y-125378760D01*
X179812291Y-125469005D01*
X179853826Y-125569279D01*
X179875000Y-125675730D01*
X179875000Y-125784270D01*
X179853826Y-125890721D01*
X179812291Y-125990995D01*
X179812290Y-125990996D01*
X179751990Y-126081242D01*
X179675242Y-126157990D01*
X179667305Y-126163293D01*
X179584995Y-126218291D01*
X179484721Y-126259826D01*
X179378270Y-126281000D01*
X179269730Y-126281000D01*
X179163279Y-126259826D01*
X179063005Y-126218291D01*
X178980695Y-126163293D01*
X178972758Y-126157990D01*
X178896010Y-126081242D01*
X178835710Y-125990996D01*
X178835709Y-125990995D01*
X178794174Y-125890721D01*
X178773000Y-125784270D01*
X178773000Y-125675730D01*
X178794174Y-125569279D01*
X178835709Y-125469005D01*
X178896009Y-125378760D01*
X178896010Y-125378758D01*
X178972758Y-125302010D01*
X179063004Y-125241710D01*
X179063005Y-125241709D01*
X179163279Y-125200174D01*
X179269730Y-125179000D01*
X179378270Y-125179000D01*
X179484721Y-125200174D01*
X179484721Y-125200174D01*
G37*
G36*
X202488000Y-125122000D02*
G01*
X200356000Y-125122000D01*
X200356000Y-123290000D01*
X202488000Y-123290000D01*
X202488000Y-125122000D01*
X202488000Y-125122000D01*
G37*
G36*
X225223294Y-122542633D02*
G01*
X225395695Y-122594931D01*
X225554583Y-122679858D01*
X225693849Y-122794151D01*
X225808142Y-122933417D01*
X225893069Y-123092305D01*
X225945367Y-123264706D01*
X225963025Y-123444000D01*
X225945367Y-123623294D01*
X225893069Y-123795695D01*
X225808142Y-123954583D01*
X225693849Y-124093849D01*
X225554583Y-124208142D01*
X225395695Y-124293069D01*
X225223294Y-124345367D01*
X225088931Y-124358600D01*
X224999069Y-124358600D01*
X224864706Y-124345367D01*
X224692305Y-124293069D01*
X224533417Y-124208142D01*
X224394151Y-124093849D01*
X224279858Y-123954583D01*
X224194931Y-123795695D01*
X224142633Y-123623294D01*
X224124975Y-123444000D01*
X224142633Y-123264706D01*
X224194931Y-123092305D01*
X224279858Y-122933417D01*
X224394151Y-122794151D01*
X224533417Y-122679858D01*
X224692305Y-122594931D01*
X224864706Y-122542633D01*
X224999069Y-122529400D01*
X225088931Y-122529400D01*
X225223294Y-122542633D01*
X225223294Y-122542633D01*
G37*
G36*
X227763294Y-122542633D02*
G01*
X227935695Y-122594931D01*
X228094583Y-122679858D01*
X228233849Y-122794151D01*
X228348142Y-122933417D01*
X228433069Y-123092305D01*
X228485367Y-123264706D01*
X228503025Y-123444000D01*
X228485367Y-123623294D01*
X228433069Y-123795695D01*
X228348142Y-123954583D01*
X228233849Y-124093849D01*
X228094583Y-124208142D01*
X227935695Y-124293069D01*
X227763294Y-124345367D01*
X227628931Y-124358600D01*
X227539069Y-124358600D01*
X227404706Y-124345367D01*
X227232305Y-124293069D01*
X227073417Y-124208142D01*
X226934151Y-124093849D01*
X226819858Y-123954583D01*
X226734931Y-123795695D01*
X226682633Y-123623294D01*
X226664975Y-123444000D01*
X226682633Y-123264706D01*
X226734931Y-123092305D01*
X226819858Y-122933417D01*
X226934151Y-122794151D01*
X227073417Y-122679858D01*
X227232305Y-122594931D01*
X227404706Y-122542633D01*
X227539069Y-122529400D01*
X227628931Y-122529400D01*
X227763294Y-122542633D01*
X227763294Y-122542633D01*
G37*
G36*
X144053635Y-118357654D02*
G01*
X144270600Y-118423470D01*
X144270602Y-118423471D01*
X144470555Y-118530347D01*
X144645818Y-118674182D01*
X144789653Y-118849445D01*
X144891762Y-119040479D01*
X144896530Y-119049400D01*
X144926387Y-119147825D01*
X144962346Y-119266366D01*
X144979000Y-119435455D01*
X144979000Y-120848545D01*
X144969006Y-120950011D01*
X144962346Y-121017635D01*
X144900005Y-121223146D01*
X144896529Y-121234602D01*
X144789653Y-121434555D01*
X144710652Y-121530817D01*
X144645818Y-121609818D01*
X144497204Y-121731781D01*
X144470553Y-121753653D01*
X144270601Y-121860529D01*
X144270599Y-121860530D01*
X144053634Y-121926346D01*
X143828000Y-121948569D01*
X143602365Y-121926346D01*
X143385400Y-121860530D01*
X143385398Y-121860529D01*
X143185445Y-121753653D01*
X143089183Y-121674652D01*
X143010182Y-121609818D01*
X142866348Y-121434554D01*
X142840186Y-121385608D01*
X142764238Y-121243520D01*
X142750625Y-121223146D01*
X142733298Y-121205819D01*
X142712923Y-121192205D01*
X142690285Y-121182827D01*
X142666251Y-121178047D01*
X142641747Y-121178047D01*
X142617714Y-121182827D01*
X142595075Y-121192205D01*
X142574701Y-121205818D01*
X142557374Y-121223145D01*
X142543760Y-121243520D01*
X142534382Y-121266158D01*
X142529602Y-121290192D01*
X142529000Y-121302444D01*
X142529000Y-121443000D01*
X140927000Y-121443000D01*
X140927000Y-118841000D01*
X142529000Y-118841000D01*
X142529000Y-118981555D01*
X142531402Y-119005941D01*
X142538515Y-119029390D01*
X142550066Y-119051001D01*
X142565611Y-119069943D01*
X142584553Y-119085488D01*
X142606164Y-119097039D01*
X142629613Y-119104152D01*
X142653999Y-119106554D01*
X142678385Y-119104152D01*
X142701834Y-119097039D01*
X142723445Y-119085488D01*
X142742387Y-119069943D01*
X142764238Y-119040479D01*
X142866348Y-118849446D01*
X143010183Y-118674182D01*
X143185446Y-118530347D01*
X143385399Y-118423471D01*
X143385401Y-118423470D01*
X143602366Y-118357654D01*
X143828000Y-118335431D01*
X144053635Y-118357654D01*
X144053635Y-118357654D01*
G37*
G36*
X135853635Y-118357654D02*
G01*
X136070600Y-118423470D01*
X136070602Y-118423471D01*
X136270555Y-118530347D01*
X136445818Y-118674182D01*
X136589653Y-118849445D01*
X136691762Y-119040479D01*
X136696530Y-119049400D01*
X136726387Y-119147825D01*
X136762986Y-119268475D01*
X136766908Y-119288196D01*
X136776284Y-119310835D01*
X136789897Y-119331210D01*
X136807223Y-119348538D01*
X136827597Y-119362153D01*
X136850236Y-119371531D01*
X136874269Y-119376313D01*
X136898773Y-119376314D01*
X136922806Y-119371534D01*
X136945445Y-119362158D01*
X136965820Y-119348545D01*
X136983148Y-119331219D01*
X136996765Y-119310841D01*
X137058772Y-119194835D01*
X137158868Y-119072867D01*
X137280836Y-118972771D01*
X137419988Y-118898392D01*
X137483929Y-118878996D01*
X137570978Y-118852590D01*
X137728000Y-118837125D01*
X137885023Y-118852590D01*
X137972072Y-118878996D01*
X138036013Y-118898392D01*
X138175165Y-118972771D01*
X138297133Y-119072867D01*
X138397229Y-119194835D01*
X138471608Y-119333987D01*
X138484447Y-119376313D01*
X138517410Y-119484977D01*
X138529000Y-119602655D01*
X138529000Y-120681345D01*
X138517410Y-120799023D01*
X138486875Y-120899682D01*
X138471608Y-120950013D01*
X138459235Y-120973161D01*
X138397229Y-121089165D01*
X138297133Y-121211133D01*
X138200798Y-121290192D01*
X138175164Y-121311229D01*
X138036012Y-121385608D01*
X137985681Y-121400875D01*
X137885022Y-121431410D01*
X137728000Y-121446875D01*
X137570977Y-121431410D01*
X137470318Y-121400875D01*
X137419987Y-121385608D01*
X137280835Y-121311229D01*
X137225916Y-121266158D01*
X137158867Y-121211133D01*
X137058771Y-121089164D01*
X137020537Y-121017633D01*
X136996765Y-120973160D01*
X136983151Y-120952786D01*
X136965824Y-120935459D01*
X136945450Y-120921845D01*
X136922811Y-120912468D01*
X136898777Y-120907688D01*
X136874273Y-120907688D01*
X136850240Y-120912469D01*
X136827601Y-120921846D01*
X136807227Y-120935460D01*
X136789900Y-120952787D01*
X136776286Y-120973161D01*
X136766909Y-120995800D01*
X136762988Y-121015517D01*
X136762346Y-121017633D01*
X136762346Y-121017635D01*
X136696530Y-121234599D01*
X136696529Y-121234602D01*
X136589653Y-121434555D01*
X136510652Y-121530817D01*
X136445818Y-121609818D01*
X136297204Y-121731781D01*
X136270553Y-121753653D01*
X136070601Y-121860529D01*
X136070599Y-121860530D01*
X135853634Y-121926346D01*
X135628000Y-121948569D01*
X135402365Y-121926346D01*
X135185400Y-121860530D01*
X135185398Y-121860529D01*
X134985445Y-121753653D01*
X134889183Y-121674652D01*
X134810182Y-121609818D01*
X134666348Y-121434554D01*
X134640186Y-121385608D01*
X134559471Y-121234601D01*
X134555996Y-121223145D01*
X134493654Y-121017634D01*
X134485561Y-120935460D01*
X134477000Y-120848544D01*
X134477000Y-119435455D01*
X134493654Y-119266366D01*
X134529613Y-119147825D01*
X134559470Y-119049400D01*
X134600429Y-118972771D01*
X134666348Y-118849446D01*
X134810183Y-118674182D01*
X134985446Y-118530347D01*
X135185399Y-118423471D01*
X135185401Y-118423470D01*
X135402366Y-118357654D01*
X135628000Y-118335431D01*
X135853635Y-118357654D01*
X135853635Y-118357654D01*
G37*
G36*
X139885023Y-118852590D02*
G01*
X139972072Y-118878996D01*
X140036013Y-118898392D01*
X140175165Y-118972771D01*
X140297133Y-119072867D01*
X140397229Y-119194835D01*
X140471608Y-119333987D01*
X140484447Y-119376313D01*
X140517410Y-119484977D01*
X140529000Y-119602655D01*
X140529000Y-120681345D01*
X140517410Y-120799023D01*
X140486875Y-120899682D01*
X140471608Y-120950013D01*
X140459235Y-120973161D01*
X140397229Y-121089165D01*
X140297133Y-121211133D01*
X140200798Y-121290192D01*
X140175164Y-121311229D01*
X140036012Y-121385608D01*
X139985681Y-121400875D01*
X139885022Y-121431410D01*
X139728000Y-121446875D01*
X139570977Y-121431410D01*
X139470318Y-121400875D01*
X139419987Y-121385608D01*
X139280835Y-121311229D01*
X139225916Y-121266158D01*
X139158867Y-121211133D01*
X139058771Y-121089164D01*
X139020537Y-121017633D01*
X138984392Y-120950012D01*
X138953613Y-120848545D01*
X138938590Y-120799022D01*
X138927000Y-120681344D01*
X138927001Y-119602655D01*
X138938591Y-119484977D01*
X138971554Y-119376313D01*
X138984393Y-119333987D01*
X139058772Y-119194835D01*
X139158868Y-119072867D01*
X139280836Y-118972771D01*
X139419988Y-118898392D01*
X139483929Y-118878996D01*
X139570978Y-118852590D01*
X139728000Y-118837125D01*
X139885023Y-118852590D01*
X139885023Y-118852590D01*
G37*
G36*
X179230721Y-118088174D02*
G01*
X179330995Y-118129709D01*
X179330996Y-118129710D01*
X179421242Y-118190010D01*
X179497990Y-118266758D01*
X179497991Y-118266760D01*
X179558291Y-118357005D01*
X179599826Y-118457279D01*
X179621000Y-118563730D01*
X179621000Y-118672270D01*
X179599826Y-118778721D01*
X179558291Y-118878995D01*
X179558290Y-118878996D01*
X179497990Y-118969242D01*
X179421242Y-119045990D01*
X179381017Y-119072867D01*
X179330995Y-119106291D01*
X179230721Y-119147826D01*
X179124270Y-119169000D01*
X179015730Y-119169000D01*
X178909279Y-119147826D01*
X178809005Y-119106291D01*
X178758983Y-119072867D01*
X178718758Y-119045990D01*
X178642010Y-118969242D01*
X178581710Y-118878996D01*
X178581709Y-118878995D01*
X178540174Y-118778721D01*
X178519000Y-118672270D01*
X178519000Y-118563730D01*
X178540174Y-118457279D01*
X178581709Y-118357005D01*
X178642009Y-118266760D01*
X178642010Y-118266758D01*
X178718758Y-118190010D01*
X178809004Y-118129710D01*
X178809005Y-118129709D01*
X178909279Y-118088174D01*
X179015730Y-118067000D01*
X179124270Y-118067000D01*
X179230721Y-118088174D01*
X179230721Y-118088174D01*
G37*
G36*
X187866721Y-118088174D02*
G01*
X187966995Y-118129709D01*
X187966996Y-118129710D01*
X188057242Y-118190010D01*
X188133990Y-118266758D01*
X188133991Y-118266760D01*
X188194291Y-118357005D01*
X188235826Y-118457279D01*
X188257000Y-118563730D01*
X188257000Y-118672270D01*
X188235826Y-118778721D01*
X188194291Y-118878995D01*
X188194290Y-118878996D01*
X188133990Y-118969242D01*
X188057242Y-119045990D01*
X188017017Y-119072867D01*
X187966995Y-119106291D01*
X187866721Y-119147826D01*
X187760270Y-119169000D01*
X187651730Y-119169000D01*
X187545279Y-119147826D01*
X187445005Y-119106291D01*
X187394983Y-119072867D01*
X187354758Y-119045990D01*
X187278010Y-118969242D01*
X187217710Y-118878996D01*
X187217709Y-118878995D01*
X187176174Y-118778721D01*
X187155000Y-118672270D01*
X187155000Y-118563730D01*
X187176174Y-118457279D01*
X187217709Y-118357005D01*
X187278009Y-118266760D01*
X187278010Y-118266758D01*
X187354758Y-118190010D01*
X187445004Y-118129710D01*
X187445005Y-118129709D01*
X187545279Y-118088174D01*
X187651730Y-118067000D01*
X187760270Y-118067000D01*
X187866721Y-118088174D01*
X187866721Y-118088174D01*
G37*
G36*
X187866721Y-115040174D02*
G01*
X187966995Y-115081709D01*
X187966996Y-115081710D01*
X188057242Y-115142010D01*
X188133990Y-115218758D01*
X188133991Y-115218760D01*
X188194291Y-115309005D01*
X188235826Y-115409279D01*
X188257000Y-115515730D01*
X188257000Y-115624270D01*
X188235826Y-115730721D01*
X188194291Y-115830995D01*
X188194290Y-115830996D01*
X188133990Y-115921242D01*
X188057242Y-115997990D01*
X188011812Y-116028345D01*
X187966995Y-116058291D01*
X187866721Y-116099826D01*
X187760270Y-116121000D01*
X187651730Y-116121000D01*
X187545279Y-116099826D01*
X187445005Y-116058291D01*
X187400188Y-116028345D01*
X187354758Y-115997990D01*
X187278010Y-115921242D01*
X187217710Y-115830996D01*
X187217709Y-115830995D01*
X187176174Y-115730721D01*
X187155000Y-115624270D01*
X187155000Y-115515730D01*
X187176174Y-115409279D01*
X187217709Y-115309005D01*
X187278009Y-115218760D01*
X187278010Y-115218758D01*
X187354758Y-115142010D01*
X187445004Y-115081710D01*
X187445005Y-115081709D01*
X187545279Y-115040174D01*
X187651730Y-115019000D01*
X187760270Y-115019000D01*
X187866721Y-115040174D01*
X187866721Y-115040174D01*
G37*
G36*
X179230721Y-115040174D02*
G01*
X179330995Y-115081709D01*
X179330996Y-115081710D01*
X179421242Y-115142010D01*
X179497990Y-115218758D01*
X179497991Y-115218760D01*
X179558291Y-115309005D01*
X179599826Y-115409279D01*
X179621000Y-115515730D01*
X179621000Y-115624270D01*
X179599826Y-115730721D01*
X179558291Y-115830995D01*
X179558290Y-115830996D01*
X179497990Y-115921242D01*
X179421242Y-115997990D01*
X179375812Y-116028345D01*
X179330995Y-116058291D01*
X179230721Y-116099826D01*
X179124270Y-116121000D01*
X179015730Y-116121000D01*
X178909279Y-116099826D01*
X178809005Y-116058291D01*
X178764188Y-116028345D01*
X178718758Y-115997990D01*
X178642010Y-115921242D01*
X178581710Y-115830996D01*
X178581709Y-115830995D01*
X178540174Y-115730721D01*
X178519000Y-115624270D01*
X178519000Y-115515730D01*
X178540174Y-115409279D01*
X178581709Y-115309005D01*
X178642009Y-115218760D01*
X178642010Y-115218758D01*
X178718758Y-115142010D01*
X178809004Y-115081710D01*
X178809005Y-115081709D01*
X178909279Y-115040174D01*
X179015730Y-115019000D01*
X179124270Y-115019000D01*
X179230721Y-115040174D01*
X179230721Y-115040174D01*
G37*
G36*
X201732343Y-112379361D02*
G01*
X201751568Y-112381254D01*
X201924234Y-112433632D01*
X202083365Y-112518689D01*
X202222844Y-112633156D01*
X202337311Y-112772635D01*
X202422368Y-112931766D01*
X202474746Y-113104433D01*
X202492432Y-113284000D01*
X202478705Y-113423366D01*
X202474746Y-113463568D01*
X202422368Y-113636234D01*
X202337311Y-113795365D01*
X202222844Y-113934844D01*
X202083365Y-114049311D01*
X201924234Y-114134368D01*
X201837900Y-114160557D01*
X201751568Y-114186746D01*
X201732343Y-114188639D01*
X201616998Y-114200000D01*
X201227002Y-114200000D01*
X201111657Y-114188639D01*
X201092432Y-114186746D01*
X201006100Y-114160557D01*
X200919766Y-114134368D01*
X200760635Y-114049311D01*
X200621156Y-113934844D01*
X200506689Y-113795365D01*
X200421632Y-113636234D01*
X200369254Y-113463568D01*
X200365295Y-113423366D01*
X200351568Y-113284000D01*
X200369254Y-113104433D01*
X200421632Y-112931766D01*
X200506689Y-112772635D01*
X200621156Y-112633156D01*
X200760635Y-112518689D01*
X200919766Y-112433632D01*
X201092432Y-112381254D01*
X201111657Y-112379361D01*
X201227002Y-112368000D01*
X201616998Y-112368000D01*
X201732343Y-112379361D01*
X201732343Y-112379361D01*
G37*
G36*
X193200721Y-113008174D02*
G01*
X193300995Y-113049709D01*
X193300996Y-113049710D01*
X193391242Y-113110010D01*
X193467990Y-113186758D01*
X193467991Y-113186760D01*
X193528291Y-113277005D01*
X193569826Y-113377279D01*
X193591000Y-113483730D01*
X193591000Y-113592270D01*
X193569826Y-113698721D01*
X193528291Y-113798995D01*
X193528290Y-113798996D01*
X193467990Y-113889242D01*
X193391242Y-113965990D01*
X193345812Y-113996345D01*
X193300995Y-114026291D01*
X193200721Y-114067826D01*
X193094270Y-114089000D01*
X192985730Y-114089000D01*
X192879279Y-114067826D01*
X192779005Y-114026291D01*
X192734188Y-113996345D01*
X192688758Y-113965990D01*
X192612010Y-113889242D01*
X192551710Y-113798996D01*
X192551709Y-113798995D01*
X192510174Y-113698721D01*
X192489000Y-113592270D01*
X192489000Y-113483730D01*
X192510174Y-113377279D01*
X192551709Y-113277005D01*
X192612009Y-113186760D01*
X192612010Y-113186758D01*
X192688758Y-113110010D01*
X192779004Y-113049710D01*
X192779005Y-113049709D01*
X192879279Y-113008174D01*
X192985730Y-112987000D01*
X193094270Y-112987000D01*
X193200721Y-113008174D01*
X193200721Y-113008174D01*
G37*
G36*
X190406721Y-113008174D02*
G01*
X190506995Y-113049709D01*
X190506996Y-113049710D01*
X190597242Y-113110010D01*
X190673990Y-113186758D01*
X190673991Y-113186760D01*
X190734291Y-113277005D01*
X190775826Y-113377279D01*
X190797000Y-113483730D01*
X190797000Y-113592270D01*
X190775826Y-113698721D01*
X190734291Y-113798995D01*
X190734290Y-113798996D01*
X190673990Y-113889242D01*
X190597242Y-113965990D01*
X190551812Y-113996345D01*
X190506995Y-114026291D01*
X190406721Y-114067826D01*
X190300270Y-114089000D01*
X190191730Y-114089000D01*
X190085279Y-114067826D01*
X189985005Y-114026291D01*
X189940188Y-113996345D01*
X189894758Y-113965990D01*
X189818010Y-113889242D01*
X189757710Y-113798996D01*
X189757709Y-113798995D01*
X189716174Y-113698721D01*
X189695000Y-113592270D01*
X189695000Y-113483730D01*
X189716174Y-113377279D01*
X189757709Y-113277005D01*
X189818009Y-113186760D01*
X189818010Y-113186758D01*
X189894758Y-113110010D01*
X189985004Y-113049710D01*
X189985005Y-113049709D01*
X190085279Y-113008174D01*
X190191730Y-112987000D01*
X190300270Y-112987000D01*
X190406721Y-113008174D01*
X190406721Y-113008174D01*
G37*
G36*
X185072721Y-113008174D02*
G01*
X185172995Y-113049709D01*
X185172996Y-113049710D01*
X185263242Y-113110010D01*
X185339990Y-113186758D01*
X185339991Y-113186760D01*
X185400291Y-113277005D01*
X185441826Y-113377279D01*
X185463000Y-113483730D01*
X185463000Y-113592270D01*
X185441826Y-113698721D01*
X185400291Y-113798995D01*
X185400290Y-113798996D01*
X185339990Y-113889242D01*
X185263242Y-113965990D01*
X185217812Y-113996345D01*
X185172995Y-114026291D01*
X185072721Y-114067826D01*
X184966270Y-114089000D01*
X184857730Y-114089000D01*
X184751279Y-114067826D01*
X184651005Y-114026291D01*
X184606188Y-113996345D01*
X184560758Y-113965990D01*
X184484010Y-113889242D01*
X184423710Y-113798996D01*
X184423709Y-113798995D01*
X184382174Y-113698721D01*
X184361000Y-113592270D01*
X184361000Y-113483730D01*
X184382174Y-113377279D01*
X184423709Y-113277005D01*
X184484009Y-113186760D01*
X184484010Y-113186758D01*
X184560758Y-113110010D01*
X184651004Y-113049710D01*
X184651005Y-113049709D01*
X184751279Y-113008174D01*
X184857730Y-112987000D01*
X184966270Y-112987000D01*
X185072721Y-113008174D01*
X185072721Y-113008174D01*
G37*
G36*
X182278721Y-113008174D02*
G01*
X182378995Y-113049709D01*
X182378996Y-113049710D01*
X182469242Y-113110010D01*
X182545990Y-113186758D01*
X182545991Y-113186760D01*
X182606291Y-113277005D01*
X182647826Y-113377279D01*
X182669000Y-113483730D01*
X182669000Y-113592270D01*
X182647826Y-113698721D01*
X182606291Y-113798995D01*
X182606290Y-113798996D01*
X182545990Y-113889242D01*
X182469242Y-113965990D01*
X182423812Y-113996345D01*
X182378995Y-114026291D01*
X182278721Y-114067826D01*
X182172270Y-114089000D01*
X182063730Y-114089000D01*
X181957279Y-114067826D01*
X181857005Y-114026291D01*
X181812188Y-113996345D01*
X181766758Y-113965990D01*
X181690010Y-113889242D01*
X181629710Y-113798996D01*
X181629709Y-113798995D01*
X181588174Y-113698721D01*
X181567000Y-113592270D01*
X181567000Y-113483730D01*
X181588174Y-113377279D01*
X181629709Y-113277005D01*
X181690009Y-113186760D01*
X181690010Y-113186758D01*
X181766758Y-113110010D01*
X181857004Y-113049710D01*
X181857005Y-113049709D01*
X181957279Y-113008174D01*
X182063730Y-112987000D01*
X182172270Y-112987000D01*
X182278721Y-113008174D01*
X182278721Y-113008174D01*
G37*
G36*
X228498600Y-113436600D02*
G01*
X226669400Y-113436600D01*
X226669400Y-111607400D01*
X228498600Y-111607400D01*
X228498600Y-113436600D01*
X228498600Y-113436600D01*
G37*
G36*
X225223294Y-111620633D02*
G01*
X225395695Y-111672931D01*
X225554583Y-111757858D01*
X225693849Y-111872151D01*
X225808142Y-112011417D01*
X225893069Y-112170305D01*
X225945367Y-112342706D01*
X225963025Y-112522000D01*
X225945367Y-112701294D01*
X225893069Y-112873695D01*
X225808142Y-113032583D01*
X225693849Y-113171849D01*
X225554583Y-113286142D01*
X225395695Y-113371069D01*
X225223294Y-113423367D01*
X225088931Y-113436600D01*
X224999069Y-113436600D01*
X224864706Y-113423367D01*
X224692305Y-113371069D01*
X224533417Y-113286142D01*
X224394151Y-113171849D01*
X224279858Y-113032583D01*
X224194931Y-112873695D01*
X224142633Y-112701294D01*
X224124975Y-112522000D01*
X224142633Y-112342706D01*
X224194931Y-112170305D01*
X224279858Y-112011417D01*
X224394151Y-111872151D01*
X224533417Y-111757858D01*
X224692305Y-111672931D01*
X224864706Y-111620633D01*
X224999069Y-111607400D01*
X225088931Y-111607400D01*
X225223294Y-111620633D01*
X225223294Y-111620633D01*
G37*
G36*
X137948894Y-110249033D02*
G01*
X138121295Y-110301331D01*
X138280183Y-110386258D01*
X138419449Y-110500551D01*
X138533742Y-110639817D01*
X138618669Y-110798705D01*
X138670967Y-110971106D01*
X138688625Y-111150400D01*
X138670967Y-111329694D01*
X138618669Y-111502095D01*
X138533742Y-111660983D01*
X138419449Y-111800249D01*
X138280183Y-111914542D01*
X138121295Y-111999469D01*
X137948894Y-112051767D01*
X137814531Y-112065000D01*
X137724669Y-112065000D01*
X137590306Y-112051767D01*
X137417905Y-111999469D01*
X137259017Y-111914542D01*
X137119751Y-111800249D01*
X137005458Y-111660983D01*
X136920531Y-111502095D01*
X136868233Y-111329694D01*
X136850575Y-111150400D01*
X136868233Y-110971106D01*
X136920531Y-110798705D01*
X137005458Y-110639817D01*
X137119751Y-110500551D01*
X137259017Y-110386258D01*
X137417905Y-110301331D01*
X137590306Y-110249033D01*
X137724669Y-110235800D01*
X137814531Y-110235800D01*
X137948894Y-110249033D01*
X137948894Y-110249033D01*
G37*
G36*
X141224200Y-112065000D02*
G01*
X139395000Y-112065000D01*
X139395000Y-110235800D01*
X141224200Y-110235800D01*
X141224200Y-112065000D01*
X141224200Y-112065000D01*
G37*
G36*
X201732343Y-109839361D02*
G01*
X201751568Y-109841254D01*
X201837900Y-109867443D01*
X201924234Y-109893632D01*
X202083365Y-109978689D01*
X202222844Y-110093156D01*
X202337311Y-110232635D01*
X202422368Y-110391766D01*
X202474746Y-110564433D01*
X202492432Y-110744000D01*
X202474746Y-110923567D01*
X202422368Y-111096234D01*
X202337311Y-111255365D01*
X202222844Y-111394844D01*
X202083365Y-111509311D01*
X201924234Y-111594368D01*
X201881273Y-111607400D01*
X201751568Y-111646746D01*
X201732343Y-111648639D01*
X201616998Y-111660000D01*
X201227002Y-111660000D01*
X201111657Y-111648639D01*
X201092432Y-111646746D01*
X200962727Y-111607400D01*
X200919766Y-111594368D01*
X200760635Y-111509311D01*
X200621156Y-111394844D01*
X200506689Y-111255365D01*
X200421632Y-111096234D01*
X200369254Y-110923567D01*
X200351568Y-110744000D01*
X200369254Y-110564433D01*
X200421632Y-110391766D01*
X200506689Y-110232635D01*
X200621156Y-110093156D01*
X200760635Y-109978689D01*
X200919766Y-109893632D01*
X201006100Y-109867443D01*
X201092432Y-109841254D01*
X201111657Y-109839361D01*
X201227002Y-109828000D01*
X201616998Y-109828000D01*
X201732343Y-109839361D01*
X201732343Y-109839361D01*
G37*
G36*
X203718601Y-110158397D02*
G01*
X203757305Y-110166096D01*
X203789340Y-110179365D01*
X203866680Y-110211400D01*
X203965115Y-110277173D01*
X204048827Y-110360885D01*
X204114600Y-110459320D01*
X204131678Y-110500551D01*
X204158139Y-110564433D01*
X204159904Y-110568696D01*
X204183000Y-110684805D01*
X204183000Y-110803195D01*
X204177455Y-110831069D01*
X204159904Y-110919305D01*
X204158138Y-110923568D01*
X204114600Y-111028680D01*
X204048827Y-111127115D01*
X203965115Y-111210827D01*
X203866680Y-111276600D01*
X203789340Y-111308635D01*
X203757305Y-111321904D01*
X203718601Y-111329603D01*
X203641195Y-111345000D01*
X203522805Y-111345000D01*
X203445399Y-111329603D01*
X203406695Y-111321904D01*
X203374660Y-111308635D01*
X203297320Y-111276600D01*
X203198885Y-111210827D01*
X203115173Y-111127115D01*
X203049400Y-111028680D01*
X203005862Y-110923568D01*
X203004096Y-110919305D01*
X202986545Y-110831069D01*
X202981000Y-110803195D01*
X202981000Y-110684805D01*
X203004096Y-110568696D01*
X203005862Y-110564433D01*
X203032322Y-110500551D01*
X203049400Y-110459320D01*
X203115173Y-110360885D01*
X203198885Y-110277173D01*
X203297320Y-110211400D01*
X203374660Y-110179365D01*
X203406695Y-110166096D01*
X203445399Y-110158397D01*
X203522805Y-110143000D01*
X203641195Y-110143000D01*
X203718601Y-110158397D01*
X203718601Y-110158397D01*
G37*
G36*
X227763294Y-109080633D02*
G01*
X227935695Y-109132931D01*
X228094583Y-109217858D01*
X228233849Y-109332151D01*
X228348142Y-109471417D01*
X228433069Y-109630305D01*
X228485367Y-109802706D01*
X228503025Y-109982000D01*
X228485367Y-110161294D01*
X228433069Y-110333695D01*
X228348142Y-110492583D01*
X228233849Y-110631849D01*
X228094583Y-110746142D01*
X227935695Y-110831069D01*
X227763294Y-110883367D01*
X227628931Y-110896600D01*
X227539069Y-110896600D01*
X227404706Y-110883367D01*
X227232305Y-110831069D01*
X227073417Y-110746142D01*
X226934151Y-110631849D01*
X226819858Y-110492583D01*
X226734931Y-110333695D01*
X226682633Y-110161294D01*
X226664975Y-109982000D01*
X226682633Y-109802706D01*
X226734931Y-109630305D01*
X226819858Y-109471417D01*
X226934151Y-109332151D01*
X227073417Y-109217858D01*
X227232305Y-109132931D01*
X227404706Y-109080633D01*
X227539069Y-109067400D01*
X227628931Y-109067400D01*
X227763294Y-109080633D01*
X227763294Y-109080633D01*
G37*
G36*
X225223294Y-109080633D02*
G01*
X225395695Y-109132931D01*
X225554583Y-109217858D01*
X225693849Y-109332151D01*
X225808142Y-109471417D01*
X225893069Y-109630305D01*
X225945367Y-109802706D01*
X225963025Y-109982000D01*
X225945367Y-110161294D01*
X225893069Y-110333695D01*
X225808142Y-110492583D01*
X225693849Y-110631849D01*
X225554583Y-110746142D01*
X225395695Y-110831069D01*
X225223294Y-110883367D01*
X225088931Y-110896600D01*
X224999069Y-110896600D01*
X224864706Y-110883367D01*
X224692305Y-110831069D01*
X224533417Y-110746142D01*
X224394151Y-110631849D01*
X224279858Y-110492583D01*
X224194931Y-110333695D01*
X224142633Y-110161294D01*
X224124975Y-109982000D01*
X224142633Y-109802706D01*
X224194931Y-109630305D01*
X224279858Y-109471417D01*
X224394151Y-109332151D01*
X224533417Y-109217858D01*
X224692305Y-109132931D01*
X224864706Y-109080633D01*
X224999069Y-109067400D01*
X225088931Y-109067400D01*
X225223294Y-109080633D01*
X225223294Y-109080633D01*
G37*
G36*
X140488894Y-107709033D02*
G01*
X140661295Y-107761331D01*
X140820183Y-107846258D01*
X140959449Y-107960551D01*
X141073742Y-108099817D01*
X141158669Y-108258705D01*
X141210967Y-108431106D01*
X141228625Y-108610400D01*
X141210967Y-108789694D01*
X141158669Y-108962095D01*
X141073742Y-109120983D01*
X140959449Y-109260249D01*
X140820183Y-109374542D01*
X140661295Y-109459469D01*
X140488894Y-109511767D01*
X140354531Y-109525000D01*
X140264669Y-109525000D01*
X140130306Y-109511767D01*
X139957905Y-109459469D01*
X139799017Y-109374542D01*
X139659751Y-109260249D01*
X139545458Y-109120983D01*
X139460531Y-108962095D01*
X139408233Y-108789694D01*
X139390575Y-108610400D01*
X139408233Y-108431106D01*
X139460531Y-108258705D01*
X139545458Y-108099817D01*
X139659751Y-107960551D01*
X139799017Y-107846258D01*
X139957905Y-107761331D01*
X140130306Y-107709033D01*
X140264669Y-107695800D01*
X140354531Y-107695800D01*
X140488894Y-107709033D01*
X140488894Y-107709033D01*
G37*
G36*
X137948894Y-107709033D02*
G01*
X138121295Y-107761331D01*
X138280183Y-107846258D01*
X138419449Y-107960551D01*
X138533742Y-108099817D01*
X138618669Y-108258705D01*
X138670967Y-108431106D01*
X138688625Y-108610400D01*
X138670967Y-108789694D01*
X138618669Y-108962095D01*
X138533742Y-109120983D01*
X138419449Y-109260249D01*
X138280183Y-109374542D01*
X138121295Y-109459469D01*
X137948894Y-109511767D01*
X137814531Y-109525000D01*
X137724669Y-109525000D01*
X137590306Y-109511767D01*
X137417905Y-109459469D01*
X137259017Y-109374542D01*
X137119751Y-109260249D01*
X137005458Y-109120983D01*
X136920531Y-108962095D01*
X136868233Y-108789694D01*
X136850575Y-108610400D01*
X136868233Y-108431106D01*
X136920531Y-108258705D01*
X137005458Y-108099817D01*
X137119751Y-107960551D01*
X137259017Y-107846258D01*
X137417905Y-107761331D01*
X137590306Y-107709033D01*
X137724669Y-107695800D01*
X137814531Y-107695800D01*
X137948894Y-107709033D01*
X137948894Y-107709033D01*
G37*
G36*
X201732343Y-107299361D02*
G01*
X201751568Y-107301254D01*
X201924234Y-107353632D01*
X202083365Y-107438689D01*
X202222844Y-107553156D01*
X202337311Y-107692635D01*
X202422368Y-107851766D01*
X202474746Y-108024433D01*
X202492432Y-108204000D01*
X202474746Y-108383567D01*
X202422368Y-108556234D01*
X202337311Y-108715365D01*
X202222844Y-108854844D01*
X202083365Y-108969311D01*
X201924234Y-109054368D01*
X201881273Y-109067400D01*
X201751568Y-109106746D01*
X201732343Y-109108639D01*
X201616998Y-109120000D01*
X201227002Y-109120000D01*
X201111657Y-109108639D01*
X201092432Y-109106746D01*
X200962727Y-109067400D01*
X200919766Y-109054368D01*
X200760635Y-108969311D01*
X200621156Y-108854844D01*
X200506689Y-108715365D01*
X200421632Y-108556234D01*
X200369254Y-108383567D01*
X200351568Y-108204000D01*
X200369254Y-108024433D01*
X200421632Y-107851766D01*
X200506689Y-107692635D01*
X200621156Y-107553156D01*
X200760635Y-107438689D01*
X200919766Y-107353632D01*
X201092432Y-107301254D01*
X201111657Y-107299361D01*
X201227002Y-107288000D01*
X201616998Y-107288000D01*
X201732343Y-107299361D01*
X201732343Y-107299361D01*
G37*
G36*
X227763294Y-106540633D02*
G01*
X227935695Y-106592931D01*
X228094583Y-106677858D01*
X228233849Y-106792151D01*
X228348142Y-106931417D01*
X228433069Y-107090305D01*
X228485367Y-107262706D01*
X228503025Y-107442000D01*
X228485367Y-107621294D01*
X228433069Y-107793695D01*
X228348142Y-107952583D01*
X228233849Y-108091849D01*
X228094583Y-108206142D01*
X227935695Y-108291069D01*
X227763294Y-108343367D01*
X227628931Y-108356600D01*
X227539069Y-108356600D01*
X227404706Y-108343367D01*
X227232305Y-108291069D01*
X227073417Y-108206142D01*
X226934151Y-108091849D01*
X226819858Y-107952583D01*
X226734931Y-107793695D01*
X226682633Y-107621294D01*
X226664975Y-107442000D01*
X226682633Y-107262706D01*
X226734931Y-107090305D01*
X226819858Y-106931417D01*
X226934151Y-106792151D01*
X227073417Y-106677858D01*
X227232305Y-106592931D01*
X227404706Y-106540633D01*
X227539069Y-106527400D01*
X227628931Y-106527400D01*
X227763294Y-106540633D01*
X227763294Y-106540633D01*
G37*
G36*
X225223294Y-106540633D02*
G01*
X225395695Y-106592931D01*
X225554583Y-106677858D01*
X225693849Y-106792151D01*
X225808142Y-106931417D01*
X225893069Y-107090305D01*
X225945367Y-107262706D01*
X225963025Y-107442000D01*
X225945367Y-107621294D01*
X225893069Y-107793695D01*
X225808142Y-107952583D01*
X225693849Y-108091849D01*
X225554583Y-108206142D01*
X225395695Y-108291069D01*
X225223294Y-108343367D01*
X225088931Y-108356600D01*
X224999069Y-108356600D01*
X224864706Y-108343367D01*
X224692305Y-108291069D01*
X224533417Y-108206142D01*
X224394151Y-108091849D01*
X224279858Y-107952583D01*
X224194931Y-107793695D01*
X224142633Y-107621294D01*
X224124975Y-107442000D01*
X224142633Y-107262706D01*
X224194931Y-107090305D01*
X224279858Y-106931417D01*
X224394151Y-106792151D01*
X224533417Y-106677858D01*
X224692305Y-106592931D01*
X224864706Y-106540633D01*
X224999069Y-106527400D01*
X225088931Y-106527400D01*
X225223294Y-106540633D01*
X225223294Y-106540633D01*
G37*
G36*
X140488894Y-105169033D02*
G01*
X140661295Y-105221331D01*
X140820183Y-105306258D01*
X140959449Y-105420551D01*
X141073742Y-105559817D01*
X141158669Y-105718705D01*
X141210967Y-105891106D01*
X141228625Y-106070400D01*
X141210967Y-106249694D01*
X141158669Y-106422095D01*
X141073742Y-106580983D01*
X140959449Y-106720249D01*
X140820183Y-106834542D01*
X140661295Y-106919469D01*
X140488894Y-106971767D01*
X140354531Y-106985000D01*
X140264669Y-106985000D01*
X140130306Y-106971767D01*
X139957905Y-106919469D01*
X139799017Y-106834542D01*
X139659751Y-106720249D01*
X139545458Y-106580983D01*
X139460531Y-106422095D01*
X139408233Y-106249694D01*
X139390575Y-106070400D01*
X139408233Y-105891106D01*
X139460531Y-105718705D01*
X139545458Y-105559817D01*
X139659751Y-105420551D01*
X139799017Y-105306258D01*
X139957905Y-105221331D01*
X140130306Y-105169033D01*
X140264669Y-105155800D01*
X140354531Y-105155800D01*
X140488894Y-105169033D01*
X140488894Y-105169033D01*
G37*
G36*
X137948894Y-105169033D02*
G01*
X138121295Y-105221331D01*
X138280183Y-105306258D01*
X138419449Y-105420551D01*
X138533742Y-105559817D01*
X138618669Y-105718705D01*
X138670967Y-105891106D01*
X138688625Y-106070400D01*
X138670967Y-106249694D01*
X138618669Y-106422095D01*
X138533742Y-106580983D01*
X138419449Y-106720249D01*
X138280183Y-106834542D01*
X138121295Y-106919469D01*
X137948894Y-106971767D01*
X137814531Y-106985000D01*
X137724669Y-106985000D01*
X137590306Y-106971767D01*
X137417905Y-106919469D01*
X137259017Y-106834542D01*
X137119751Y-106720249D01*
X137005458Y-106580983D01*
X136920531Y-106422095D01*
X136868233Y-106249694D01*
X136850575Y-106070400D01*
X136868233Y-105891106D01*
X136920531Y-105718705D01*
X137005458Y-105559817D01*
X137119751Y-105420551D01*
X137259017Y-105306258D01*
X137417905Y-105221331D01*
X137590306Y-105169033D01*
X137724669Y-105155800D01*
X137814531Y-105155800D01*
X137948894Y-105169033D01*
X137948894Y-105169033D01*
G37*
G36*
X202488000Y-106580000D02*
G01*
X200356000Y-106580000D01*
X200356000Y-104748000D01*
X202488000Y-104748000D01*
X202488000Y-106580000D01*
X202488000Y-106580000D01*
G37*
G36*
X225223294Y-104000633D02*
G01*
X225395695Y-104052931D01*
X225554583Y-104137858D01*
X225693849Y-104252151D01*
X225808142Y-104391417D01*
X225893069Y-104550305D01*
X225945367Y-104722706D01*
X225963025Y-104902000D01*
X225945367Y-105081294D01*
X225893069Y-105253695D01*
X225808142Y-105412583D01*
X225693849Y-105551849D01*
X225554583Y-105666142D01*
X225395695Y-105751069D01*
X225223294Y-105803367D01*
X225088931Y-105816600D01*
X224999069Y-105816600D01*
X224864706Y-105803367D01*
X224692305Y-105751069D01*
X224533417Y-105666142D01*
X224394151Y-105551849D01*
X224279858Y-105412583D01*
X224194931Y-105253695D01*
X224142633Y-105081294D01*
X224124975Y-104902000D01*
X224142633Y-104722706D01*
X224194931Y-104550305D01*
X224279858Y-104391417D01*
X224394151Y-104252151D01*
X224533417Y-104137858D01*
X224692305Y-104052931D01*
X224864706Y-104000633D01*
X224999069Y-103987400D01*
X225088931Y-103987400D01*
X225223294Y-104000633D01*
X225223294Y-104000633D01*
G37*
G36*
X227763294Y-104000633D02*
G01*
X227935695Y-104052931D01*
X228094583Y-104137858D01*
X228233849Y-104252151D01*
X228348142Y-104391417D01*
X228433069Y-104550305D01*
X228485367Y-104722706D01*
X228503025Y-104902000D01*
X228485367Y-105081294D01*
X228433069Y-105253695D01*
X228348142Y-105412583D01*
X228233849Y-105551849D01*
X228094583Y-105666142D01*
X227935695Y-105751069D01*
X227763294Y-105803367D01*
X227628931Y-105816600D01*
X227539069Y-105816600D01*
X227404706Y-105803367D01*
X227232305Y-105751069D01*
X227073417Y-105666142D01*
X226934151Y-105551849D01*
X226819858Y-105412583D01*
X226734931Y-105253695D01*
X226682633Y-105081294D01*
X226664975Y-104902000D01*
X226682633Y-104722706D01*
X226734931Y-104550305D01*
X226819858Y-104391417D01*
X226934151Y-104252151D01*
X227073417Y-104137858D01*
X227232305Y-104052931D01*
X227404706Y-104000633D01*
X227539069Y-103987400D01*
X227628931Y-103987400D01*
X227763294Y-104000633D01*
X227763294Y-104000633D01*
G37*
G36*
X137948894Y-102629033D02*
G01*
X138121295Y-102681331D01*
X138280183Y-102766258D01*
X138419449Y-102880551D01*
X138533742Y-103019817D01*
X138618669Y-103178705D01*
X138670967Y-103351106D01*
X138688625Y-103530400D01*
X138670967Y-103709694D01*
X138618669Y-103882095D01*
X138533742Y-104040983D01*
X138419449Y-104180249D01*
X138280183Y-104294542D01*
X138121295Y-104379469D01*
X137948894Y-104431767D01*
X137814531Y-104445000D01*
X137724669Y-104445000D01*
X137590306Y-104431767D01*
X137417905Y-104379469D01*
X137259017Y-104294542D01*
X137119751Y-104180249D01*
X137005458Y-104040983D01*
X136920531Y-103882095D01*
X136868233Y-103709694D01*
X136850575Y-103530400D01*
X136868233Y-103351106D01*
X136920531Y-103178705D01*
X137005458Y-103019817D01*
X137119751Y-102880551D01*
X137259017Y-102766258D01*
X137417905Y-102681331D01*
X137590306Y-102629033D01*
X137724669Y-102615800D01*
X137814531Y-102615800D01*
X137948894Y-102629033D01*
X137948894Y-102629033D01*
G37*
G36*
X140488894Y-102629033D02*
G01*
X140661295Y-102681331D01*
X140820183Y-102766258D01*
X140959449Y-102880551D01*
X141073742Y-103019817D01*
X141158669Y-103178705D01*
X141210967Y-103351106D01*
X141228625Y-103530400D01*
X141210967Y-103709694D01*
X141158669Y-103882095D01*
X141073742Y-104040983D01*
X140959449Y-104180249D01*
X140820183Y-104294542D01*
X140661295Y-104379469D01*
X140488894Y-104431767D01*
X140354531Y-104445000D01*
X140264669Y-104445000D01*
X140130306Y-104431767D01*
X139957905Y-104379469D01*
X139799017Y-104294542D01*
X139659751Y-104180249D01*
X139545458Y-104040983D01*
X139460531Y-103882095D01*
X139408233Y-103709694D01*
X139390575Y-103530400D01*
X139408233Y-103351106D01*
X139460531Y-103178705D01*
X139545458Y-103019817D01*
X139659751Y-102880551D01*
X139799017Y-102766258D01*
X139957905Y-102681331D01*
X140130306Y-102629033D01*
X140264669Y-102615800D01*
X140354531Y-102615800D01*
X140488894Y-102629033D01*
X140488894Y-102629033D01*
G37*
G36*
X140488894Y-100089033D02*
G01*
X140661295Y-100141331D01*
X140820183Y-100226258D01*
X140959449Y-100340551D01*
X141073742Y-100479817D01*
X141158669Y-100638705D01*
X141210967Y-100811106D01*
X141228625Y-100990400D01*
X141210967Y-101169694D01*
X141158669Y-101342095D01*
X141073742Y-101500983D01*
X140959449Y-101640249D01*
X140820183Y-101754542D01*
X140661295Y-101839469D01*
X140488894Y-101891767D01*
X140354531Y-101905000D01*
X140264669Y-101905000D01*
X140130306Y-101891767D01*
X139957905Y-101839469D01*
X139799017Y-101754542D01*
X139659751Y-101640249D01*
X139545458Y-101500983D01*
X139460531Y-101342095D01*
X139408233Y-101169694D01*
X139390575Y-100990400D01*
X139408233Y-100811106D01*
X139460531Y-100638705D01*
X139545458Y-100479817D01*
X139659751Y-100340551D01*
X139799017Y-100226258D01*
X139957905Y-100141331D01*
X140130306Y-100089033D01*
X140264669Y-100075800D01*
X140354531Y-100075800D01*
X140488894Y-100089033D01*
X140488894Y-100089033D01*
G37*
G36*
X137948894Y-100089033D02*
G01*
X138121295Y-100141331D01*
X138280183Y-100226258D01*
X138419449Y-100340551D01*
X138533742Y-100479817D01*
X138618669Y-100638705D01*
X138670967Y-100811106D01*
X138688625Y-100990400D01*
X138670967Y-101169694D01*
X138618669Y-101342095D01*
X138533742Y-101500983D01*
X138419449Y-101640249D01*
X138280183Y-101754542D01*
X138121295Y-101839469D01*
X137948894Y-101891767D01*
X137814531Y-101905000D01*
X137724669Y-101905000D01*
X137590306Y-101891767D01*
X137417905Y-101839469D01*
X137259017Y-101754542D01*
X137119751Y-101640249D01*
X137005458Y-101500983D01*
X136920531Y-101342095D01*
X136868233Y-101169694D01*
X136850575Y-100990400D01*
X136868233Y-100811106D01*
X136920531Y-100638705D01*
X137005458Y-100479817D01*
X137119751Y-100340551D01*
X137259017Y-100226258D01*
X137417905Y-100141331D01*
X137590306Y-100089033D01*
X137724669Y-100075800D01*
X137814531Y-100075800D01*
X137948894Y-100089033D01*
X137948894Y-100089033D01*
G37*
G36*
X137948894Y-97549033D02*
G01*
X138121295Y-97601331D01*
X138280183Y-97686258D01*
X138419449Y-97800551D01*
X138533742Y-97939817D01*
X138618669Y-98098705D01*
X138670967Y-98271106D01*
X138688625Y-98450400D01*
X138670967Y-98629694D01*
X138618669Y-98802095D01*
X138533742Y-98960983D01*
X138419449Y-99100249D01*
X138280183Y-99214542D01*
X138121295Y-99299469D01*
X137948894Y-99351767D01*
X137814531Y-99365000D01*
X137724669Y-99365000D01*
X137590306Y-99351767D01*
X137417905Y-99299469D01*
X137259017Y-99214542D01*
X137119751Y-99100249D01*
X137005458Y-98960983D01*
X136920531Y-98802095D01*
X136868233Y-98629694D01*
X136850575Y-98450400D01*
X136868233Y-98271106D01*
X136920531Y-98098705D01*
X137005458Y-97939817D01*
X137119751Y-97800551D01*
X137259017Y-97686258D01*
X137417905Y-97601331D01*
X137590306Y-97549033D01*
X137724669Y-97535800D01*
X137814531Y-97535800D01*
X137948894Y-97549033D01*
X137948894Y-97549033D01*
G37*
G36*
X140488894Y-97549033D02*
G01*
X140661295Y-97601331D01*
X140820183Y-97686258D01*
X140959449Y-97800551D01*
X141073742Y-97939817D01*
X141158669Y-98098705D01*
X141210967Y-98271106D01*
X141228625Y-98450400D01*
X141210967Y-98629694D01*
X141158669Y-98802095D01*
X141073742Y-98960983D01*
X140959449Y-99100249D01*
X140820183Y-99214542D01*
X140661295Y-99299469D01*
X140488894Y-99351767D01*
X140354531Y-99365000D01*
X140264669Y-99365000D01*
X140130306Y-99351767D01*
X139957905Y-99299469D01*
X139799017Y-99214542D01*
X139659751Y-99100249D01*
X139545458Y-98960983D01*
X139460531Y-98802095D01*
X139408233Y-98629694D01*
X139390575Y-98450400D01*
X139408233Y-98271106D01*
X139460531Y-98098705D01*
X139545458Y-97939817D01*
X139659751Y-97800551D01*
X139799017Y-97686258D01*
X139957905Y-97601331D01*
X140130306Y-97549033D01*
X140264669Y-97535800D01*
X140354531Y-97535800D01*
X140488894Y-97549033D01*
X140488894Y-97549033D01*
G37*
G36*
X184522213Y-96030249D02*
G01*
X184616652Y-96058897D01*
X184703687Y-96105418D01*
X184779975Y-96168025D01*
X184842582Y-96244313D01*
X184889103Y-96331348D01*
X184917751Y-96425787D01*
X184923606Y-96485234D01*
X184928385Y-96509258D01*
X184937762Y-96531897D01*
X184951376Y-96552271D01*
X184968703Y-96569598D01*
X184989077Y-96583211D01*
X185011716Y-96592589D01*
X185035749Y-96597369D01*
X185060253Y-96597369D01*
X185084287Y-96592588D01*
X185106926Y-96583211D01*
X185127300Y-96569597D01*
X185144627Y-96552270D01*
X185158240Y-96531896D01*
X185167618Y-96509257D01*
X185173000Y-96472972D01*
X185173000Y-96217140D01*
X185177205Y-96174440D01*
X185187869Y-96139287D01*
X185205186Y-96106890D01*
X185228491Y-96078491D01*
X185256890Y-96055186D01*
X185289287Y-96037869D01*
X185324440Y-96027205D01*
X185367140Y-96023000D01*
X185980860Y-96023000D01*
X186023560Y-96027205D01*
X186058713Y-96037869D01*
X186091110Y-96055186D01*
X186119509Y-96078491D01*
X186142814Y-96106890D01*
X186160131Y-96139287D01*
X186170795Y-96174440D01*
X186175000Y-96217140D01*
X186175000Y-97330860D01*
X186170795Y-97373560D01*
X186160131Y-97408713D01*
X186142814Y-97441110D01*
X186119509Y-97469509D01*
X186091110Y-97492814D01*
X186058713Y-97510131D01*
X186023560Y-97520795D01*
X185980860Y-97525000D01*
X185367140Y-97525000D01*
X185324440Y-97520795D01*
X185289287Y-97510131D01*
X185256890Y-97492814D01*
X185228491Y-97469509D01*
X185205186Y-97441110D01*
X185187869Y-97408713D01*
X185177205Y-97373560D01*
X185173000Y-97330860D01*
X185173000Y-97075028D01*
X185170598Y-97050642D01*
X185163485Y-97027193D01*
X185151934Y-97005582D01*
X185136389Y-96986640D01*
X185117447Y-96971095D01*
X185095836Y-96959544D01*
X185072387Y-96952431D01*
X185048001Y-96950029D01*
X185023615Y-96952431D01*
X185000166Y-96959544D01*
X184978555Y-96971095D01*
X184959613Y-96986640D01*
X184944068Y-97005582D01*
X184932517Y-97027193D01*
X184923606Y-97062770D01*
X184917751Y-97122213D01*
X184889103Y-97216652D01*
X184842582Y-97303687D01*
X184779975Y-97379975D01*
X184703687Y-97442582D01*
X184616651Y-97489103D01*
X184522212Y-97517751D01*
X184424000Y-97527424D01*
X184325787Y-97517751D01*
X184231348Y-97489103D01*
X184144313Y-97442582D01*
X184068025Y-97379975D01*
X184005418Y-97303687D01*
X183958897Y-97216651D01*
X183930249Y-97122212D01*
X183923395Y-97052622D01*
X183918616Y-97028599D01*
X183909239Y-97005960D01*
X183895625Y-96985586D01*
X183878298Y-96968259D01*
X183857924Y-96954645D01*
X183835285Y-96945268D01*
X183811252Y-96940488D01*
X183786747Y-96940488D01*
X183762714Y-96945269D01*
X183740075Y-96954646D01*
X183719701Y-96968260D01*
X183702374Y-96985587D01*
X183688760Y-97005961D01*
X183679383Y-97028600D01*
X183674605Y-97052623D01*
X183667751Y-97122213D01*
X183639103Y-97216652D01*
X183592582Y-97303687D01*
X183529975Y-97379975D01*
X183453687Y-97442582D01*
X183366651Y-97489103D01*
X183272212Y-97517751D01*
X183174000Y-97527424D01*
X183075787Y-97517751D01*
X182981348Y-97489103D01*
X182894313Y-97442582D01*
X182818025Y-97379975D01*
X182755418Y-97303687D01*
X182708897Y-97216651D01*
X182680249Y-97122212D01*
X182673000Y-97048611D01*
X182673000Y-96499398D01*
X182680250Y-96425789D01*
X182680250Y-96425787D01*
X182708898Y-96331348D01*
X182755419Y-96244313D01*
X182818026Y-96168025D01*
X182894314Y-96105418D01*
X182981349Y-96058897D01*
X183075788Y-96030249D01*
X183174000Y-96020576D01*
X183272213Y-96030249D01*
X183366652Y-96058897D01*
X183453687Y-96105418D01*
X183529975Y-96168025D01*
X183592582Y-96244313D01*
X183639103Y-96331348D01*
X183667751Y-96425787D01*
X183674605Y-96495377D01*
X183679384Y-96519400D01*
X183688761Y-96542039D01*
X183702375Y-96562413D01*
X183719702Y-96579740D01*
X183740076Y-96593354D01*
X183762715Y-96602731D01*
X183786748Y-96607511D01*
X183811253Y-96607511D01*
X183835286Y-96602730D01*
X183857925Y-96593353D01*
X183878299Y-96579739D01*
X183895626Y-96562412D01*
X183909240Y-96542038D01*
X183918617Y-96519399D01*
X183923397Y-96495367D01*
X183930250Y-96425789D01*
X183930250Y-96425787D01*
X183958898Y-96331348D01*
X184005419Y-96244313D01*
X184068026Y-96168025D01*
X184144314Y-96105418D01*
X184231349Y-96058897D01*
X184325788Y-96030249D01*
X184424000Y-96020576D01*
X184522213Y-96030249D01*
X184522213Y-96030249D01*
G37*
G36*
X190872213Y-96030249D02*
G01*
X190966652Y-96058897D01*
X191053687Y-96105418D01*
X191129975Y-96168025D01*
X191192582Y-96244313D01*
X191239103Y-96331348D01*
X191267751Y-96425787D01*
X191273606Y-96485234D01*
X191278385Y-96509258D01*
X191287762Y-96531897D01*
X191301376Y-96552271D01*
X191318703Y-96569598D01*
X191339077Y-96583211D01*
X191361716Y-96592589D01*
X191385749Y-96597369D01*
X191410253Y-96597369D01*
X191434287Y-96592588D01*
X191456926Y-96583211D01*
X191477300Y-96569597D01*
X191494627Y-96552270D01*
X191508240Y-96531896D01*
X191517618Y-96509257D01*
X191523000Y-96472972D01*
X191523000Y-96217140D01*
X191527205Y-96174440D01*
X191537869Y-96139287D01*
X191555186Y-96106890D01*
X191578491Y-96078491D01*
X191606890Y-96055186D01*
X191639287Y-96037869D01*
X191674440Y-96027205D01*
X191717140Y-96023000D01*
X192330860Y-96023000D01*
X192373560Y-96027205D01*
X192408713Y-96037869D01*
X192441110Y-96055186D01*
X192469509Y-96078491D01*
X192492814Y-96106890D01*
X192510131Y-96139287D01*
X192520795Y-96174440D01*
X192525000Y-96217140D01*
X192525000Y-97330860D01*
X192520795Y-97373560D01*
X192510131Y-97408713D01*
X192492814Y-97441110D01*
X192469509Y-97469509D01*
X192441110Y-97492814D01*
X192408713Y-97510131D01*
X192373560Y-97520795D01*
X192330860Y-97525000D01*
X191717140Y-97525000D01*
X191674440Y-97520795D01*
X191639287Y-97510131D01*
X191606890Y-97492814D01*
X191578491Y-97469509D01*
X191555186Y-97441110D01*
X191537869Y-97408713D01*
X191527205Y-97373560D01*
X191523000Y-97330860D01*
X191523000Y-97075028D01*
X191520598Y-97050642D01*
X191513485Y-97027193D01*
X191501934Y-97005582D01*
X191486389Y-96986640D01*
X191467447Y-96971095D01*
X191445836Y-96959544D01*
X191422387Y-96952431D01*
X191398001Y-96950029D01*
X191373615Y-96952431D01*
X191350166Y-96959544D01*
X191328555Y-96971095D01*
X191309613Y-96986640D01*
X191294068Y-97005582D01*
X191282517Y-97027193D01*
X191273606Y-97062770D01*
X191267751Y-97122213D01*
X191239103Y-97216652D01*
X191192582Y-97303687D01*
X191129975Y-97379975D01*
X191053687Y-97442582D01*
X190966651Y-97489103D01*
X190872212Y-97517751D01*
X190774000Y-97527424D01*
X190675787Y-97517751D01*
X190581348Y-97489103D01*
X190494313Y-97442582D01*
X190418025Y-97379975D01*
X190355418Y-97303687D01*
X190308897Y-97216651D01*
X190280249Y-97122212D01*
X190273395Y-97052622D01*
X190268616Y-97028599D01*
X190259239Y-97005960D01*
X190245625Y-96985586D01*
X190228298Y-96968259D01*
X190207924Y-96954645D01*
X190185285Y-96945268D01*
X190161252Y-96940488D01*
X190136747Y-96940488D01*
X190112714Y-96945269D01*
X190090075Y-96954646D01*
X190069701Y-96968260D01*
X190052374Y-96985587D01*
X190038760Y-97005961D01*
X190029383Y-97028600D01*
X190024605Y-97052623D01*
X190017751Y-97122213D01*
X189989103Y-97216652D01*
X189942582Y-97303687D01*
X189879975Y-97379975D01*
X189803687Y-97442582D01*
X189716651Y-97489103D01*
X189622212Y-97517751D01*
X189524000Y-97527424D01*
X189425787Y-97517751D01*
X189331348Y-97489103D01*
X189244313Y-97442582D01*
X189168025Y-97379975D01*
X189105418Y-97303687D01*
X189058897Y-97216651D01*
X189030249Y-97122212D01*
X189023000Y-97048611D01*
X189023000Y-96499398D01*
X189030250Y-96425789D01*
X189030250Y-96425787D01*
X189058898Y-96331348D01*
X189105419Y-96244313D01*
X189168026Y-96168025D01*
X189244314Y-96105418D01*
X189331349Y-96058897D01*
X189425788Y-96030249D01*
X189524000Y-96020576D01*
X189622213Y-96030249D01*
X189716652Y-96058897D01*
X189803687Y-96105418D01*
X189879975Y-96168025D01*
X189942582Y-96244313D01*
X189989103Y-96331348D01*
X190017751Y-96425787D01*
X190024605Y-96495377D01*
X190029384Y-96519400D01*
X190038761Y-96542039D01*
X190052375Y-96562413D01*
X190069702Y-96579740D01*
X190090076Y-96593354D01*
X190112715Y-96602731D01*
X190136748Y-96607511D01*
X190161253Y-96607511D01*
X190185286Y-96602730D01*
X190207925Y-96593353D01*
X190228299Y-96579739D01*
X190245626Y-96562412D01*
X190259240Y-96542038D01*
X190268617Y-96519399D01*
X190273397Y-96495367D01*
X190280250Y-96425789D01*
X190280250Y-96425787D01*
X190308898Y-96331348D01*
X190355419Y-96244313D01*
X190418026Y-96168025D01*
X190494314Y-96105418D01*
X190581349Y-96058897D01*
X190675788Y-96030249D01*
X190774000Y-96020576D01*
X190872213Y-96030249D01*
X190872213Y-96030249D01*
G37*
G36*
X178172213Y-96030249D02*
G01*
X178266652Y-96058897D01*
X178353687Y-96105418D01*
X178429975Y-96168025D01*
X178492582Y-96244313D01*
X178539103Y-96331348D01*
X178567751Y-96425787D01*
X178573606Y-96485234D01*
X178578385Y-96509258D01*
X178587762Y-96531897D01*
X178601376Y-96552271D01*
X178618703Y-96569598D01*
X178639077Y-96583211D01*
X178661716Y-96592589D01*
X178685749Y-96597369D01*
X178710253Y-96597369D01*
X178734287Y-96592588D01*
X178756926Y-96583211D01*
X178777300Y-96569597D01*
X178794627Y-96552270D01*
X178808240Y-96531896D01*
X178817618Y-96509257D01*
X178823000Y-96472972D01*
X178823000Y-96217140D01*
X178827205Y-96174440D01*
X178837869Y-96139287D01*
X178855186Y-96106890D01*
X178878491Y-96078491D01*
X178906890Y-96055186D01*
X178939287Y-96037869D01*
X178974440Y-96027205D01*
X179017140Y-96023000D01*
X179630860Y-96023000D01*
X179673560Y-96027205D01*
X179708713Y-96037869D01*
X179741110Y-96055186D01*
X179769509Y-96078491D01*
X179792814Y-96106890D01*
X179810131Y-96139287D01*
X179820795Y-96174440D01*
X179825000Y-96217140D01*
X179825000Y-97330860D01*
X179820795Y-97373560D01*
X179810131Y-97408713D01*
X179792814Y-97441110D01*
X179769509Y-97469509D01*
X179741110Y-97492814D01*
X179708713Y-97510131D01*
X179673560Y-97520795D01*
X179630860Y-97525000D01*
X179017140Y-97525000D01*
X178974440Y-97520795D01*
X178939287Y-97510131D01*
X178906890Y-97492814D01*
X178878491Y-97469509D01*
X178855186Y-97441110D01*
X178837869Y-97408713D01*
X178827205Y-97373560D01*
X178823000Y-97330860D01*
X178823000Y-97075028D01*
X178820598Y-97050642D01*
X178813485Y-97027193D01*
X178801934Y-97005582D01*
X178786389Y-96986640D01*
X178767447Y-96971095D01*
X178745836Y-96959544D01*
X178722387Y-96952431D01*
X178698001Y-96950029D01*
X178673615Y-96952431D01*
X178650166Y-96959544D01*
X178628555Y-96971095D01*
X178609613Y-96986640D01*
X178594068Y-97005582D01*
X178582517Y-97027193D01*
X178573606Y-97062770D01*
X178567751Y-97122213D01*
X178539103Y-97216652D01*
X178492582Y-97303687D01*
X178429975Y-97379975D01*
X178353687Y-97442582D01*
X178266651Y-97489103D01*
X178172212Y-97517751D01*
X178074000Y-97527424D01*
X177975787Y-97517751D01*
X177881348Y-97489103D01*
X177794313Y-97442582D01*
X177718025Y-97379975D01*
X177655418Y-97303687D01*
X177608897Y-97216651D01*
X177580249Y-97122212D01*
X177573395Y-97052622D01*
X177568616Y-97028599D01*
X177559239Y-97005960D01*
X177545625Y-96985586D01*
X177528298Y-96968259D01*
X177507924Y-96954645D01*
X177485285Y-96945268D01*
X177461252Y-96940488D01*
X177436747Y-96940488D01*
X177412714Y-96945269D01*
X177390075Y-96954646D01*
X177369701Y-96968260D01*
X177352374Y-96985587D01*
X177338760Y-97005961D01*
X177329383Y-97028600D01*
X177324605Y-97052623D01*
X177317751Y-97122213D01*
X177289103Y-97216652D01*
X177242582Y-97303687D01*
X177179975Y-97379975D01*
X177103687Y-97442582D01*
X177016651Y-97489103D01*
X176922212Y-97517751D01*
X176824000Y-97527424D01*
X176725787Y-97517751D01*
X176631348Y-97489103D01*
X176544313Y-97442582D01*
X176468025Y-97379975D01*
X176405418Y-97303687D01*
X176358897Y-97216651D01*
X176330249Y-97122212D01*
X176323000Y-97048611D01*
X176323000Y-96499398D01*
X176330250Y-96425789D01*
X176330250Y-96425787D01*
X176358898Y-96331348D01*
X176405419Y-96244313D01*
X176468026Y-96168025D01*
X176544314Y-96105418D01*
X176631349Y-96058897D01*
X176725788Y-96030249D01*
X176824000Y-96020576D01*
X176922213Y-96030249D01*
X177016652Y-96058897D01*
X177103687Y-96105418D01*
X177179975Y-96168025D01*
X177242582Y-96244313D01*
X177289103Y-96331348D01*
X177317751Y-96425787D01*
X177324605Y-96495377D01*
X177329384Y-96519400D01*
X177338761Y-96542039D01*
X177352375Y-96562413D01*
X177369702Y-96579740D01*
X177390076Y-96593354D01*
X177412715Y-96602731D01*
X177436748Y-96607511D01*
X177461253Y-96607511D01*
X177485286Y-96602730D01*
X177507925Y-96593353D01*
X177528299Y-96579739D01*
X177545626Y-96562412D01*
X177559240Y-96542038D01*
X177568617Y-96519399D01*
X177573397Y-96495367D01*
X177580250Y-96425789D01*
X177580250Y-96425787D01*
X177608898Y-96331348D01*
X177655419Y-96244313D01*
X177718026Y-96168025D01*
X177794314Y-96105418D01*
X177881349Y-96058897D01*
X177975788Y-96030249D01*
X178074000Y-96020576D01*
X178172213Y-96030249D01*
X178172213Y-96030249D01*
G37*
G36*
X140488894Y-95009033D02*
G01*
X140661295Y-95061331D01*
X140820183Y-95146258D01*
X140959449Y-95260551D01*
X141073742Y-95399817D01*
X141158669Y-95558705D01*
X141210967Y-95731106D01*
X141228625Y-95910400D01*
X141210967Y-96089694D01*
X141158669Y-96262095D01*
X141073742Y-96420983D01*
X140959449Y-96560249D01*
X140820183Y-96674542D01*
X140661295Y-96759469D01*
X140488894Y-96811767D01*
X140354531Y-96825000D01*
X140264669Y-96825000D01*
X140130306Y-96811767D01*
X139957905Y-96759469D01*
X139799017Y-96674542D01*
X139659751Y-96560249D01*
X139545458Y-96420983D01*
X139460531Y-96262095D01*
X139408233Y-96089694D01*
X139390575Y-95910400D01*
X139408233Y-95731106D01*
X139460531Y-95558705D01*
X139545458Y-95399817D01*
X139659751Y-95260551D01*
X139799017Y-95146258D01*
X139957905Y-95061331D01*
X140130306Y-95009033D01*
X140264669Y-94995800D01*
X140354531Y-94995800D01*
X140488894Y-95009033D01*
X140488894Y-95009033D01*
G37*
G36*
X137948894Y-95009033D02*
G01*
X138121295Y-95061331D01*
X138280183Y-95146258D01*
X138419449Y-95260551D01*
X138533742Y-95399817D01*
X138618669Y-95558705D01*
X138670967Y-95731106D01*
X138688625Y-95910400D01*
X138670967Y-96089694D01*
X138618669Y-96262095D01*
X138533742Y-96420983D01*
X138419449Y-96560249D01*
X138280183Y-96674542D01*
X138121295Y-96759469D01*
X137948894Y-96811767D01*
X137814531Y-96825000D01*
X137724669Y-96825000D01*
X137590306Y-96811767D01*
X137417905Y-96759469D01*
X137259017Y-96674542D01*
X137119751Y-96560249D01*
X137005458Y-96420983D01*
X136920531Y-96262095D01*
X136868233Y-96089694D01*
X136850575Y-95910400D01*
X136868233Y-95731106D01*
X136920531Y-95558705D01*
X137005458Y-95399817D01*
X137119751Y-95260551D01*
X137259017Y-95146258D01*
X137417905Y-95061331D01*
X137590306Y-95009033D01*
X137724669Y-94995800D01*
X137814531Y-94995800D01*
X137948894Y-95009033D01*
X137948894Y-95009033D01*
G37*
G36*
X201732343Y-93837361D02*
G01*
X201751568Y-93839254D01*
X201924234Y-93891632D01*
X202083365Y-93976689D01*
X202222844Y-94091156D01*
X202337311Y-94230635D01*
X202422368Y-94389766D01*
X202474746Y-94562433D01*
X202492432Y-94742000D01*
X202474746Y-94921567D01*
X202422368Y-95094234D01*
X202337311Y-95253365D01*
X202222844Y-95392844D01*
X202083365Y-95507311D01*
X201924234Y-95592368D01*
X201837900Y-95618557D01*
X201751568Y-95644746D01*
X201732343Y-95646639D01*
X201616998Y-95658000D01*
X201227002Y-95658000D01*
X201111657Y-95646639D01*
X201092432Y-95644746D01*
X201006100Y-95618557D01*
X200919766Y-95592368D01*
X200760635Y-95507311D01*
X200621156Y-95392844D01*
X200506689Y-95253365D01*
X200421632Y-95094234D01*
X200369254Y-94921567D01*
X200351568Y-94742000D01*
X200369254Y-94562433D01*
X200421632Y-94389766D01*
X200506689Y-94230635D01*
X200621156Y-94091156D01*
X200760635Y-93976689D01*
X200919766Y-93891632D01*
X201092432Y-93839254D01*
X201111657Y-93837361D01*
X201227002Y-93826000D01*
X201616998Y-93826000D01*
X201732343Y-93837361D01*
X201732343Y-93837361D01*
G37*
G36*
X228498600Y-94894600D02*
G01*
X226669400Y-94894600D01*
X226669400Y-93065400D01*
X228498600Y-93065400D01*
X228498600Y-94894600D01*
X228498600Y-94894600D01*
G37*
G36*
X225223294Y-93078633D02*
G01*
X225395695Y-93130931D01*
X225554583Y-93215858D01*
X225693849Y-93330151D01*
X225808142Y-93469417D01*
X225893069Y-93628305D01*
X225945367Y-93800706D01*
X225963025Y-93980000D01*
X225945367Y-94159294D01*
X225893069Y-94331695D01*
X225808142Y-94490583D01*
X225693849Y-94629849D01*
X225554583Y-94744142D01*
X225395695Y-94829069D01*
X225223294Y-94881367D01*
X225088931Y-94894600D01*
X224999069Y-94894600D01*
X224864706Y-94881367D01*
X224692305Y-94829069D01*
X224533417Y-94744142D01*
X224394151Y-94629849D01*
X224279858Y-94490583D01*
X224194931Y-94331695D01*
X224142633Y-94159294D01*
X224124975Y-93980000D01*
X224142633Y-93800706D01*
X224194931Y-93628305D01*
X224279858Y-93469417D01*
X224394151Y-93330151D01*
X224533417Y-93215858D01*
X224692305Y-93130931D01*
X224864706Y-93078633D01*
X224999069Y-93065400D01*
X225088931Y-93065400D01*
X225223294Y-93078633D01*
X225223294Y-93078633D01*
G37*
G36*
X137948894Y-92469033D02*
G01*
X138121295Y-92521331D01*
X138280183Y-92606258D01*
X138419449Y-92720551D01*
X138533742Y-92859817D01*
X138618669Y-93018705D01*
X138670967Y-93191106D01*
X138688625Y-93370400D01*
X138670967Y-93549694D01*
X138618669Y-93722095D01*
X138533742Y-93880983D01*
X138419449Y-94020249D01*
X138280183Y-94134542D01*
X138121295Y-94219469D01*
X137948894Y-94271767D01*
X137814531Y-94285000D01*
X137724669Y-94285000D01*
X137590306Y-94271767D01*
X137417905Y-94219469D01*
X137259017Y-94134542D01*
X137119751Y-94020249D01*
X137005458Y-93880983D01*
X136920531Y-93722095D01*
X136868233Y-93549694D01*
X136850575Y-93370400D01*
X136868233Y-93191106D01*
X136920531Y-93018705D01*
X137005458Y-92859817D01*
X137119751Y-92720551D01*
X137259017Y-92606258D01*
X137417905Y-92521331D01*
X137590306Y-92469033D01*
X137724669Y-92455800D01*
X137814531Y-92455800D01*
X137948894Y-92469033D01*
X137948894Y-92469033D01*
G37*
G36*
X140488894Y-92469033D02*
G01*
X140661295Y-92521331D01*
X140820183Y-92606258D01*
X140959449Y-92720551D01*
X141073742Y-92859817D01*
X141158669Y-93018705D01*
X141210967Y-93191106D01*
X141228625Y-93370400D01*
X141210967Y-93549694D01*
X141158669Y-93722095D01*
X141073742Y-93880983D01*
X140959449Y-94020249D01*
X140820183Y-94134542D01*
X140661295Y-94219469D01*
X140488894Y-94271767D01*
X140354531Y-94285000D01*
X140264669Y-94285000D01*
X140130306Y-94271767D01*
X139957905Y-94219469D01*
X139799017Y-94134542D01*
X139659751Y-94020249D01*
X139545458Y-93880983D01*
X139460531Y-93722095D01*
X139408233Y-93549694D01*
X139390575Y-93370400D01*
X139408233Y-93191106D01*
X139460531Y-93018705D01*
X139545458Y-92859817D01*
X139659751Y-92720551D01*
X139799017Y-92606258D01*
X139957905Y-92521331D01*
X140130306Y-92469033D01*
X140264669Y-92455800D01*
X140354531Y-92455800D01*
X140488894Y-92469033D01*
X140488894Y-92469033D01*
G37*
G36*
X201732343Y-91297361D02*
G01*
X201751568Y-91299254D01*
X201837900Y-91325443D01*
X201924234Y-91351632D01*
X202083365Y-91436689D01*
X202222844Y-91551156D01*
X202337311Y-91690635D01*
X202422368Y-91849766D01*
X202423588Y-91853789D01*
X202474419Y-92021353D01*
X202474746Y-92022433D01*
X202492432Y-92202000D01*
X202483856Y-92289068D01*
X202474746Y-92381568D01*
X202452412Y-92455193D01*
X202422368Y-92554234D01*
X202337311Y-92713365D01*
X202222844Y-92852844D01*
X202083365Y-92967311D01*
X201924234Y-93052368D01*
X201881273Y-93065400D01*
X201751568Y-93104746D01*
X201732343Y-93106639D01*
X201616998Y-93118000D01*
X201227002Y-93118000D01*
X201111657Y-93106639D01*
X201092432Y-93104746D01*
X200962727Y-93065400D01*
X200919766Y-93052368D01*
X200760635Y-92967311D01*
X200621156Y-92852844D01*
X200506689Y-92713365D01*
X200421632Y-92554234D01*
X200391588Y-92455193D01*
X200369254Y-92381568D01*
X200360144Y-92289068D01*
X200351568Y-92202000D01*
X200369254Y-92022433D01*
X200369582Y-92021353D01*
X200420412Y-91853789D01*
X200421632Y-91849766D01*
X200506689Y-91690635D01*
X200621156Y-91551156D01*
X200760635Y-91436689D01*
X200919766Y-91351632D01*
X201006100Y-91325443D01*
X201092432Y-91299254D01*
X201111657Y-91297361D01*
X201227002Y-91286000D01*
X201616998Y-91286000D01*
X201732343Y-91297361D01*
X201732343Y-91297361D01*
G37*
G36*
X184522213Y-91458249D02*
G01*
X184616652Y-91486897D01*
X184703687Y-91533418D01*
X184779975Y-91596025D01*
X184842582Y-91672313D01*
X184889103Y-91759348D01*
X184917751Y-91853787D01*
X184923606Y-91913234D01*
X184928385Y-91937258D01*
X184937762Y-91959897D01*
X184951376Y-91980271D01*
X184968703Y-91997598D01*
X184989077Y-92011211D01*
X185011716Y-92020589D01*
X185035749Y-92025369D01*
X185060253Y-92025369D01*
X185084287Y-92020588D01*
X185106926Y-92011211D01*
X185127300Y-91997597D01*
X185144627Y-91980270D01*
X185158240Y-91959896D01*
X185167618Y-91937257D01*
X185173000Y-91900972D01*
X185173000Y-91645140D01*
X185177205Y-91602440D01*
X185187869Y-91567287D01*
X185205186Y-91534890D01*
X185228491Y-91506491D01*
X185256890Y-91483186D01*
X185289287Y-91465869D01*
X185324440Y-91455205D01*
X185367140Y-91451000D01*
X185980860Y-91451000D01*
X186023560Y-91455205D01*
X186058713Y-91465869D01*
X186091110Y-91483186D01*
X186119509Y-91506491D01*
X186142814Y-91534890D01*
X186160131Y-91567287D01*
X186170795Y-91602440D01*
X186175000Y-91645140D01*
X186175000Y-92758860D01*
X186170795Y-92801560D01*
X186160131Y-92836713D01*
X186142814Y-92869110D01*
X186119509Y-92897509D01*
X186091110Y-92920814D01*
X186058713Y-92938131D01*
X186023560Y-92948795D01*
X185980860Y-92953000D01*
X185367140Y-92953000D01*
X185324440Y-92948795D01*
X185289287Y-92938131D01*
X185256890Y-92920814D01*
X185228491Y-92897509D01*
X185205186Y-92869110D01*
X185187869Y-92836713D01*
X185177205Y-92801560D01*
X185173000Y-92758860D01*
X185173000Y-92503028D01*
X185170598Y-92478642D01*
X185163485Y-92455193D01*
X185151934Y-92433582D01*
X185136389Y-92414640D01*
X185117447Y-92399095D01*
X185095836Y-92387544D01*
X185072387Y-92380431D01*
X185048001Y-92378029D01*
X185023615Y-92380431D01*
X185000166Y-92387544D01*
X184978555Y-92399095D01*
X184959613Y-92414640D01*
X184944068Y-92433582D01*
X184932517Y-92455193D01*
X184923606Y-92490770D01*
X184917751Y-92550213D01*
X184889103Y-92644652D01*
X184842582Y-92731687D01*
X184779975Y-92807975D01*
X184703687Y-92870582D01*
X184616651Y-92917103D01*
X184522212Y-92945751D01*
X184424000Y-92955424D01*
X184325787Y-92945751D01*
X184231348Y-92917103D01*
X184144313Y-92870582D01*
X184068025Y-92807975D01*
X184005418Y-92731687D01*
X183958897Y-92644651D01*
X183930249Y-92550212D01*
X183923395Y-92480622D01*
X183918616Y-92456599D01*
X183909239Y-92433960D01*
X183895625Y-92413586D01*
X183878298Y-92396259D01*
X183857924Y-92382645D01*
X183835285Y-92373268D01*
X183811252Y-92368488D01*
X183786747Y-92368488D01*
X183762714Y-92373269D01*
X183740075Y-92382646D01*
X183719701Y-92396260D01*
X183702374Y-92413587D01*
X183688760Y-92433961D01*
X183679383Y-92456600D01*
X183674605Y-92480623D01*
X183667751Y-92550213D01*
X183639103Y-92644652D01*
X183592582Y-92731687D01*
X183529975Y-92807975D01*
X183453687Y-92870582D01*
X183366651Y-92917103D01*
X183272212Y-92945751D01*
X183174000Y-92955424D01*
X183075787Y-92945751D01*
X182981348Y-92917103D01*
X182894313Y-92870582D01*
X182818025Y-92807975D01*
X182755418Y-92731687D01*
X182708897Y-92644651D01*
X182680249Y-92550212D01*
X182673000Y-92476611D01*
X182673000Y-91927398D01*
X182680250Y-91853789D01*
X182680250Y-91853787D01*
X182708898Y-91759348D01*
X182755419Y-91672313D01*
X182818026Y-91596025D01*
X182894314Y-91533418D01*
X182981349Y-91486897D01*
X183075788Y-91458249D01*
X183174000Y-91448576D01*
X183272213Y-91458249D01*
X183366652Y-91486897D01*
X183453687Y-91533418D01*
X183529975Y-91596025D01*
X183592582Y-91672313D01*
X183639103Y-91759348D01*
X183667751Y-91853787D01*
X183674605Y-91923377D01*
X183679384Y-91947400D01*
X183688761Y-91970039D01*
X183702375Y-91990413D01*
X183719702Y-92007740D01*
X183740076Y-92021354D01*
X183762715Y-92030731D01*
X183786748Y-92035511D01*
X183811253Y-92035511D01*
X183835286Y-92030730D01*
X183857925Y-92021353D01*
X183878299Y-92007739D01*
X183895626Y-91990412D01*
X183909240Y-91970038D01*
X183918617Y-91947399D01*
X183923397Y-91923367D01*
X183930250Y-91853789D01*
X183930250Y-91853787D01*
X183958898Y-91759348D01*
X184005419Y-91672313D01*
X184068026Y-91596025D01*
X184144314Y-91533418D01*
X184231349Y-91486897D01*
X184325788Y-91458249D01*
X184424000Y-91448576D01*
X184522213Y-91458249D01*
X184522213Y-91458249D01*
G37*
G36*
X190872213Y-91458249D02*
G01*
X190966652Y-91486897D01*
X191053687Y-91533418D01*
X191129975Y-91596025D01*
X191192582Y-91672313D01*
X191239103Y-91759348D01*
X191267751Y-91853787D01*
X191273606Y-91913234D01*
X191278385Y-91937258D01*
X191287762Y-91959897D01*
X191301376Y-91980271D01*
X191318703Y-91997598D01*
X191339077Y-92011211D01*
X191361716Y-92020589D01*
X191385749Y-92025369D01*
X191410253Y-92025369D01*
X191434287Y-92020588D01*
X191456926Y-92011211D01*
X191477300Y-91997597D01*
X191494627Y-91980270D01*
X191508240Y-91959896D01*
X191517618Y-91937257D01*
X191523000Y-91900972D01*
X191523000Y-91645140D01*
X191527205Y-91602440D01*
X191537869Y-91567287D01*
X191555186Y-91534890D01*
X191578491Y-91506491D01*
X191606890Y-91483186D01*
X191639287Y-91465869D01*
X191674440Y-91455205D01*
X191717140Y-91451000D01*
X192330860Y-91451000D01*
X192373560Y-91455205D01*
X192408713Y-91465869D01*
X192441110Y-91483186D01*
X192469509Y-91506491D01*
X192492814Y-91534890D01*
X192510131Y-91567287D01*
X192520795Y-91602440D01*
X192525000Y-91645140D01*
X192525000Y-92758860D01*
X192520795Y-92801560D01*
X192510131Y-92836713D01*
X192492814Y-92869110D01*
X192469509Y-92897509D01*
X192441110Y-92920814D01*
X192408713Y-92938131D01*
X192373560Y-92948795D01*
X192330860Y-92953000D01*
X191717140Y-92953000D01*
X191674440Y-92948795D01*
X191639287Y-92938131D01*
X191606890Y-92920814D01*
X191578491Y-92897509D01*
X191555186Y-92869110D01*
X191537869Y-92836713D01*
X191527205Y-92801560D01*
X191523000Y-92758860D01*
X191523000Y-92503028D01*
X191520598Y-92478642D01*
X191513485Y-92455193D01*
X191501934Y-92433582D01*
X191486389Y-92414640D01*
X191467447Y-92399095D01*
X191445836Y-92387544D01*
X191422387Y-92380431D01*
X191398001Y-92378029D01*
X191373615Y-92380431D01*
X191350166Y-92387544D01*
X191328555Y-92399095D01*
X191309613Y-92414640D01*
X191294068Y-92433582D01*
X191282517Y-92455193D01*
X191273606Y-92490770D01*
X191267751Y-92550213D01*
X191239103Y-92644652D01*
X191192582Y-92731687D01*
X191129975Y-92807975D01*
X191053687Y-92870582D01*
X190966651Y-92917103D01*
X190872212Y-92945751D01*
X190774000Y-92955424D01*
X190675787Y-92945751D01*
X190581348Y-92917103D01*
X190494313Y-92870582D01*
X190418025Y-92807975D01*
X190355418Y-92731687D01*
X190308897Y-92644651D01*
X190280249Y-92550212D01*
X190273395Y-92480622D01*
X190268616Y-92456599D01*
X190259239Y-92433960D01*
X190245625Y-92413586D01*
X190228298Y-92396259D01*
X190207924Y-92382645D01*
X190185285Y-92373268D01*
X190161252Y-92368488D01*
X190136747Y-92368488D01*
X190112714Y-92373269D01*
X190090075Y-92382646D01*
X190069701Y-92396260D01*
X190052374Y-92413587D01*
X190038760Y-92433961D01*
X190029383Y-92456600D01*
X190024605Y-92480623D01*
X190017751Y-92550213D01*
X189989103Y-92644652D01*
X189942582Y-92731687D01*
X189879975Y-92807975D01*
X189803687Y-92870582D01*
X189716651Y-92917103D01*
X189622212Y-92945751D01*
X189524000Y-92955424D01*
X189425787Y-92945751D01*
X189331348Y-92917103D01*
X189244313Y-92870582D01*
X189168025Y-92807975D01*
X189105418Y-92731687D01*
X189058897Y-92644651D01*
X189030249Y-92550212D01*
X189023000Y-92476611D01*
X189023000Y-91927398D01*
X189030250Y-91853789D01*
X189030250Y-91853787D01*
X189058898Y-91759348D01*
X189105419Y-91672313D01*
X189168026Y-91596025D01*
X189244314Y-91533418D01*
X189331349Y-91486897D01*
X189425788Y-91458249D01*
X189524000Y-91448576D01*
X189622213Y-91458249D01*
X189716652Y-91486897D01*
X189803687Y-91533418D01*
X189879975Y-91596025D01*
X189942582Y-91672313D01*
X189989103Y-91759348D01*
X190017751Y-91853787D01*
X190024605Y-91923377D01*
X190029384Y-91947400D01*
X190038761Y-91970039D01*
X190052375Y-91990413D01*
X190069702Y-92007740D01*
X190090076Y-92021354D01*
X190112715Y-92030731D01*
X190136748Y-92035511D01*
X190161253Y-92035511D01*
X190185286Y-92030730D01*
X190207925Y-92021353D01*
X190228299Y-92007739D01*
X190245626Y-91990412D01*
X190259240Y-91970038D01*
X190268617Y-91947399D01*
X190273397Y-91923367D01*
X190280250Y-91853789D01*
X190280250Y-91853787D01*
X190308898Y-91759348D01*
X190355419Y-91672313D01*
X190418026Y-91596025D01*
X190494314Y-91533418D01*
X190581349Y-91486897D01*
X190675788Y-91458249D01*
X190774000Y-91448576D01*
X190872213Y-91458249D01*
X190872213Y-91458249D01*
G37*
G36*
X178172213Y-91458249D02*
G01*
X178266652Y-91486897D01*
X178353687Y-91533418D01*
X178429975Y-91596025D01*
X178492582Y-91672313D01*
X178539103Y-91759348D01*
X178567751Y-91853787D01*
X178573606Y-91913234D01*
X178578385Y-91937258D01*
X178587762Y-91959897D01*
X178601376Y-91980271D01*
X178618703Y-91997598D01*
X178639077Y-92011211D01*
X178661716Y-92020589D01*
X178685749Y-92025369D01*
X178710253Y-92025369D01*
X178734287Y-92020588D01*
X178756926Y-92011211D01*
X178777300Y-91997597D01*
X178794627Y-91980270D01*
X178808240Y-91959896D01*
X178817618Y-91937257D01*
X178823000Y-91900972D01*
X178823000Y-91645140D01*
X178827205Y-91602440D01*
X178837869Y-91567287D01*
X178855186Y-91534890D01*
X178878491Y-91506491D01*
X178906890Y-91483186D01*
X178939287Y-91465869D01*
X178974440Y-91455205D01*
X179017140Y-91451000D01*
X179630860Y-91451000D01*
X179673560Y-91455205D01*
X179708713Y-91465869D01*
X179741110Y-91483186D01*
X179769509Y-91506491D01*
X179792814Y-91534890D01*
X179810131Y-91567287D01*
X179820795Y-91602440D01*
X179825000Y-91645140D01*
X179825000Y-92758860D01*
X179820795Y-92801560D01*
X179810131Y-92836713D01*
X179792814Y-92869110D01*
X179769509Y-92897509D01*
X179741110Y-92920814D01*
X179708713Y-92938131D01*
X179673560Y-92948795D01*
X179630860Y-92953000D01*
X179017140Y-92953000D01*
X178974440Y-92948795D01*
X178939287Y-92938131D01*
X178906890Y-92920814D01*
X178878491Y-92897509D01*
X178855186Y-92869110D01*
X178837869Y-92836713D01*
X178827205Y-92801560D01*
X178823000Y-92758860D01*
X178823000Y-92503028D01*
X178820598Y-92478642D01*
X178813485Y-92455193D01*
X178801934Y-92433582D01*
X178786389Y-92414640D01*
X178767447Y-92399095D01*
X178745836Y-92387544D01*
X178722387Y-92380431D01*
X178698001Y-92378029D01*
X178673615Y-92380431D01*
X178650166Y-92387544D01*
X178628555Y-92399095D01*
X178609613Y-92414640D01*
X178594068Y-92433582D01*
X178582517Y-92455193D01*
X178573606Y-92490770D01*
X178567751Y-92550213D01*
X178539103Y-92644652D01*
X178492582Y-92731687D01*
X178429975Y-92807975D01*
X178353687Y-92870582D01*
X178266651Y-92917103D01*
X178172212Y-92945751D01*
X178074000Y-92955424D01*
X177975787Y-92945751D01*
X177881348Y-92917103D01*
X177794313Y-92870582D01*
X177718025Y-92807975D01*
X177655418Y-92731687D01*
X177608897Y-92644651D01*
X177580249Y-92550212D01*
X177573395Y-92480622D01*
X177568616Y-92456599D01*
X177559239Y-92433960D01*
X177545625Y-92413586D01*
X177528298Y-92396259D01*
X177507924Y-92382645D01*
X177485285Y-92373268D01*
X177461252Y-92368488D01*
X177436747Y-92368488D01*
X177412714Y-92373269D01*
X177390075Y-92382646D01*
X177369701Y-92396260D01*
X177352374Y-92413587D01*
X177338760Y-92433961D01*
X177329383Y-92456600D01*
X177324605Y-92480623D01*
X177317751Y-92550213D01*
X177289103Y-92644652D01*
X177242582Y-92731687D01*
X177179975Y-92807975D01*
X177103687Y-92870582D01*
X177016651Y-92917103D01*
X176922212Y-92945751D01*
X176824000Y-92955424D01*
X176725787Y-92945751D01*
X176631348Y-92917103D01*
X176544313Y-92870582D01*
X176468025Y-92807975D01*
X176405418Y-92731687D01*
X176358897Y-92644651D01*
X176330249Y-92550212D01*
X176323000Y-92476611D01*
X176323000Y-91927398D01*
X176330250Y-91853789D01*
X176330250Y-91853787D01*
X176358898Y-91759348D01*
X176405419Y-91672313D01*
X176468026Y-91596025D01*
X176544314Y-91533418D01*
X176631349Y-91486897D01*
X176725788Y-91458249D01*
X176824000Y-91448576D01*
X176922213Y-91458249D01*
X177016652Y-91486897D01*
X177103687Y-91533418D01*
X177179975Y-91596025D01*
X177242582Y-91672313D01*
X177289103Y-91759348D01*
X177317751Y-91853787D01*
X177324605Y-91923377D01*
X177329384Y-91947400D01*
X177338761Y-91970039D01*
X177352375Y-91990413D01*
X177369702Y-92007740D01*
X177390076Y-92021354D01*
X177412715Y-92030731D01*
X177436748Y-92035511D01*
X177461253Y-92035511D01*
X177485286Y-92030730D01*
X177507925Y-92021353D01*
X177528299Y-92007739D01*
X177545626Y-91990412D01*
X177559240Y-91970038D01*
X177568617Y-91947399D01*
X177573397Y-91923367D01*
X177580250Y-91853789D01*
X177580250Y-91853787D01*
X177608898Y-91759348D01*
X177655419Y-91672313D01*
X177718026Y-91596025D01*
X177794314Y-91533418D01*
X177881349Y-91486897D01*
X177975788Y-91458249D01*
X178074000Y-91448576D01*
X178172213Y-91458249D01*
X178172213Y-91458249D01*
G37*
G36*
X203718601Y-91616397D02*
G01*
X203757305Y-91624096D01*
X203789340Y-91637365D01*
X203866680Y-91669400D01*
X203965115Y-91735173D01*
X204048827Y-91818885D01*
X204114600Y-91917320D01*
X204144875Y-91990412D01*
X204159904Y-92026695D01*
X204167603Y-92065399D01*
X204183000Y-92142805D01*
X204183000Y-92261195D01*
X204177455Y-92289069D01*
X204159904Y-92377305D01*
X204150878Y-92399095D01*
X204114600Y-92486680D01*
X204048827Y-92585115D01*
X203965115Y-92668827D01*
X203866680Y-92734600D01*
X203789340Y-92766635D01*
X203757305Y-92779904D01*
X203718601Y-92787603D01*
X203641195Y-92803000D01*
X203522805Y-92803000D01*
X203445399Y-92787603D01*
X203406695Y-92779904D01*
X203374660Y-92766635D01*
X203297320Y-92734600D01*
X203198885Y-92668827D01*
X203115173Y-92585115D01*
X203049400Y-92486680D01*
X203013122Y-92399095D01*
X203004096Y-92377305D01*
X202986545Y-92289069D01*
X202981000Y-92261195D01*
X202981000Y-92142805D01*
X202996397Y-92065399D01*
X203004096Y-92026695D01*
X203019125Y-91990412D01*
X203049400Y-91917320D01*
X203115173Y-91818885D01*
X203198885Y-91735173D01*
X203297320Y-91669400D01*
X203374660Y-91637365D01*
X203406695Y-91624096D01*
X203445399Y-91616397D01*
X203522805Y-91601000D01*
X203641195Y-91601000D01*
X203718601Y-91616397D01*
X203718601Y-91616397D01*
G37*
G36*
X227763294Y-90538633D02*
G01*
X227935695Y-90590931D01*
X228094583Y-90675858D01*
X228233849Y-90790151D01*
X228348142Y-90929417D01*
X228433069Y-91088305D01*
X228485367Y-91260706D01*
X228503025Y-91440000D01*
X228485367Y-91619294D01*
X228433069Y-91791695D01*
X228348142Y-91950583D01*
X228233849Y-92089849D01*
X228094583Y-92204142D01*
X227935695Y-92289069D01*
X227763294Y-92341367D01*
X227628931Y-92354600D01*
X227539069Y-92354600D01*
X227404706Y-92341367D01*
X227232305Y-92289069D01*
X227073417Y-92204142D01*
X226934151Y-92089849D01*
X226819858Y-91950583D01*
X226734931Y-91791695D01*
X226682633Y-91619294D01*
X226664975Y-91440000D01*
X226682633Y-91260706D01*
X226734931Y-91088305D01*
X226819858Y-90929417D01*
X226934151Y-90790151D01*
X227073417Y-90675858D01*
X227232305Y-90590931D01*
X227404706Y-90538633D01*
X227539069Y-90525400D01*
X227628931Y-90525400D01*
X227763294Y-90538633D01*
X227763294Y-90538633D01*
G37*
G36*
X225223294Y-90538633D02*
G01*
X225395695Y-90590931D01*
X225554583Y-90675858D01*
X225693849Y-90790151D01*
X225808142Y-90929417D01*
X225893069Y-91088305D01*
X225945367Y-91260706D01*
X225963025Y-91440000D01*
X225945367Y-91619294D01*
X225893069Y-91791695D01*
X225808142Y-91950583D01*
X225693849Y-92089849D01*
X225554583Y-92204142D01*
X225395695Y-92289069D01*
X225223294Y-92341367D01*
X225088931Y-92354600D01*
X224999069Y-92354600D01*
X224864706Y-92341367D01*
X224692305Y-92289069D01*
X224533417Y-92204142D01*
X224394151Y-92089849D01*
X224279858Y-91950583D01*
X224194931Y-91791695D01*
X224142633Y-91619294D01*
X224124975Y-91440000D01*
X224142633Y-91260706D01*
X224194931Y-91088305D01*
X224279858Y-90929417D01*
X224394151Y-90790151D01*
X224533417Y-90675858D01*
X224692305Y-90590931D01*
X224864706Y-90538633D01*
X224999069Y-90525400D01*
X225088931Y-90525400D01*
X225223294Y-90538633D01*
X225223294Y-90538633D01*
G37*
G36*
X140488894Y-89929033D02*
G01*
X140661295Y-89981331D01*
X140820183Y-90066258D01*
X140959449Y-90180551D01*
X141073742Y-90319817D01*
X141158669Y-90478705D01*
X141210967Y-90651106D01*
X141228625Y-90830400D01*
X141210967Y-91009694D01*
X141158669Y-91182095D01*
X141073742Y-91340983D01*
X140959449Y-91480249D01*
X140820183Y-91594542D01*
X140661295Y-91679469D01*
X140488894Y-91731767D01*
X140354531Y-91745000D01*
X140264669Y-91745000D01*
X140130306Y-91731767D01*
X139957905Y-91679469D01*
X139799017Y-91594542D01*
X139659751Y-91480249D01*
X139545458Y-91340983D01*
X139460531Y-91182095D01*
X139408233Y-91009694D01*
X139390575Y-90830400D01*
X139408233Y-90651106D01*
X139460531Y-90478705D01*
X139545458Y-90319817D01*
X139659751Y-90180551D01*
X139799017Y-90066258D01*
X139957905Y-89981331D01*
X140130306Y-89929033D01*
X140264669Y-89915800D01*
X140354531Y-89915800D01*
X140488894Y-89929033D01*
X140488894Y-89929033D01*
G37*
G36*
X137948894Y-89929033D02*
G01*
X138121295Y-89981331D01*
X138280183Y-90066258D01*
X138419449Y-90180551D01*
X138533742Y-90319817D01*
X138618669Y-90478705D01*
X138670967Y-90651106D01*
X138688625Y-90830400D01*
X138670967Y-91009694D01*
X138618669Y-91182095D01*
X138533742Y-91340983D01*
X138419449Y-91480249D01*
X138280183Y-91594542D01*
X138121295Y-91679469D01*
X137948894Y-91731767D01*
X137814531Y-91745000D01*
X137724669Y-91745000D01*
X137590306Y-91731767D01*
X137417905Y-91679469D01*
X137259017Y-91594542D01*
X137119751Y-91480249D01*
X137005458Y-91340983D01*
X136920531Y-91182095D01*
X136868233Y-91009694D01*
X136850575Y-90830400D01*
X136868233Y-90651106D01*
X136920531Y-90478705D01*
X137005458Y-90319817D01*
X137119751Y-90180551D01*
X137259017Y-90066258D01*
X137417905Y-89981331D01*
X137590306Y-89929033D01*
X137724669Y-89915800D01*
X137814531Y-89915800D01*
X137948894Y-89929033D01*
X137948894Y-89929033D01*
G37*
G36*
X201732343Y-88757361D02*
G01*
X201751568Y-88759254D01*
X201924234Y-88811632D01*
X202083365Y-88896689D01*
X202222844Y-89011156D01*
X202337311Y-89150635D01*
X202422368Y-89309766D01*
X202474746Y-89482433D01*
X202492432Y-89662000D01*
X202474746Y-89841567D01*
X202422368Y-90014234D01*
X202337311Y-90173365D01*
X202222844Y-90312844D01*
X202083365Y-90427311D01*
X201924234Y-90512368D01*
X201881273Y-90525400D01*
X201751568Y-90564746D01*
X201732343Y-90566639D01*
X201616998Y-90578000D01*
X201227002Y-90578000D01*
X201111657Y-90566639D01*
X201092432Y-90564746D01*
X200962727Y-90525400D01*
X200919766Y-90512368D01*
X200760635Y-90427311D01*
X200621156Y-90312844D01*
X200506689Y-90173365D01*
X200421632Y-90014234D01*
X200369254Y-89841567D01*
X200351568Y-89662000D01*
X200369254Y-89482433D01*
X200421632Y-89309766D01*
X200506689Y-89150635D01*
X200621156Y-89011156D01*
X200760635Y-88896689D01*
X200919766Y-88811632D01*
X201092432Y-88759254D01*
X201111657Y-88757361D01*
X201227002Y-88746000D01*
X201616998Y-88746000D01*
X201732343Y-88757361D01*
X201732343Y-88757361D01*
G37*
G36*
X227763294Y-87998633D02*
G01*
X227935695Y-88050931D01*
X228094583Y-88135858D01*
X228233849Y-88250151D01*
X228348142Y-88389417D01*
X228433069Y-88548305D01*
X228485367Y-88720706D01*
X228503025Y-88900000D01*
X228485367Y-89079294D01*
X228433069Y-89251695D01*
X228348142Y-89410583D01*
X228233849Y-89549849D01*
X228094583Y-89664142D01*
X227935695Y-89749069D01*
X227763294Y-89801367D01*
X227628931Y-89814600D01*
X227539069Y-89814600D01*
X227404706Y-89801367D01*
X227232305Y-89749069D01*
X227073417Y-89664142D01*
X226934151Y-89549849D01*
X226819858Y-89410583D01*
X226734931Y-89251695D01*
X226682633Y-89079294D01*
X226664975Y-88900000D01*
X226682633Y-88720706D01*
X226734931Y-88548305D01*
X226819858Y-88389417D01*
X226934151Y-88250151D01*
X227073417Y-88135858D01*
X227232305Y-88050931D01*
X227404706Y-87998633D01*
X227539069Y-87985400D01*
X227628931Y-87985400D01*
X227763294Y-87998633D01*
X227763294Y-87998633D01*
G37*
G36*
X225223294Y-87998633D02*
G01*
X225395695Y-88050931D01*
X225554583Y-88135858D01*
X225693849Y-88250151D01*
X225808142Y-88389417D01*
X225893069Y-88548305D01*
X225945367Y-88720706D01*
X225963025Y-88900000D01*
X225945367Y-89079294D01*
X225893069Y-89251695D01*
X225808142Y-89410583D01*
X225693849Y-89549849D01*
X225554583Y-89664142D01*
X225395695Y-89749069D01*
X225223294Y-89801367D01*
X225088931Y-89814600D01*
X224999069Y-89814600D01*
X224864706Y-89801367D01*
X224692305Y-89749069D01*
X224533417Y-89664142D01*
X224394151Y-89549849D01*
X224279858Y-89410583D01*
X224194931Y-89251695D01*
X224142633Y-89079294D01*
X224124975Y-88900000D01*
X224142633Y-88720706D01*
X224194931Y-88548305D01*
X224279858Y-88389417D01*
X224394151Y-88250151D01*
X224533417Y-88135858D01*
X224692305Y-88050931D01*
X224864706Y-87998633D01*
X224999069Y-87985400D01*
X225088931Y-87985400D01*
X225223294Y-87998633D01*
X225223294Y-87998633D01*
G37*
G36*
X140488894Y-87389033D02*
G01*
X140661295Y-87441331D01*
X140820183Y-87526258D01*
X140959449Y-87640551D01*
X141073742Y-87779817D01*
X141158669Y-87938705D01*
X141210967Y-88111106D01*
X141228625Y-88290400D01*
X141210967Y-88469694D01*
X141158669Y-88642095D01*
X141073742Y-88800983D01*
X140959449Y-88940249D01*
X140820183Y-89054542D01*
X140661295Y-89139469D01*
X140488894Y-89191767D01*
X140354531Y-89205000D01*
X140264669Y-89205000D01*
X140130306Y-89191767D01*
X139957905Y-89139469D01*
X139799017Y-89054542D01*
X139659751Y-88940249D01*
X139545458Y-88800983D01*
X139460531Y-88642095D01*
X139408233Y-88469694D01*
X139390575Y-88290400D01*
X139408233Y-88111106D01*
X139460531Y-87938705D01*
X139545458Y-87779817D01*
X139659751Y-87640551D01*
X139799017Y-87526258D01*
X139957905Y-87441331D01*
X140130306Y-87389033D01*
X140264669Y-87375800D01*
X140354531Y-87375800D01*
X140488894Y-87389033D01*
X140488894Y-87389033D01*
G37*
G36*
X137948894Y-87389033D02*
G01*
X138121295Y-87441331D01*
X138280183Y-87526258D01*
X138419449Y-87640551D01*
X138533742Y-87779817D01*
X138618669Y-87938705D01*
X138670967Y-88111106D01*
X138688625Y-88290400D01*
X138670967Y-88469694D01*
X138618669Y-88642095D01*
X138533742Y-88800983D01*
X138419449Y-88940249D01*
X138280183Y-89054542D01*
X138121295Y-89139469D01*
X137948894Y-89191767D01*
X137814531Y-89205000D01*
X137724669Y-89205000D01*
X137590306Y-89191767D01*
X137417905Y-89139469D01*
X137259017Y-89054542D01*
X137119751Y-88940249D01*
X137005458Y-88800983D01*
X136920531Y-88642095D01*
X136868233Y-88469694D01*
X136850575Y-88290400D01*
X136868233Y-88111106D01*
X136920531Y-87938705D01*
X137005458Y-87779817D01*
X137119751Y-87640551D01*
X137259017Y-87526258D01*
X137417905Y-87441331D01*
X137590306Y-87389033D01*
X137724669Y-87375800D01*
X137814531Y-87375800D01*
X137948894Y-87389033D01*
X137948894Y-87389033D01*
G37*
G36*
X178172213Y-86886249D02*
G01*
X178266652Y-86914897D01*
X178353687Y-86961418D01*
X178429975Y-87024025D01*
X178492582Y-87100313D01*
X178539103Y-87187348D01*
X178567751Y-87281787D01*
X178573606Y-87341234D01*
X178578385Y-87365258D01*
X178587762Y-87387897D01*
X178601376Y-87408271D01*
X178618703Y-87425598D01*
X178639077Y-87439211D01*
X178661716Y-87448589D01*
X178685749Y-87453369D01*
X178710253Y-87453369D01*
X178734287Y-87448588D01*
X178756926Y-87439211D01*
X178777300Y-87425597D01*
X178794627Y-87408270D01*
X178808240Y-87387896D01*
X178817618Y-87365257D01*
X178823000Y-87328972D01*
X178823000Y-87073140D01*
X178827205Y-87030440D01*
X178837869Y-86995287D01*
X178855186Y-86962890D01*
X178878491Y-86934491D01*
X178906890Y-86911186D01*
X178939287Y-86893869D01*
X178974440Y-86883205D01*
X179017140Y-86879000D01*
X179630860Y-86879000D01*
X179673560Y-86883205D01*
X179708713Y-86893869D01*
X179741110Y-86911186D01*
X179769509Y-86934491D01*
X179792814Y-86962890D01*
X179810131Y-86995287D01*
X179820795Y-87030440D01*
X179825000Y-87073140D01*
X179825000Y-88186860D01*
X179820795Y-88229560D01*
X179810131Y-88264713D01*
X179792814Y-88297110D01*
X179769509Y-88325509D01*
X179741110Y-88348814D01*
X179708713Y-88366131D01*
X179673560Y-88376795D01*
X179630860Y-88381000D01*
X179017140Y-88381000D01*
X178974440Y-88376795D01*
X178939287Y-88366131D01*
X178906890Y-88348814D01*
X178878491Y-88325509D01*
X178855186Y-88297110D01*
X178837869Y-88264713D01*
X178827205Y-88229560D01*
X178823000Y-88186860D01*
X178823000Y-87931028D01*
X178820598Y-87906642D01*
X178813485Y-87883193D01*
X178801934Y-87861582D01*
X178786389Y-87842640D01*
X178767447Y-87827095D01*
X178745836Y-87815544D01*
X178722387Y-87808431D01*
X178698001Y-87806029D01*
X178673615Y-87808431D01*
X178650166Y-87815544D01*
X178628555Y-87827095D01*
X178609613Y-87842640D01*
X178594068Y-87861582D01*
X178582517Y-87883193D01*
X178573606Y-87918770D01*
X178567751Y-87978213D01*
X178539103Y-88072652D01*
X178492582Y-88159687D01*
X178429975Y-88235975D01*
X178353687Y-88298582D01*
X178266651Y-88345103D01*
X178172212Y-88373751D01*
X178074000Y-88383424D01*
X177975787Y-88373751D01*
X177881348Y-88345103D01*
X177794313Y-88298582D01*
X177718025Y-88235975D01*
X177655418Y-88159687D01*
X177608897Y-88072651D01*
X177580249Y-87978212D01*
X177573395Y-87908622D01*
X177568616Y-87884599D01*
X177559239Y-87861960D01*
X177545625Y-87841586D01*
X177528298Y-87824259D01*
X177507924Y-87810645D01*
X177485285Y-87801268D01*
X177461252Y-87796488D01*
X177436747Y-87796488D01*
X177412714Y-87801269D01*
X177390075Y-87810646D01*
X177369701Y-87824260D01*
X177352374Y-87841587D01*
X177338760Y-87861961D01*
X177329383Y-87884600D01*
X177324605Y-87908623D01*
X177317751Y-87978213D01*
X177289103Y-88072652D01*
X177242582Y-88159687D01*
X177179975Y-88235975D01*
X177103687Y-88298582D01*
X177016651Y-88345103D01*
X176922212Y-88373751D01*
X176824000Y-88383424D01*
X176725787Y-88373751D01*
X176631348Y-88345103D01*
X176544313Y-88298582D01*
X176468025Y-88235975D01*
X176405418Y-88159687D01*
X176358897Y-88072651D01*
X176330249Y-87978212D01*
X176323000Y-87904611D01*
X176323000Y-87355398D01*
X176330250Y-87281789D01*
X176330250Y-87281787D01*
X176358898Y-87187348D01*
X176405419Y-87100313D01*
X176468026Y-87024025D01*
X176544314Y-86961418D01*
X176631349Y-86914897D01*
X176725788Y-86886249D01*
X176824000Y-86876576D01*
X176922213Y-86886249D01*
X177016652Y-86914897D01*
X177103687Y-86961418D01*
X177179975Y-87024025D01*
X177242582Y-87100313D01*
X177289103Y-87187348D01*
X177317751Y-87281787D01*
X177324605Y-87351377D01*
X177329384Y-87375400D01*
X177338761Y-87398039D01*
X177352375Y-87418413D01*
X177369702Y-87435740D01*
X177390076Y-87449354D01*
X177412715Y-87458731D01*
X177436748Y-87463511D01*
X177461253Y-87463511D01*
X177485286Y-87458730D01*
X177507925Y-87449353D01*
X177528299Y-87435739D01*
X177545626Y-87418412D01*
X177559240Y-87398038D01*
X177568617Y-87375399D01*
X177573397Y-87351367D01*
X177580250Y-87281789D01*
X177580250Y-87281787D01*
X177608898Y-87187348D01*
X177655419Y-87100313D01*
X177718026Y-87024025D01*
X177794314Y-86961418D01*
X177881349Y-86914897D01*
X177975788Y-86886249D01*
X178074000Y-86876576D01*
X178172213Y-86886249D01*
X178172213Y-86886249D01*
G37*
G36*
X184522213Y-86886249D02*
G01*
X184616652Y-86914897D01*
X184703687Y-86961418D01*
X184779975Y-87024025D01*
X184842582Y-87100313D01*
X184889103Y-87187348D01*
X184917751Y-87281787D01*
X184923606Y-87341234D01*
X184928385Y-87365258D01*
X184937762Y-87387897D01*
X184951376Y-87408271D01*
X184968703Y-87425598D01*
X184989077Y-87439211D01*
X185011716Y-87448589D01*
X185035749Y-87453369D01*
X185060253Y-87453369D01*
X185084287Y-87448588D01*
X185106926Y-87439211D01*
X185127300Y-87425597D01*
X185144627Y-87408270D01*
X185158240Y-87387896D01*
X185167618Y-87365257D01*
X185173000Y-87328972D01*
X185173000Y-87073140D01*
X185177205Y-87030440D01*
X185187869Y-86995287D01*
X185205186Y-86962890D01*
X185228491Y-86934491D01*
X185256890Y-86911186D01*
X185289287Y-86893869D01*
X185324440Y-86883205D01*
X185367140Y-86879000D01*
X185980860Y-86879000D01*
X186023560Y-86883205D01*
X186058713Y-86893869D01*
X186091110Y-86911186D01*
X186119509Y-86934491D01*
X186142814Y-86962890D01*
X186160131Y-86995287D01*
X186170795Y-87030440D01*
X186175000Y-87073140D01*
X186175000Y-88186860D01*
X186170795Y-88229560D01*
X186160131Y-88264713D01*
X186142814Y-88297110D01*
X186119509Y-88325509D01*
X186091110Y-88348814D01*
X186058713Y-88366131D01*
X186023560Y-88376795D01*
X185980860Y-88381000D01*
X185367140Y-88381000D01*
X185324440Y-88376795D01*
X185289287Y-88366131D01*
X185256890Y-88348814D01*
X185228491Y-88325509D01*
X185205186Y-88297110D01*
X185187869Y-88264713D01*
X185177205Y-88229560D01*
X185173000Y-88186860D01*
X185173000Y-87931028D01*
X185170598Y-87906642D01*
X185163485Y-87883193D01*
X185151934Y-87861582D01*
X185136389Y-87842640D01*
X185117447Y-87827095D01*
X185095836Y-87815544D01*
X185072387Y-87808431D01*
X185048001Y-87806029D01*
X185023615Y-87808431D01*
X185000166Y-87815544D01*
X184978555Y-87827095D01*
X184959613Y-87842640D01*
X184944068Y-87861582D01*
X184932517Y-87883193D01*
X184923606Y-87918770D01*
X184917751Y-87978213D01*
X184889103Y-88072652D01*
X184842582Y-88159687D01*
X184779975Y-88235975D01*
X184703687Y-88298582D01*
X184616651Y-88345103D01*
X184522212Y-88373751D01*
X184424000Y-88383424D01*
X184325787Y-88373751D01*
X184231348Y-88345103D01*
X184144313Y-88298582D01*
X184068025Y-88235975D01*
X184005418Y-88159687D01*
X183958897Y-88072651D01*
X183930249Y-87978212D01*
X183923395Y-87908622D01*
X183918616Y-87884599D01*
X183909239Y-87861960D01*
X183895625Y-87841586D01*
X183878298Y-87824259D01*
X183857924Y-87810645D01*
X183835285Y-87801268D01*
X183811252Y-87796488D01*
X183786747Y-87796488D01*
X183762714Y-87801269D01*
X183740075Y-87810646D01*
X183719701Y-87824260D01*
X183702374Y-87841587D01*
X183688760Y-87861961D01*
X183679383Y-87884600D01*
X183674605Y-87908623D01*
X183667751Y-87978213D01*
X183639103Y-88072652D01*
X183592582Y-88159687D01*
X183529975Y-88235975D01*
X183453687Y-88298582D01*
X183366651Y-88345103D01*
X183272212Y-88373751D01*
X183174000Y-88383424D01*
X183075787Y-88373751D01*
X182981348Y-88345103D01*
X182894313Y-88298582D01*
X182818025Y-88235975D01*
X182755418Y-88159687D01*
X182708897Y-88072651D01*
X182680249Y-87978212D01*
X182673000Y-87904611D01*
X182673000Y-87355398D01*
X182680250Y-87281789D01*
X182680250Y-87281787D01*
X182708898Y-87187348D01*
X182755419Y-87100313D01*
X182818026Y-87024025D01*
X182894314Y-86961418D01*
X182981349Y-86914897D01*
X183075788Y-86886249D01*
X183174000Y-86876576D01*
X183272213Y-86886249D01*
X183366652Y-86914897D01*
X183453687Y-86961418D01*
X183529975Y-87024025D01*
X183592582Y-87100313D01*
X183639103Y-87187348D01*
X183667751Y-87281787D01*
X183674605Y-87351377D01*
X183679384Y-87375400D01*
X183688761Y-87398039D01*
X183702375Y-87418413D01*
X183719702Y-87435740D01*
X183740076Y-87449354D01*
X183762715Y-87458731D01*
X183786748Y-87463511D01*
X183811253Y-87463511D01*
X183835286Y-87458730D01*
X183857925Y-87449353D01*
X183878299Y-87435739D01*
X183895626Y-87418412D01*
X183909240Y-87398038D01*
X183918617Y-87375399D01*
X183923397Y-87351367D01*
X183930250Y-87281789D01*
X183930250Y-87281787D01*
X183958898Y-87187348D01*
X184005419Y-87100313D01*
X184068026Y-87024025D01*
X184144314Y-86961418D01*
X184231349Y-86914897D01*
X184325788Y-86886249D01*
X184424000Y-86876576D01*
X184522213Y-86886249D01*
X184522213Y-86886249D01*
G37*
G36*
X190872213Y-86886249D02*
G01*
X190966652Y-86914897D01*
X191053687Y-86961418D01*
X191129975Y-87024025D01*
X191192582Y-87100313D01*
X191239103Y-87187348D01*
X191267751Y-87281787D01*
X191273606Y-87341234D01*
X191278385Y-87365258D01*
X191287762Y-87387897D01*
X191301376Y-87408271D01*
X191318703Y-87425598D01*
X191339077Y-87439211D01*
X191361716Y-87448589D01*
X191385749Y-87453369D01*
X191410253Y-87453369D01*
X191434287Y-87448588D01*
X191456926Y-87439211D01*
X191477300Y-87425597D01*
X191494627Y-87408270D01*
X191508240Y-87387896D01*
X191517618Y-87365257D01*
X191523000Y-87328972D01*
X191523000Y-87073140D01*
X191527205Y-87030440D01*
X191537869Y-86995287D01*
X191555186Y-86962890D01*
X191578491Y-86934491D01*
X191606890Y-86911186D01*
X191639287Y-86893869D01*
X191674440Y-86883205D01*
X191717140Y-86879000D01*
X192330860Y-86879000D01*
X192373560Y-86883205D01*
X192408713Y-86893869D01*
X192441110Y-86911186D01*
X192469509Y-86934491D01*
X192492814Y-86962890D01*
X192510131Y-86995287D01*
X192520795Y-87030440D01*
X192525000Y-87073140D01*
X192525000Y-88186860D01*
X192520795Y-88229560D01*
X192510131Y-88264713D01*
X192492814Y-88297110D01*
X192469509Y-88325509D01*
X192441110Y-88348814D01*
X192408713Y-88366131D01*
X192373560Y-88376795D01*
X192330860Y-88381000D01*
X191717140Y-88381000D01*
X191674440Y-88376795D01*
X191639287Y-88366131D01*
X191606890Y-88348814D01*
X191578491Y-88325509D01*
X191555186Y-88297110D01*
X191537869Y-88264713D01*
X191527205Y-88229560D01*
X191523000Y-88186860D01*
X191523000Y-87931028D01*
X191520598Y-87906642D01*
X191513485Y-87883193D01*
X191501934Y-87861582D01*
X191486389Y-87842640D01*
X191467447Y-87827095D01*
X191445836Y-87815544D01*
X191422387Y-87808431D01*
X191398001Y-87806029D01*
X191373615Y-87808431D01*
X191350166Y-87815544D01*
X191328555Y-87827095D01*
X191309613Y-87842640D01*
X191294068Y-87861582D01*
X191282517Y-87883193D01*
X191273606Y-87918770D01*
X191267751Y-87978213D01*
X191239103Y-88072652D01*
X191192582Y-88159687D01*
X191129975Y-88235975D01*
X191053687Y-88298582D01*
X190966651Y-88345103D01*
X190872212Y-88373751D01*
X190774000Y-88383424D01*
X190675787Y-88373751D01*
X190581348Y-88345103D01*
X190494313Y-88298582D01*
X190418025Y-88235975D01*
X190355418Y-88159687D01*
X190308897Y-88072651D01*
X190280249Y-87978212D01*
X190273395Y-87908622D01*
X190268616Y-87884599D01*
X190259239Y-87861960D01*
X190245625Y-87841586D01*
X190228298Y-87824259D01*
X190207924Y-87810645D01*
X190185285Y-87801268D01*
X190161252Y-87796488D01*
X190136747Y-87796488D01*
X190112714Y-87801269D01*
X190090075Y-87810646D01*
X190069701Y-87824260D01*
X190052374Y-87841587D01*
X190038760Y-87861961D01*
X190029383Y-87884600D01*
X190024605Y-87908623D01*
X190017751Y-87978213D01*
X189989103Y-88072652D01*
X189942582Y-88159687D01*
X189879975Y-88235975D01*
X189803687Y-88298582D01*
X189716651Y-88345103D01*
X189622212Y-88373751D01*
X189524000Y-88383424D01*
X189425787Y-88373751D01*
X189331348Y-88345103D01*
X189244313Y-88298582D01*
X189168025Y-88235975D01*
X189105418Y-88159687D01*
X189058897Y-88072651D01*
X189030249Y-87978212D01*
X189023000Y-87904611D01*
X189023000Y-87355398D01*
X189030250Y-87281789D01*
X189030250Y-87281787D01*
X189058898Y-87187348D01*
X189105419Y-87100313D01*
X189168026Y-87024025D01*
X189244314Y-86961418D01*
X189331349Y-86914897D01*
X189425788Y-86886249D01*
X189524000Y-86876576D01*
X189622213Y-86886249D01*
X189716652Y-86914897D01*
X189803687Y-86961418D01*
X189879975Y-87024025D01*
X189942582Y-87100313D01*
X189989103Y-87187348D01*
X190017751Y-87281787D01*
X190024605Y-87351377D01*
X190029384Y-87375400D01*
X190038761Y-87398039D01*
X190052375Y-87418413D01*
X190069702Y-87435740D01*
X190090076Y-87449354D01*
X190112715Y-87458731D01*
X190136748Y-87463511D01*
X190161253Y-87463511D01*
X190185286Y-87458730D01*
X190207925Y-87449353D01*
X190228299Y-87435739D01*
X190245626Y-87418412D01*
X190259240Y-87398038D01*
X190268617Y-87375399D01*
X190273397Y-87351367D01*
X190280250Y-87281789D01*
X190280250Y-87281787D01*
X190308898Y-87187348D01*
X190355419Y-87100313D01*
X190418026Y-87024025D01*
X190494314Y-86961418D01*
X190581349Y-86914897D01*
X190675788Y-86886249D01*
X190774000Y-86876576D01*
X190872213Y-86886249D01*
X190872213Y-86886249D01*
G37*
G36*
X202488000Y-88038000D02*
G01*
X200356000Y-88038000D01*
X200356000Y-86206000D01*
X202488000Y-86206000D01*
X202488000Y-88038000D01*
X202488000Y-88038000D01*
G37*
G36*
X227763294Y-85458633D02*
G01*
X227935695Y-85510931D01*
X228094583Y-85595858D01*
X228233849Y-85710151D01*
X228348142Y-85849417D01*
X228433069Y-86008305D01*
X228485367Y-86180706D01*
X228503025Y-86360000D01*
X228485367Y-86539294D01*
X228433069Y-86711695D01*
X228348142Y-86870583D01*
X228233849Y-87009849D01*
X228094583Y-87124142D01*
X227935695Y-87209069D01*
X227763294Y-87261367D01*
X227628931Y-87274600D01*
X227539069Y-87274600D01*
X227404706Y-87261367D01*
X227232305Y-87209069D01*
X227073417Y-87124142D01*
X226934151Y-87009849D01*
X226819858Y-86870583D01*
X226734931Y-86711695D01*
X226682633Y-86539294D01*
X226664975Y-86360000D01*
X226682633Y-86180706D01*
X226734931Y-86008305D01*
X226819858Y-85849417D01*
X226934151Y-85710151D01*
X227073417Y-85595858D01*
X227232305Y-85510931D01*
X227404706Y-85458633D01*
X227539069Y-85445400D01*
X227628931Y-85445400D01*
X227763294Y-85458633D01*
X227763294Y-85458633D01*
G37*
G36*
X225223294Y-85458633D02*
G01*
X225395695Y-85510931D01*
X225554583Y-85595858D01*
X225693849Y-85710151D01*
X225808142Y-85849417D01*
X225893069Y-86008305D01*
X225945367Y-86180706D01*
X225963025Y-86360000D01*
X225945367Y-86539294D01*
X225893069Y-86711695D01*
X225808142Y-86870583D01*
X225693849Y-87009849D01*
X225554583Y-87124142D01*
X225395695Y-87209069D01*
X225223294Y-87261367D01*
X225088931Y-87274600D01*
X224999069Y-87274600D01*
X224864706Y-87261367D01*
X224692305Y-87209069D01*
X224533417Y-87124142D01*
X224394151Y-87009849D01*
X224279858Y-86870583D01*
X224194931Y-86711695D01*
X224142633Y-86539294D01*
X224124975Y-86360000D01*
X224142633Y-86180706D01*
X224194931Y-86008305D01*
X224279858Y-85849417D01*
X224394151Y-85710151D01*
X224533417Y-85595858D01*
X224692305Y-85510931D01*
X224864706Y-85458633D01*
X224999069Y-85445400D01*
X225088931Y-85445400D01*
X225223294Y-85458633D01*
X225223294Y-85458633D01*
G37*
G36*
X153576721Y-79480174D02*
G01*
X153676995Y-79521709D01*
X153676996Y-79521710D01*
X153767242Y-79582010D01*
X153843990Y-79658758D01*
X153843991Y-79658760D01*
X153904291Y-79749005D01*
X153945826Y-79849279D01*
X153967000Y-79955730D01*
X153967000Y-80064270D01*
X153945826Y-80170721D01*
X153904291Y-80270995D01*
X153904290Y-80270996D01*
X153843990Y-80361242D01*
X153767242Y-80437990D01*
X153721812Y-80468345D01*
X153676995Y-80498291D01*
X153576721Y-80539826D01*
X153470270Y-80561000D01*
X153361730Y-80561000D01*
X153255279Y-80539826D01*
X153155005Y-80498291D01*
X153110188Y-80468345D01*
X153064758Y-80437990D01*
X152988010Y-80361242D01*
X152927710Y-80270996D01*
X152927709Y-80270995D01*
X152886174Y-80170721D01*
X152865000Y-80064270D01*
X152865000Y-79955730D01*
X152886174Y-79849279D01*
X152927709Y-79749005D01*
X152988009Y-79658760D01*
X152988010Y-79658758D01*
X153064758Y-79582010D01*
X153155004Y-79521710D01*
X153155005Y-79521709D01*
X153255279Y-79480174D01*
X153361730Y-79459000D01*
X153470270Y-79459000D01*
X153576721Y-79480174D01*
X153576721Y-79480174D01*
G37*
G36*
X151036721Y-79480174D02*
G01*
X151136995Y-79521709D01*
X151136996Y-79521710D01*
X151227242Y-79582010D01*
X151303990Y-79658758D01*
X151303991Y-79658760D01*
X151364291Y-79749005D01*
X151405826Y-79849279D01*
X151427000Y-79955730D01*
X151427000Y-80064270D01*
X151405826Y-80170721D01*
X151364291Y-80270995D01*
X151364290Y-80270996D01*
X151303990Y-80361242D01*
X151227242Y-80437990D01*
X151181812Y-80468345D01*
X151136995Y-80498291D01*
X151036721Y-80539826D01*
X150930270Y-80561000D01*
X150821730Y-80561000D01*
X150715279Y-80539826D01*
X150615005Y-80498291D01*
X150570188Y-80468345D01*
X150524758Y-80437990D01*
X150448010Y-80361242D01*
X150387710Y-80270996D01*
X150387709Y-80270995D01*
X150346174Y-80170721D01*
X150325000Y-80064270D01*
X150325000Y-79955730D01*
X150346174Y-79849279D01*
X150387709Y-79749005D01*
X150448009Y-79658760D01*
X150448010Y-79658758D01*
X150524758Y-79582010D01*
X150615004Y-79521710D01*
X150615005Y-79521709D01*
X150715279Y-79480174D01*
X150821730Y-79459000D01*
X150930270Y-79459000D01*
X151036721Y-79480174D01*
X151036721Y-79480174D01*
G37*
G36*
X201732343Y-75295361D02*
G01*
X201751568Y-75297254D01*
X201924234Y-75349632D01*
X202083365Y-75434689D01*
X202222844Y-75549156D01*
X202337311Y-75688635D01*
X202422368Y-75847766D01*
X202474746Y-76020433D01*
X202492432Y-76200000D01*
X202474746Y-76379567D01*
X202422368Y-76552234D01*
X202337311Y-76711365D01*
X202222844Y-76850844D01*
X202083365Y-76965311D01*
X201924234Y-77050368D01*
X201751568Y-77102746D01*
X201732343Y-77104639D01*
X201616998Y-77116000D01*
X201227002Y-77116000D01*
X201111657Y-77104639D01*
X201092432Y-77102746D01*
X201006100Y-77076557D01*
X200919766Y-77050368D01*
X200760635Y-76965311D01*
X200621156Y-76850844D01*
X200506689Y-76711365D01*
X200421632Y-76552234D01*
X200369254Y-76379567D01*
X200351568Y-76200000D01*
X200369254Y-76020433D01*
X200421632Y-75847766D01*
X200506689Y-75688635D01*
X200621156Y-75549156D01*
X200760635Y-75434689D01*
X200919766Y-75349632D01*
X201092432Y-75297254D01*
X201111657Y-75295361D01*
X201227002Y-75284000D01*
X201616998Y-75284000D01*
X201732343Y-75295361D01*
X201732343Y-75295361D01*
G37*
G36*
X225223294Y-74536633D02*
G01*
X225395695Y-74588931D01*
X225554583Y-74673858D01*
X225693849Y-74788151D01*
X225808142Y-74927417D01*
X225893069Y-75086305D01*
X225945367Y-75258706D01*
X225963025Y-75438000D01*
X225945367Y-75617294D01*
X225893069Y-75789695D01*
X225808142Y-75948583D01*
X225693849Y-76087849D01*
X225554583Y-76202142D01*
X225395695Y-76287069D01*
X225223294Y-76339367D01*
X225088931Y-76352600D01*
X224999069Y-76352600D01*
X224864706Y-76339367D01*
X224692305Y-76287069D01*
X224533417Y-76202142D01*
X224394151Y-76087849D01*
X224279858Y-75948583D01*
X224194931Y-75789695D01*
X224142633Y-75617294D01*
X224124975Y-75438000D01*
X224142633Y-75258706D01*
X224194931Y-75086305D01*
X224279858Y-74927417D01*
X224394151Y-74788151D01*
X224533417Y-74673858D01*
X224692305Y-74588931D01*
X224864706Y-74536633D01*
X224999069Y-74523400D01*
X225088931Y-74523400D01*
X225223294Y-74536633D01*
X225223294Y-74536633D01*
G37*
G36*
X228498600Y-76352600D02*
G01*
X226669400Y-76352600D01*
X226669400Y-74523400D01*
X228498600Y-74523400D01*
X228498600Y-76352600D01*
X228498600Y-76352600D01*
G37*
G36*
X201732343Y-72755361D02*
G01*
X201751568Y-72757254D01*
X201924234Y-72809632D01*
X202083365Y-72894689D01*
X202222844Y-73009156D01*
X202337311Y-73148635D01*
X202422368Y-73307766D01*
X202474746Y-73480433D01*
X202492432Y-73660000D01*
X202474746Y-73839567D01*
X202422368Y-74012234D01*
X202337311Y-74171365D01*
X202222844Y-74310844D01*
X202083365Y-74425311D01*
X201924234Y-74510368D01*
X201881273Y-74523400D01*
X201751568Y-74562746D01*
X201732343Y-74564639D01*
X201616998Y-74576000D01*
X201227002Y-74576000D01*
X201111657Y-74564639D01*
X201092432Y-74562746D01*
X200962727Y-74523400D01*
X200919766Y-74510368D01*
X200760635Y-74425311D01*
X200621156Y-74310844D01*
X200506689Y-74171365D01*
X200421632Y-74012234D01*
X200369254Y-73839567D01*
X200351568Y-73660000D01*
X200369254Y-73480433D01*
X200421632Y-73307766D01*
X200506689Y-73148635D01*
X200621156Y-73009156D01*
X200760635Y-72894689D01*
X200919766Y-72809632D01*
X201006100Y-72783443D01*
X201092432Y-72757254D01*
X201111657Y-72755361D01*
X201227002Y-72744000D01*
X201616998Y-72744000D01*
X201732343Y-72755361D01*
X201732343Y-72755361D01*
G37*
G36*
X203718601Y-73074397D02*
G01*
X203757305Y-73082096D01*
X203789340Y-73095365D01*
X203866680Y-73127400D01*
X203965115Y-73193173D01*
X204048827Y-73276885D01*
X204114600Y-73375320D01*
X204146635Y-73452660D01*
X204158139Y-73480433D01*
X204159904Y-73484696D01*
X204183000Y-73600805D01*
X204183000Y-73719195D01*
X204177455Y-73747069D01*
X204159904Y-73835305D01*
X204158138Y-73839568D01*
X204114600Y-73944680D01*
X204048827Y-74043115D01*
X203965115Y-74126827D01*
X203866680Y-74192600D01*
X203789340Y-74224635D01*
X203757305Y-74237904D01*
X203718601Y-74245603D01*
X203641195Y-74261000D01*
X203522805Y-74261000D01*
X203445399Y-74245603D01*
X203406695Y-74237904D01*
X203374660Y-74224635D01*
X203297320Y-74192600D01*
X203198885Y-74126827D01*
X203115173Y-74043115D01*
X203049400Y-73944680D01*
X203005862Y-73839568D01*
X203004096Y-73835305D01*
X202986545Y-73747069D01*
X202981000Y-73719195D01*
X202981000Y-73600805D01*
X203004096Y-73484696D01*
X203005862Y-73480433D01*
X203017365Y-73452660D01*
X203049400Y-73375320D01*
X203115173Y-73276885D01*
X203198885Y-73193173D01*
X203297320Y-73127400D01*
X203374660Y-73095365D01*
X203406695Y-73082096D01*
X203445399Y-73074397D01*
X203522805Y-73059000D01*
X203641195Y-73059000D01*
X203718601Y-73074397D01*
X203718601Y-73074397D01*
G37*
G36*
X225223294Y-71996633D02*
G01*
X225395695Y-72048931D01*
X225554583Y-72133858D01*
X225693849Y-72248151D01*
X225808142Y-72387417D01*
X225893069Y-72546305D01*
X225945367Y-72718706D01*
X225963025Y-72898000D01*
X225945367Y-73077294D01*
X225893069Y-73249695D01*
X225808142Y-73408583D01*
X225693849Y-73547849D01*
X225554583Y-73662142D01*
X225395695Y-73747069D01*
X225223294Y-73799367D01*
X225088931Y-73812600D01*
X224999069Y-73812600D01*
X224864706Y-73799367D01*
X224692305Y-73747069D01*
X224533417Y-73662142D01*
X224394151Y-73547849D01*
X224279858Y-73408583D01*
X224194931Y-73249695D01*
X224142633Y-73077294D01*
X224124975Y-72898000D01*
X224142633Y-72718706D01*
X224194931Y-72546305D01*
X224279858Y-72387417D01*
X224394151Y-72248151D01*
X224533417Y-72133858D01*
X224692305Y-72048931D01*
X224864706Y-71996633D01*
X224999069Y-71983400D01*
X225088931Y-71983400D01*
X225223294Y-71996633D01*
X225223294Y-71996633D01*
G37*
G36*
X227763294Y-71996633D02*
G01*
X227935695Y-72048931D01*
X228094583Y-72133858D01*
X228233849Y-72248151D01*
X228348142Y-72387417D01*
X228433069Y-72546305D01*
X228485367Y-72718706D01*
X228503025Y-72898000D01*
X228485367Y-73077294D01*
X228433069Y-73249695D01*
X228348142Y-73408583D01*
X228233849Y-73547849D01*
X228094583Y-73662142D01*
X227935695Y-73747069D01*
X227763294Y-73799367D01*
X227628931Y-73812600D01*
X227539069Y-73812600D01*
X227404706Y-73799367D01*
X227232305Y-73747069D01*
X227073417Y-73662142D01*
X226934151Y-73547849D01*
X226819858Y-73408583D01*
X226734931Y-73249695D01*
X226682633Y-73077294D01*
X226664975Y-72898000D01*
X226682633Y-72718706D01*
X226734931Y-72546305D01*
X226819858Y-72387417D01*
X226934151Y-72248151D01*
X227073417Y-72133858D01*
X227232305Y-72048931D01*
X227404706Y-71996633D01*
X227539069Y-71983400D01*
X227628931Y-71983400D01*
X227763294Y-71996633D01*
X227763294Y-71996633D01*
G37*
G36*
X147684442Y-70733518D02*
G01*
X147750627Y-70740037D01*
X147920466Y-70791557D01*
X148076991Y-70875222D01*
X148112729Y-70904552D01*
X148214186Y-70987814D01*
X148297448Y-71089271D01*
X148326778Y-71125009D01*
X148410443Y-71281534D01*
X148461963Y-71451373D01*
X148479359Y-71628000D01*
X148461963Y-71804627D01*
X148410443Y-71974466D01*
X148326778Y-72130991D01*
X148324425Y-72133858D01*
X148214186Y-72268186D01*
X148112729Y-72351448D01*
X148076991Y-72380778D01*
X147920466Y-72464443D01*
X147750627Y-72515963D01*
X147684442Y-72522482D01*
X147618260Y-72529000D01*
X147529740Y-72529000D01*
X147463558Y-72522482D01*
X147397373Y-72515963D01*
X147227534Y-72464443D01*
X147071009Y-72380778D01*
X147035271Y-72351448D01*
X146933814Y-72268186D01*
X146823575Y-72133858D01*
X146821222Y-72130991D01*
X146737557Y-71974466D01*
X146686037Y-71804627D01*
X146668641Y-71628000D01*
X146686037Y-71451373D01*
X146737557Y-71281534D01*
X146821222Y-71125009D01*
X146850552Y-71089271D01*
X146933814Y-70987814D01*
X147035271Y-70904552D01*
X147071009Y-70875222D01*
X147227534Y-70791557D01*
X147397373Y-70740037D01*
X147463558Y-70733518D01*
X147529740Y-70727000D01*
X147618260Y-70727000D01*
X147684442Y-70733518D01*
X147684442Y-70733518D01*
G37*
G36*
X137778442Y-70733518D02*
G01*
X137844627Y-70740037D01*
X138014466Y-70791557D01*
X138170991Y-70875222D01*
X138206729Y-70904552D01*
X138308186Y-70987814D01*
X138391448Y-71089271D01*
X138420778Y-71125009D01*
X138504443Y-71281534D01*
X138555963Y-71451373D01*
X138573359Y-71628000D01*
X138555963Y-71804627D01*
X138504443Y-71974466D01*
X138420778Y-72130991D01*
X138418425Y-72133858D01*
X138308186Y-72268186D01*
X138206729Y-72351448D01*
X138170991Y-72380778D01*
X138014466Y-72464443D01*
X137844627Y-72515963D01*
X137778442Y-72522482D01*
X137712260Y-72529000D01*
X137623740Y-72529000D01*
X137557558Y-72522482D01*
X137491373Y-72515963D01*
X137321534Y-72464443D01*
X137165009Y-72380778D01*
X137129271Y-72351448D01*
X137027814Y-72268186D01*
X136917575Y-72133858D01*
X136915222Y-72130991D01*
X136831557Y-71974466D01*
X136780037Y-71804627D01*
X136762641Y-71628000D01*
X136780037Y-71451373D01*
X136831557Y-71281534D01*
X136915222Y-71125009D01*
X136944552Y-71089271D01*
X137027814Y-70987814D01*
X137129271Y-70904552D01*
X137165009Y-70875222D01*
X137321534Y-70791557D01*
X137491373Y-70740037D01*
X137557558Y-70733518D01*
X137623740Y-70727000D01*
X137712260Y-70727000D01*
X137778442Y-70733518D01*
X137778442Y-70733518D01*
G37*
G36*
X141080442Y-70733518D02*
G01*
X141146627Y-70740037D01*
X141316466Y-70791557D01*
X141472991Y-70875222D01*
X141508729Y-70904552D01*
X141610186Y-70987814D01*
X141693448Y-71089271D01*
X141722778Y-71125009D01*
X141806443Y-71281534D01*
X141857963Y-71451373D01*
X141875359Y-71628000D01*
X141857963Y-71804627D01*
X141806443Y-71974466D01*
X141722778Y-72130991D01*
X141720425Y-72133858D01*
X141610186Y-72268186D01*
X141508729Y-72351448D01*
X141472991Y-72380778D01*
X141316466Y-72464443D01*
X141146627Y-72515963D01*
X141080442Y-72522482D01*
X141014260Y-72529000D01*
X140925740Y-72529000D01*
X140859558Y-72522482D01*
X140793373Y-72515963D01*
X140623534Y-72464443D01*
X140467009Y-72380778D01*
X140431271Y-72351448D01*
X140329814Y-72268186D01*
X140219575Y-72133858D01*
X140217222Y-72130991D01*
X140133557Y-71974466D01*
X140082037Y-71804627D01*
X140064641Y-71628000D01*
X140082037Y-71451373D01*
X140133557Y-71281534D01*
X140217222Y-71125009D01*
X140246552Y-71089271D01*
X140329814Y-70987814D01*
X140431271Y-70904552D01*
X140467009Y-70875222D01*
X140623534Y-70791557D01*
X140793373Y-70740037D01*
X140859558Y-70733518D01*
X140925740Y-70727000D01*
X141014260Y-70727000D01*
X141080442Y-70733518D01*
X141080442Y-70733518D01*
G37*
G36*
X144382442Y-70733518D02*
G01*
X144448627Y-70740037D01*
X144618466Y-70791557D01*
X144774991Y-70875222D01*
X144810729Y-70904552D01*
X144912186Y-70987814D01*
X144995448Y-71089271D01*
X145024778Y-71125009D01*
X145108443Y-71281534D01*
X145159963Y-71451373D01*
X145177359Y-71628000D01*
X145159963Y-71804627D01*
X145108443Y-71974466D01*
X145024778Y-72130991D01*
X145022425Y-72133858D01*
X144912186Y-72268186D01*
X144810729Y-72351448D01*
X144774991Y-72380778D01*
X144618466Y-72464443D01*
X144448627Y-72515963D01*
X144382442Y-72522482D01*
X144316260Y-72529000D01*
X144227740Y-72529000D01*
X144161558Y-72522482D01*
X144095373Y-72515963D01*
X143925534Y-72464443D01*
X143769009Y-72380778D01*
X143733271Y-72351448D01*
X143631814Y-72268186D01*
X143521575Y-72133858D01*
X143519222Y-72130991D01*
X143435557Y-71974466D01*
X143384037Y-71804627D01*
X143366641Y-71628000D01*
X143384037Y-71451373D01*
X143435557Y-71281534D01*
X143519222Y-71125009D01*
X143548552Y-71089271D01*
X143631814Y-70987814D01*
X143733271Y-70904552D01*
X143769009Y-70875222D01*
X143925534Y-70791557D01*
X144095373Y-70740037D01*
X144161558Y-70733518D01*
X144227740Y-70727000D01*
X144316260Y-70727000D01*
X144382442Y-70733518D01*
X144382442Y-70733518D01*
G37*
G36*
X201732343Y-70215361D02*
G01*
X201751568Y-70217254D01*
X201837900Y-70243443D01*
X201924234Y-70269632D01*
X202083365Y-70354689D01*
X202222844Y-70469156D01*
X202337311Y-70608635D01*
X202422368Y-70767766D01*
X202422368Y-70767767D01*
X202454965Y-70875222D01*
X202474746Y-70940433D01*
X202492432Y-71120000D01*
X202474746Y-71299567D01*
X202422368Y-71472234D01*
X202337311Y-71631365D01*
X202222844Y-71770844D01*
X202083365Y-71885311D01*
X201924234Y-71970368D01*
X201881273Y-71983400D01*
X201751568Y-72022746D01*
X201732343Y-72024639D01*
X201616998Y-72036000D01*
X201227002Y-72036000D01*
X201111657Y-72024639D01*
X201092432Y-72022746D01*
X200962727Y-71983400D01*
X200919766Y-71970368D01*
X200760635Y-71885311D01*
X200621156Y-71770844D01*
X200506689Y-71631365D01*
X200421632Y-71472234D01*
X200369254Y-71299567D01*
X200351568Y-71120000D01*
X200369254Y-70940433D01*
X200389036Y-70875222D01*
X200421632Y-70767767D01*
X200421632Y-70767766D01*
X200506689Y-70608635D01*
X200621156Y-70469156D01*
X200760635Y-70354689D01*
X200919766Y-70269632D01*
X201006100Y-70243443D01*
X201092432Y-70217254D01*
X201111657Y-70215361D01*
X201227002Y-70204000D01*
X201616998Y-70204000D01*
X201732343Y-70215361D01*
X201732343Y-70215361D01*
G37*
G36*
X227763294Y-69456633D02*
G01*
X227935695Y-69508931D01*
X228094583Y-69593858D01*
X228233849Y-69708151D01*
X228348142Y-69847417D01*
X228433069Y-70006305D01*
X228485367Y-70178706D01*
X228503025Y-70358000D01*
X228485367Y-70537294D01*
X228433069Y-70709695D01*
X228348142Y-70868583D01*
X228233849Y-71007849D01*
X228094583Y-71122142D01*
X227935695Y-71207069D01*
X227763294Y-71259367D01*
X227628931Y-71272600D01*
X227539069Y-71272600D01*
X227404706Y-71259367D01*
X227232305Y-71207069D01*
X227073417Y-71122142D01*
X226934151Y-71007849D01*
X226819858Y-70868583D01*
X226734931Y-70709695D01*
X226682633Y-70537294D01*
X226664975Y-70358000D01*
X226682633Y-70178706D01*
X226734931Y-70006305D01*
X226819858Y-69847417D01*
X226934151Y-69708151D01*
X227073417Y-69593858D01*
X227232305Y-69508931D01*
X227404706Y-69456633D01*
X227539069Y-69443400D01*
X227628931Y-69443400D01*
X227763294Y-69456633D01*
X227763294Y-69456633D01*
G37*
G36*
X225223294Y-69456633D02*
G01*
X225395695Y-69508931D01*
X225554583Y-69593858D01*
X225693849Y-69708151D01*
X225808142Y-69847417D01*
X225893069Y-70006305D01*
X225945367Y-70178706D01*
X225963025Y-70358000D01*
X225945367Y-70537294D01*
X225893069Y-70709695D01*
X225808142Y-70868583D01*
X225693849Y-71007849D01*
X225554583Y-71122142D01*
X225395695Y-71207069D01*
X225223294Y-71259367D01*
X225088931Y-71272600D01*
X224999069Y-71272600D01*
X224864706Y-71259367D01*
X224692305Y-71207069D01*
X224533417Y-71122142D01*
X224394151Y-71007849D01*
X224279858Y-70868583D01*
X224194931Y-70709695D01*
X224142633Y-70537294D01*
X224124975Y-70358000D01*
X224142633Y-70178706D01*
X224194931Y-70006305D01*
X224279858Y-69847417D01*
X224394151Y-69708151D01*
X224533417Y-69593858D01*
X224692305Y-69508931D01*
X224864706Y-69456633D01*
X224999069Y-69443400D01*
X225088931Y-69443400D01*
X225223294Y-69456633D01*
X225223294Y-69456633D01*
G37*
G36*
X147684443Y-68193519D02*
G01*
X147750627Y-68200037D01*
X147920466Y-68251557D01*
X148076991Y-68335222D01*
X148112729Y-68364552D01*
X148214186Y-68447814D01*
X148297448Y-68549271D01*
X148326778Y-68585009D01*
X148410443Y-68741534D01*
X148461963Y-68911373D01*
X148479359Y-69088000D01*
X148461963Y-69264627D01*
X148410443Y-69434466D01*
X148326778Y-69590991D01*
X148324425Y-69593858D01*
X148214186Y-69728186D01*
X148112729Y-69811448D01*
X148076991Y-69840778D01*
X147920466Y-69924443D01*
X147750627Y-69975963D01*
X147684443Y-69982481D01*
X147618260Y-69989000D01*
X147529740Y-69989000D01*
X147463557Y-69982481D01*
X147397373Y-69975963D01*
X147227534Y-69924443D01*
X147071009Y-69840778D01*
X147035271Y-69811448D01*
X146933814Y-69728186D01*
X146823575Y-69593858D01*
X146821222Y-69590991D01*
X146737557Y-69434466D01*
X146686037Y-69264627D01*
X146668641Y-69088000D01*
X146686037Y-68911373D01*
X146737557Y-68741534D01*
X146821222Y-68585009D01*
X146850552Y-68549271D01*
X146933814Y-68447814D01*
X147035271Y-68364552D01*
X147071009Y-68335222D01*
X147227534Y-68251557D01*
X147397373Y-68200037D01*
X147463557Y-68193519D01*
X147529740Y-68187000D01*
X147618260Y-68187000D01*
X147684443Y-68193519D01*
X147684443Y-68193519D01*
G37*
G36*
X144382443Y-68193519D02*
G01*
X144448627Y-68200037D01*
X144618466Y-68251557D01*
X144774991Y-68335222D01*
X144810729Y-68364552D01*
X144912186Y-68447814D01*
X144995448Y-68549271D01*
X145024778Y-68585009D01*
X145108443Y-68741534D01*
X145159963Y-68911373D01*
X145177359Y-69088000D01*
X145159963Y-69264627D01*
X145108443Y-69434466D01*
X145024778Y-69590991D01*
X145022425Y-69593858D01*
X144912186Y-69728186D01*
X144810729Y-69811448D01*
X144774991Y-69840778D01*
X144618466Y-69924443D01*
X144448627Y-69975963D01*
X144382443Y-69982481D01*
X144316260Y-69989000D01*
X144227740Y-69989000D01*
X144161557Y-69982481D01*
X144095373Y-69975963D01*
X143925534Y-69924443D01*
X143769009Y-69840778D01*
X143733271Y-69811448D01*
X143631814Y-69728186D01*
X143521575Y-69593858D01*
X143519222Y-69590991D01*
X143435557Y-69434466D01*
X143384037Y-69264627D01*
X143366641Y-69088000D01*
X143384037Y-68911373D01*
X143435557Y-68741534D01*
X143519222Y-68585009D01*
X143548552Y-68549271D01*
X143631814Y-68447814D01*
X143733271Y-68364552D01*
X143769009Y-68335222D01*
X143925534Y-68251557D01*
X144095373Y-68200037D01*
X144161557Y-68193519D01*
X144227740Y-68187000D01*
X144316260Y-68187000D01*
X144382443Y-68193519D01*
X144382443Y-68193519D01*
G37*
G36*
X141080443Y-68193519D02*
G01*
X141146627Y-68200037D01*
X141316466Y-68251557D01*
X141472991Y-68335222D01*
X141508729Y-68364552D01*
X141610186Y-68447814D01*
X141693448Y-68549271D01*
X141722778Y-68585009D01*
X141806443Y-68741534D01*
X141857963Y-68911373D01*
X141875359Y-69088000D01*
X141857963Y-69264627D01*
X141806443Y-69434466D01*
X141722778Y-69590991D01*
X141720425Y-69593858D01*
X141610186Y-69728186D01*
X141508729Y-69811448D01*
X141472991Y-69840778D01*
X141316466Y-69924443D01*
X141146627Y-69975963D01*
X141080443Y-69982481D01*
X141014260Y-69989000D01*
X140925740Y-69989000D01*
X140859557Y-69982481D01*
X140793373Y-69975963D01*
X140623534Y-69924443D01*
X140467009Y-69840778D01*
X140431271Y-69811448D01*
X140329814Y-69728186D01*
X140219575Y-69593858D01*
X140217222Y-69590991D01*
X140133557Y-69434466D01*
X140082037Y-69264627D01*
X140064641Y-69088000D01*
X140082037Y-68911373D01*
X140133557Y-68741534D01*
X140217222Y-68585009D01*
X140246552Y-68549271D01*
X140329814Y-68447814D01*
X140431271Y-68364552D01*
X140467009Y-68335222D01*
X140623534Y-68251557D01*
X140793373Y-68200037D01*
X140859557Y-68193519D01*
X140925740Y-68187000D01*
X141014260Y-68187000D01*
X141080443Y-68193519D01*
X141080443Y-68193519D01*
G37*
G36*
X137778443Y-68193519D02*
G01*
X137844627Y-68200037D01*
X138014466Y-68251557D01*
X138170991Y-68335222D01*
X138206729Y-68364552D01*
X138308186Y-68447814D01*
X138391448Y-68549271D01*
X138420778Y-68585009D01*
X138504443Y-68741534D01*
X138555963Y-68911373D01*
X138573359Y-69088000D01*
X138555963Y-69264627D01*
X138504443Y-69434466D01*
X138420778Y-69590991D01*
X138418425Y-69593858D01*
X138308186Y-69728186D01*
X138206729Y-69811448D01*
X138170991Y-69840778D01*
X138014466Y-69924443D01*
X137844627Y-69975963D01*
X137778443Y-69982481D01*
X137712260Y-69989000D01*
X137623740Y-69989000D01*
X137557557Y-69982481D01*
X137491373Y-69975963D01*
X137321534Y-69924443D01*
X137165009Y-69840778D01*
X137129271Y-69811448D01*
X137027814Y-69728186D01*
X136917575Y-69593858D01*
X136915222Y-69590991D01*
X136831557Y-69434466D01*
X136780037Y-69264627D01*
X136762641Y-69088000D01*
X136780037Y-68911373D01*
X136831557Y-68741534D01*
X136915222Y-68585009D01*
X136944552Y-68549271D01*
X137027814Y-68447814D01*
X137129271Y-68364552D01*
X137165009Y-68335222D01*
X137321534Y-68251557D01*
X137491373Y-68200037D01*
X137557557Y-68193519D01*
X137623740Y-68187000D01*
X137712260Y-68187000D01*
X137778443Y-68193519D01*
X137778443Y-68193519D01*
G37*
G36*
X202488000Y-69496000D02*
G01*
X200356000Y-69496000D01*
X200356000Y-67664000D01*
X202488000Y-67664000D01*
X202488000Y-69496000D01*
X202488000Y-69496000D01*
G37*
G36*
X227763294Y-66916633D02*
G01*
X227935695Y-66968931D01*
X228094583Y-67053858D01*
X228233849Y-67168151D01*
X228348142Y-67307417D01*
X228433069Y-67466305D01*
X228485367Y-67638706D01*
X228503025Y-67818000D01*
X228485367Y-67997294D01*
X228433069Y-68169695D01*
X228348142Y-68328583D01*
X228233849Y-68467849D01*
X228094583Y-68582142D01*
X227935695Y-68667069D01*
X227763294Y-68719367D01*
X227628931Y-68732600D01*
X227539069Y-68732600D01*
X227404706Y-68719367D01*
X227232305Y-68667069D01*
X227073417Y-68582142D01*
X226934151Y-68467849D01*
X226819858Y-68328583D01*
X226734931Y-68169695D01*
X226682633Y-67997294D01*
X226664975Y-67818000D01*
X226682633Y-67638706D01*
X226734931Y-67466305D01*
X226819858Y-67307417D01*
X226934151Y-67168151D01*
X227073417Y-67053858D01*
X227232305Y-66968931D01*
X227404706Y-66916633D01*
X227539069Y-66903400D01*
X227628931Y-66903400D01*
X227763294Y-66916633D01*
X227763294Y-66916633D01*
G37*
G36*
X225223294Y-66916633D02*
G01*
X225395695Y-66968931D01*
X225554583Y-67053858D01*
X225693849Y-67168151D01*
X225808142Y-67307417D01*
X225893069Y-67466305D01*
X225945367Y-67638706D01*
X225963025Y-67818000D01*
X225945367Y-67997294D01*
X225893069Y-68169695D01*
X225808142Y-68328583D01*
X225693849Y-68467849D01*
X225554583Y-68582142D01*
X225395695Y-68667069D01*
X225223294Y-68719367D01*
X225088931Y-68732600D01*
X224999069Y-68732600D01*
X224864706Y-68719367D01*
X224692305Y-68667069D01*
X224533417Y-68582142D01*
X224394151Y-68467849D01*
X224279858Y-68328583D01*
X224194931Y-68169695D01*
X224142633Y-67997294D01*
X224124975Y-67818000D01*
X224142633Y-67638706D01*
X224194931Y-67466305D01*
X224279858Y-67307417D01*
X224394151Y-67168151D01*
X224533417Y-67053858D01*
X224692305Y-66968931D01*
X224864706Y-66916633D01*
X224999069Y-66903400D01*
X225088931Y-66903400D01*
X225223294Y-66916633D01*
X225223294Y-66916633D01*
G37*
G36*
X145173000Y-67449000D02*
G01*
X143371000Y-67449000D01*
X143371000Y-65647000D01*
X145173000Y-65647000D01*
X145173000Y-67449000D01*
X145173000Y-67449000D01*
G37*
G36*
X138569000Y-67449000D02*
G01*
X136767000Y-67449000D01*
X136767000Y-65647000D01*
X138569000Y-65647000D01*
X138569000Y-67449000D01*
X138569000Y-67449000D01*
G37*
G36*
X141871000Y-67449000D02*
G01*
X140069000Y-67449000D01*
X140069000Y-65647000D01*
X141871000Y-65647000D01*
X141871000Y-67449000D01*
X141871000Y-67449000D01*
G37*
G36*
X148475000Y-67449000D02*
G01*
X146673000Y-67449000D01*
X146673000Y-65647000D01*
X148475000Y-65647000D01*
X148475000Y-67449000D01*
X148475000Y-67449000D01*
G37*
G36*
X141080443Y-62398520D02*
G01*
X141146627Y-62405038D01*
X141316466Y-62456558D01*
X141472991Y-62540223D01*
X141508729Y-62569553D01*
X141610186Y-62652815D01*
X141684205Y-62743009D01*
X141722778Y-62790010D01*
X141806443Y-62946535D01*
X141857963Y-63116374D01*
X141875359Y-63293001D01*
X141857963Y-63469628D01*
X141806443Y-63639467D01*
X141722778Y-63795992D01*
X141693448Y-63831730D01*
X141610186Y-63933187D01*
X141508729Y-64016449D01*
X141472991Y-64045779D01*
X141316466Y-64129444D01*
X141146627Y-64180964D01*
X141080443Y-64187482D01*
X141014260Y-64194001D01*
X140925740Y-64194001D01*
X140859557Y-64187482D01*
X140793373Y-64180964D01*
X140623534Y-64129444D01*
X140467009Y-64045779D01*
X140431271Y-64016449D01*
X140329814Y-63933187D01*
X140246552Y-63831730D01*
X140217222Y-63795992D01*
X140133557Y-63639467D01*
X140082037Y-63469628D01*
X140064641Y-63293001D01*
X140082037Y-63116374D01*
X140133557Y-62946535D01*
X140217222Y-62790010D01*
X140255795Y-62743009D01*
X140329814Y-62652815D01*
X140431271Y-62569553D01*
X140467009Y-62540223D01*
X140623534Y-62456558D01*
X140793373Y-62405038D01*
X140859557Y-62398520D01*
X140925740Y-62392001D01*
X141014260Y-62392001D01*
X141080443Y-62398520D01*
X141080443Y-62398520D01*
G37*
G36*
X144409444Y-62398520D02*
G01*
X144475628Y-62405038D01*
X144645467Y-62456558D01*
X144801992Y-62540223D01*
X144837730Y-62569553D01*
X144939187Y-62652815D01*
X145013206Y-62743009D01*
X145051779Y-62790010D01*
X145135444Y-62946535D01*
X145186964Y-63116374D01*
X145204360Y-63293001D01*
X145186964Y-63469628D01*
X145135444Y-63639467D01*
X145051779Y-63795992D01*
X145022449Y-63831730D01*
X144939187Y-63933187D01*
X144837730Y-64016449D01*
X144801992Y-64045779D01*
X144645467Y-64129444D01*
X144475628Y-64180964D01*
X144409444Y-64187482D01*
X144343261Y-64194001D01*
X144254741Y-64194001D01*
X144188558Y-64187482D01*
X144122374Y-64180964D01*
X143952535Y-64129444D01*
X143796010Y-64045779D01*
X143760272Y-64016449D01*
X143658815Y-63933187D01*
X143575553Y-63831730D01*
X143546223Y-63795992D01*
X143462558Y-63639467D01*
X143411038Y-63469628D01*
X143393642Y-63293001D01*
X143411038Y-63116374D01*
X143462558Y-62946535D01*
X143546223Y-62790010D01*
X143584796Y-62743009D01*
X143658815Y-62652815D01*
X143760272Y-62569553D01*
X143796010Y-62540223D01*
X143952535Y-62456558D01*
X144122374Y-62405038D01*
X144188558Y-62398520D01*
X144254741Y-62392001D01*
X144343261Y-62392001D01*
X144409444Y-62398520D01*
X144409444Y-62398520D01*
G37*
G36*
X147684443Y-62351519D02*
G01*
X147750627Y-62358037D01*
X147920466Y-62409557D01*
X148076991Y-62493222D01*
X148112729Y-62522552D01*
X148214186Y-62605814D01*
X148297448Y-62707271D01*
X148326778Y-62743009D01*
X148410443Y-62899534D01*
X148461963Y-63069373D01*
X148479359Y-63246000D01*
X148461963Y-63422627D01*
X148410443Y-63592466D01*
X148326778Y-63748991D01*
X148297448Y-63784729D01*
X148214186Y-63886186D01*
X148112729Y-63969448D01*
X148076991Y-63998778D01*
X147920466Y-64082443D01*
X147750627Y-64133963D01*
X147684443Y-64140481D01*
X147618260Y-64147000D01*
X147529740Y-64147000D01*
X147463557Y-64140481D01*
X147397373Y-64133963D01*
X147227534Y-64082443D01*
X147071009Y-63998778D01*
X147035271Y-63969448D01*
X146933814Y-63886186D01*
X146850552Y-63784729D01*
X146821222Y-63748991D01*
X146737557Y-63592466D01*
X146686037Y-63422627D01*
X146668641Y-63246000D01*
X146686037Y-63069373D01*
X146737557Y-62899534D01*
X146821222Y-62743009D01*
X146850552Y-62707271D01*
X146933814Y-62605814D01*
X147035271Y-62522552D01*
X147071009Y-62493222D01*
X147227534Y-62409557D01*
X147397373Y-62358037D01*
X147463557Y-62351519D01*
X147529740Y-62345000D01*
X147618260Y-62345000D01*
X147684443Y-62351519D01*
X147684443Y-62351519D01*
G37*
G36*
X137778443Y-62351519D02*
G01*
X137844627Y-62358037D01*
X138014466Y-62409557D01*
X138170991Y-62493222D01*
X138206729Y-62522552D01*
X138308186Y-62605814D01*
X138391448Y-62707271D01*
X138420778Y-62743009D01*
X138504443Y-62899534D01*
X138555963Y-63069373D01*
X138573359Y-63246000D01*
X138555963Y-63422627D01*
X138504443Y-63592466D01*
X138420778Y-63748991D01*
X138391448Y-63784729D01*
X138308186Y-63886186D01*
X138206729Y-63969448D01*
X138170991Y-63998778D01*
X138014466Y-64082443D01*
X137844627Y-64133963D01*
X137778443Y-64140481D01*
X137712260Y-64147000D01*
X137623740Y-64147000D01*
X137557557Y-64140481D01*
X137491373Y-64133963D01*
X137321534Y-64082443D01*
X137165009Y-63998778D01*
X137129271Y-63969448D01*
X137027814Y-63886186D01*
X136944552Y-63784729D01*
X136915222Y-63748991D01*
X136831557Y-63592466D01*
X136780037Y-63422627D01*
X136762641Y-63246000D01*
X136780037Y-63069373D01*
X136831557Y-62899534D01*
X136915222Y-62743009D01*
X136944552Y-62707271D01*
X137027814Y-62605814D01*
X137129271Y-62522552D01*
X137165009Y-62493222D01*
X137321534Y-62409557D01*
X137491373Y-62358037D01*
X137557557Y-62351519D01*
X137623740Y-62345000D01*
X137712260Y-62345000D01*
X137778443Y-62351519D01*
X137778443Y-62351519D01*
G37*
G36*
X144409443Y-59858519D02*
G01*
X144475628Y-59865038D01*
X144645467Y-59916558D01*
X144801992Y-60000223D01*
X144837730Y-60029553D01*
X144939187Y-60112815D01*
X145013206Y-60203009D01*
X145051779Y-60250010D01*
X145135444Y-60406535D01*
X145186964Y-60576374D01*
X145204360Y-60753001D01*
X145186964Y-60929628D01*
X145135444Y-61099467D01*
X145051779Y-61255992D01*
X145022449Y-61291730D01*
X144939187Y-61393187D01*
X144837730Y-61476449D01*
X144801992Y-61505779D01*
X144645467Y-61589444D01*
X144475628Y-61640964D01*
X144409443Y-61647483D01*
X144343261Y-61654001D01*
X144254741Y-61654001D01*
X144188559Y-61647483D01*
X144122374Y-61640964D01*
X143952535Y-61589444D01*
X143796010Y-61505779D01*
X143760272Y-61476449D01*
X143658815Y-61393187D01*
X143575553Y-61291730D01*
X143546223Y-61255992D01*
X143462558Y-61099467D01*
X143411038Y-60929628D01*
X143393642Y-60753001D01*
X143411038Y-60576374D01*
X143462558Y-60406535D01*
X143546223Y-60250010D01*
X143584796Y-60203009D01*
X143658815Y-60112815D01*
X143760272Y-60029553D01*
X143796010Y-60000223D01*
X143952535Y-59916558D01*
X144122374Y-59865038D01*
X144188559Y-59858519D01*
X144254741Y-59852001D01*
X144343261Y-59852001D01*
X144409443Y-59858519D01*
X144409443Y-59858519D01*
G37*
G36*
X141080442Y-59858519D02*
G01*
X141146627Y-59865038D01*
X141316466Y-59916558D01*
X141472991Y-60000223D01*
X141508729Y-60029553D01*
X141610186Y-60112815D01*
X141684205Y-60203009D01*
X141722778Y-60250010D01*
X141806443Y-60406535D01*
X141857963Y-60576374D01*
X141875359Y-60753001D01*
X141857963Y-60929628D01*
X141806443Y-61099467D01*
X141722778Y-61255992D01*
X141693448Y-61291730D01*
X141610186Y-61393187D01*
X141508729Y-61476449D01*
X141472991Y-61505779D01*
X141316466Y-61589444D01*
X141146627Y-61640964D01*
X141080442Y-61647483D01*
X141014260Y-61654001D01*
X140925740Y-61654001D01*
X140859558Y-61647483D01*
X140793373Y-61640964D01*
X140623534Y-61589444D01*
X140467009Y-61505779D01*
X140431271Y-61476449D01*
X140329814Y-61393187D01*
X140246552Y-61291730D01*
X140217222Y-61255992D01*
X140133557Y-61099467D01*
X140082037Y-60929628D01*
X140064641Y-60753001D01*
X140082037Y-60576374D01*
X140133557Y-60406535D01*
X140217222Y-60250010D01*
X140255795Y-60203009D01*
X140329814Y-60112815D01*
X140431271Y-60029553D01*
X140467009Y-60000223D01*
X140623534Y-59916558D01*
X140793373Y-59865038D01*
X140859558Y-59858519D01*
X140925740Y-59852001D01*
X141014260Y-59852001D01*
X141080442Y-59858519D01*
X141080442Y-59858519D01*
G37*
G36*
X147684443Y-59811519D02*
G01*
X147750627Y-59818037D01*
X147920466Y-59869557D01*
X148076991Y-59953222D01*
X148112729Y-59982552D01*
X148214186Y-60065814D01*
X148297448Y-60167271D01*
X148326778Y-60203009D01*
X148410443Y-60359534D01*
X148461963Y-60529373D01*
X148479359Y-60706000D01*
X148461963Y-60882627D01*
X148410443Y-61052466D01*
X148326778Y-61208991D01*
X148297448Y-61244729D01*
X148214186Y-61346186D01*
X148112729Y-61429448D01*
X148076991Y-61458778D01*
X147920466Y-61542443D01*
X147750627Y-61593963D01*
X147684442Y-61600482D01*
X147618260Y-61607000D01*
X147529740Y-61607000D01*
X147463558Y-61600482D01*
X147397373Y-61593963D01*
X147227534Y-61542443D01*
X147071009Y-61458778D01*
X147035271Y-61429448D01*
X146933814Y-61346186D01*
X146850552Y-61244729D01*
X146821222Y-61208991D01*
X146737557Y-61052466D01*
X146686037Y-60882627D01*
X146668641Y-60706000D01*
X146686037Y-60529373D01*
X146737557Y-60359534D01*
X146821222Y-60203009D01*
X146850552Y-60167271D01*
X146933814Y-60065814D01*
X147035271Y-59982552D01*
X147071009Y-59953222D01*
X147227534Y-59869557D01*
X147397373Y-59818037D01*
X147463557Y-59811519D01*
X147529740Y-59805000D01*
X147618260Y-59805000D01*
X147684443Y-59811519D01*
X147684443Y-59811519D01*
G37*
G36*
X137778443Y-59811519D02*
G01*
X137844627Y-59818037D01*
X138014466Y-59869557D01*
X138170991Y-59953222D01*
X138206729Y-59982552D01*
X138308186Y-60065814D01*
X138391448Y-60167271D01*
X138420778Y-60203009D01*
X138504443Y-60359534D01*
X138555963Y-60529373D01*
X138573359Y-60706000D01*
X138555963Y-60882627D01*
X138504443Y-61052466D01*
X138420778Y-61208991D01*
X138391448Y-61244729D01*
X138308186Y-61346186D01*
X138206729Y-61429448D01*
X138170991Y-61458778D01*
X138014466Y-61542443D01*
X137844627Y-61593963D01*
X137778442Y-61600482D01*
X137712260Y-61607000D01*
X137623740Y-61607000D01*
X137557558Y-61600482D01*
X137491373Y-61593963D01*
X137321534Y-61542443D01*
X137165009Y-61458778D01*
X137129271Y-61429448D01*
X137027814Y-61346186D01*
X136944552Y-61244729D01*
X136915222Y-61208991D01*
X136831557Y-61052466D01*
X136780037Y-60882627D01*
X136762641Y-60706000D01*
X136780037Y-60529373D01*
X136831557Y-60359534D01*
X136915222Y-60203009D01*
X136944552Y-60167271D01*
X137027814Y-60065814D01*
X137129271Y-59982552D01*
X137165009Y-59953222D01*
X137321534Y-59869557D01*
X137491373Y-59818037D01*
X137557557Y-59811519D01*
X137623740Y-59805000D01*
X137712260Y-59805000D01*
X137778443Y-59811519D01*
X137778443Y-59811519D01*
G37*
G36*
X141871000Y-59114001D02*
G01*
X140069000Y-59114001D01*
X140069000Y-57312001D01*
X141871000Y-57312001D01*
X141871000Y-59114001D01*
X141871000Y-59114001D01*
G37*
G36*
X145200001Y-59114001D02*
G01*
X143398001Y-59114001D01*
X143398001Y-57312001D01*
X145200001Y-57312001D01*
X145200001Y-59114001D01*
X145200001Y-59114001D01*
G37*
G36*
X138569000Y-59067000D02*
G01*
X136767000Y-59067000D01*
X136767000Y-57265000D01*
X138569000Y-57265000D01*
X138569000Y-59067000D01*
X138569000Y-59067000D01*
G37*
G36*
X148475000Y-59067000D02*
G01*
X146673000Y-59067000D01*
X146673000Y-57265000D01*
X148475000Y-57265000D01*
X148475000Y-59067000D01*
X148475000Y-59067000D01*
G37*
G36*
X206989642Y-54855781D02*
G01*
X207135414Y-54916162D01*
X207135416Y-54916163D01*
X207266608Y-55003822D01*
X207378178Y-55115392D01*
X207465837Y-55246584D01*
X207465838Y-55246586D01*
X207526219Y-55392358D01*
X207557000Y-55547107D01*
X207557000Y-55704893D01*
X207526219Y-55859642D01*
X207465838Y-56005414D01*
X207465837Y-56005416D01*
X207378178Y-56136608D01*
X207266608Y-56248178D01*
X207135416Y-56335837D01*
X207135415Y-56335838D01*
X207135414Y-56335838D01*
X206989642Y-56396219D01*
X206834893Y-56427000D01*
X206677107Y-56427000D01*
X206522358Y-56396219D01*
X206376586Y-56335838D01*
X206376585Y-56335838D01*
X206376584Y-56335837D01*
X206245392Y-56248178D01*
X206133822Y-56136608D01*
X206046163Y-56005416D01*
X206046162Y-56005414D01*
X205985781Y-55859642D01*
X205955000Y-55704893D01*
X205955000Y-55547107D01*
X205985781Y-55392358D01*
X206046162Y-55246586D01*
X206046163Y-55246584D01*
X206133822Y-55115392D01*
X206245392Y-55003822D01*
X206376584Y-54916163D01*
X206376586Y-54916162D01*
X206522358Y-54855781D01*
X206677107Y-54825000D01*
X206834893Y-54825000D01*
X206989642Y-54855781D01*
X206989642Y-54855781D01*
G37*
G36*
X215177000Y-56427000D02*
G01*
X213575000Y-56427000D01*
X213575000Y-54825000D01*
X215177000Y-54825000D01*
X215177000Y-56427000D01*
X215177000Y-56427000D01*
G37*
G36*
X201909642Y-54855781D02*
G01*
X202055414Y-54916162D01*
X202055416Y-54916163D01*
X202186608Y-55003822D01*
X202298178Y-55115392D01*
X202385837Y-55246584D01*
X202385838Y-55246586D01*
X202446219Y-55392358D01*
X202477000Y-55547107D01*
X202477000Y-55704893D01*
X202446219Y-55859642D01*
X202385838Y-56005414D01*
X202385837Y-56005416D01*
X202298178Y-56136608D01*
X202186608Y-56248178D01*
X202055416Y-56335837D01*
X202055415Y-56335838D01*
X202055414Y-56335838D01*
X201909642Y-56396219D01*
X201754893Y-56427000D01*
X201597107Y-56427000D01*
X201442358Y-56396219D01*
X201296586Y-56335838D01*
X201296585Y-56335838D01*
X201296584Y-56335837D01*
X201165392Y-56248178D01*
X201053822Y-56136608D01*
X200966163Y-56005416D01*
X200966162Y-56005414D01*
X200905781Y-55859642D01*
X200875000Y-55704893D01*
X200875000Y-55547107D01*
X200905781Y-55392358D01*
X200966162Y-55246586D01*
X200966163Y-55246584D01*
X201053822Y-55115392D01*
X201165392Y-55003822D01*
X201296584Y-54916163D01*
X201296586Y-54916162D01*
X201442358Y-54855781D01*
X201597107Y-54825000D01*
X201754893Y-54825000D01*
X201909642Y-54855781D01*
X201909642Y-54855781D01*
G37*
G36*
X212069642Y-54855781D02*
G01*
X212215414Y-54916162D01*
X212215416Y-54916163D01*
X212346608Y-55003822D01*
X212458178Y-55115392D01*
X212545837Y-55246584D01*
X212545838Y-55246586D01*
X212606219Y-55392358D01*
X212637000Y-55547107D01*
X212637000Y-55704893D01*
X212606219Y-55859642D01*
X212545838Y-56005414D01*
X212545837Y-56005416D01*
X212458178Y-56136608D01*
X212346608Y-56248178D01*
X212215416Y-56335837D01*
X212215415Y-56335838D01*
X212215414Y-56335838D01*
X212069642Y-56396219D01*
X211914893Y-56427000D01*
X211757107Y-56427000D01*
X211602358Y-56396219D01*
X211456586Y-56335838D01*
X211456585Y-56335838D01*
X211456584Y-56335837D01*
X211325392Y-56248178D01*
X211213822Y-56136608D01*
X211126163Y-56005416D01*
X211126162Y-56005414D01*
X211065781Y-55859642D01*
X211035000Y-55704893D01*
X211035000Y-55547107D01*
X211065781Y-55392358D01*
X211126162Y-55246586D01*
X211126163Y-55246584D01*
X211213822Y-55115392D01*
X211325392Y-55003822D01*
X211456584Y-54916163D01*
X211456586Y-54916162D01*
X211602358Y-54855781D01*
X211757107Y-54825000D01*
X211914893Y-54825000D01*
X212069642Y-54855781D01*
X212069642Y-54855781D01*
G37*
G36*
X209529642Y-54855781D02*
G01*
X209675414Y-54916162D01*
X209675416Y-54916163D01*
X209806608Y-55003822D01*
X209918178Y-55115392D01*
X210005837Y-55246584D01*
X210005838Y-55246586D01*
X210066219Y-55392358D01*
X210097000Y-55547107D01*
X210097000Y-55704893D01*
X210066219Y-55859642D01*
X210005838Y-56005414D01*
X210005837Y-56005416D01*
X209918178Y-56136608D01*
X209806608Y-56248178D01*
X209675416Y-56335837D01*
X209675415Y-56335838D01*
X209675414Y-56335838D01*
X209529642Y-56396219D01*
X209374893Y-56427000D01*
X209217107Y-56427000D01*
X209062358Y-56396219D01*
X208916586Y-56335838D01*
X208916585Y-56335838D01*
X208916584Y-56335837D01*
X208785392Y-56248178D01*
X208673822Y-56136608D01*
X208586163Y-56005416D01*
X208586162Y-56005414D01*
X208525781Y-55859642D01*
X208495000Y-55704893D01*
X208495000Y-55547107D01*
X208525781Y-55392358D01*
X208586162Y-55246586D01*
X208586163Y-55246584D01*
X208673822Y-55115392D01*
X208785392Y-55003822D01*
X208916584Y-54916163D01*
X208916586Y-54916162D01*
X209062358Y-54855781D01*
X209217107Y-54825000D01*
X209374893Y-54825000D01*
X209529642Y-54855781D01*
X209529642Y-54855781D01*
G37*
G36*
X204449642Y-54855781D02*
G01*
X204595414Y-54916162D01*
X204595416Y-54916163D01*
X204726608Y-55003822D01*
X204838178Y-55115392D01*
X204925837Y-55246584D01*
X204925838Y-55246586D01*
X204986219Y-55392358D01*
X205017000Y-55547107D01*
X205017000Y-55704893D01*
X204986219Y-55859642D01*
X204925838Y-56005414D01*
X204925837Y-56005416D01*
X204838178Y-56136608D01*
X204726608Y-56248178D01*
X204595416Y-56335837D01*
X204595415Y-56335838D01*
X204595414Y-56335838D01*
X204449642Y-56396219D01*
X204294893Y-56427000D01*
X204137107Y-56427000D01*
X203982358Y-56396219D01*
X203836586Y-56335838D01*
X203836585Y-56335838D01*
X203836584Y-56335837D01*
X203705392Y-56248178D01*
X203593822Y-56136608D01*
X203506163Y-56005416D01*
X203506162Y-56005414D01*
X203445781Y-55859642D01*
X203415000Y-55704893D01*
X203415000Y-55547107D01*
X203445781Y-55392358D01*
X203506162Y-55246586D01*
X203506163Y-55246584D01*
X203593822Y-55115392D01*
X203705392Y-55003822D01*
X203836584Y-54916163D01*
X203836586Y-54916162D01*
X203982358Y-54855781D01*
X204137107Y-54825000D01*
X204294893Y-54825000D01*
X204449642Y-54855781D01*
X204449642Y-54855781D01*
G37*
G36*
X212069642Y-39615781D02*
G01*
X212215414Y-39676162D01*
X212215416Y-39676163D01*
X212346608Y-39763822D01*
X212458178Y-39875392D01*
X212545837Y-40006584D01*
X212545838Y-40006586D01*
X212606219Y-40152358D01*
X212637000Y-40307107D01*
X212637000Y-40464893D01*
X212606219Y-40619642D01*
X212545838Y-40765414D01*
X212545837Y-40765416D01*
X212458178Y-40896608D01*
X212346608Y-41008178D01*
X212215416Y-41095837D01*
X212215415Y-41095838D01*
X212215414Y-41095838D01*
X212069642Y-41156219D01*
X211914893Y-41187000D01*
X211757107Y-41187000D01*
X211602358Y-41156219D01*
X211456586Y-41095838D01*
X211456585Y-41095838D01*
X211456584Y-41095837D01*
X211325392Y-41008178D01*
X211213822Y-40896608D01*
X211126163Y-40765416D01*
X211126162Y-40765414D01*
X211065781Y-40619642D01*
X211035000Y-40464893D01*
X211035000Y-40307107D01*
X211065781Y-40152358D01*
X211126162Y-40006586D01*
X211126163Y-40006584D01*
X211213822Y-39875392D01*
X211325392Y-39763822D01*
X211456584Y-39676163D01*
X211456586Y-39676162D01*
X211602358Y-39615781D01*
X211757107Y-39585000D01*
X211914893Y-39585000D01*
X212069642Y-39615781D01*
X212069642Y-39615781D01*
G37*
G36*
X209529642Y-39615781D02*
G01*
X209675414Y-39676162D01*
X209675416Y-39676163D01*
X209806608Y-39763822D01*
X209918178Y-39875392D01*
X210005837Y-40006584D01*
X210005838Y-40006586D01*
X210066219Y-40152358D01*
X210097000Y-40307107D01*
X210097000Y-40464893D01*
X210066219Y-40619642D01*
X210005838Y-40765414D01*
X210005837Y-40765416D01*
X209918178Y-40896608D01*
X209806608Y-41008178D01*
X209675416Y-41095837D01*
X209675415Y-41095838D01*
X209675414Y-41095838D01*
X209529642Y-41156219D01*
X209374893Y-41187000D01*
X209217107Y-41187000D01*
X209062358Y-41156219D01*
X208916586Y-41095838D01*
X208916585Y-41095838D01*
X208916584Y-41095837D01*
X208785392Y-41008178D01*
X208673822Y-40896608D01*
X208586163Y-40765416D01*
X208586162Y-40765414D01*
X208525781Y-40619642D01*
X208495000Y-40464893D01*
X208495000Y-40307107D01*
X208525781Y-40152358D01*
X208586162Y-40006586D01*
X208586163Y-40006584D01*
X208673822Y-39875392D01*
X208785392Y-39763822D01*
X208916584Y-39676163D01*
X208916586Y-39676162D01*
X209062358Y-39615781D01*
X209217107Y-39585000D01*
X209374893Y-39585000D01*
X209529642Y-39615781D01*
X209529642Y-39615781D01*
G37*
G36*
X214609642Y-39615781D02*
G01*
X214755414Y-39676162D01*
X214755416Y-39676163D01*
X214886608Y-39763822D01*
X214998178Y-39875392D01*
X215085837Y-40006584D01*
X215085838Y-40006586D01*
X215146219Y-40152358D01*
X215177000Y-40307107D01*
X215177000Y-40464893D01*
X215146219Y-40619642D01*
X215085838Y-40765414D01*
X215085837Y-40765416D01*
X214998178Y-40896608D01*
X214886608Y-41008178D01*
X214755416Y-41095837D01*
X214755415Y-41095838D01*
X214755414Y-41095838D01*
X214609642Y-41156219D01*
X214454893Y-41187000D01*
X214297107Y-41187000D01*
X214142358Y-41156219D01*
X213996586Y-41095838D01*
X213996585Y-41095838D01*
X213996584Y-41095837D01*
X213865392Y-41008178D01*
X213753822Y-40896608D01*
X213666163Y-40765416D01*
X213666162Y-40765414D01*
X213605781Y-40619642D01*
X213575000Y-40464893D01*
X213575000Y-40307107D01*
X213605781Y-40152358D01*
X213666162Y-40006586D01*
X213666163Y-40006584D01*
X213753822Y-39875392D01*
X213865392Y-39763822D01*
X213996584Y-39676163D01*
X213996586Y-39676162D01*
X214142358Y-39615781D01*
X214297107Y-39585000D01*
X214454893Y-39585000D01*
X214609642Y-39615781D01*
X214609642Y-39615781D01*
G37*
G36*
X204449642Y-39615781D02*
G01*
X204595414Y-39676162D01*
X204595416Y-39676163D01*
X204726608Y-39763822D01*
X204838178Y-39875392D01*
X204925837Y-40006584D01*
X204925838Y-40006586D01*
X204986219Y-40152358D01*
X205017000Y-40307107D01*
X205017000Y-40464893D01*
X204986219Y-40619642D01*
X204925838Y-40765414D01*
X204925837Y-40765416D01*
X204838178Y-40896608D01*
X204726608Y-41008178D01*
X204595416Y-41095837D01*
X204595415Y-41095838D01*
X204595414Y-41095838D01*
X204449642Y-41156219D01*
X204294893Y-41187000D01*
X204137107Y-41187000D01*
X203982358Y-41156219D01*
X203836586Y-41095838D01*
X203836585Y-41095838D01*
X203836584Y-41095837D01*
X203705392Y-41008178D01*
X203593822Y-40896608D01*
X203506163Y-40765416D01*
X203506162Y-40765414D01*
X203445781Y-40619642D01*
X203415000Y-40464893D01*
X203415000Y-40307107D01*
X203445781Y-40152358D01*
X203506162Y-40006586D01*
X203506163Y-40006584D01*
X203593822Y-39875392D01*
X203705392Y-39763822D01*
X203836584Y-39676163D01*
X203836586Y-39676162D01*
X203982358Y-39615781D01*
X204137107Y-39585000D01*
X204294893Y-39585000D01*
X204449642Y-39615781D01*
X204449642Y-39615781D01*
G37*
G36*
X201909642Y-39615781D02*
G01*
X202055414Y-39676162D01*
X202055416Y-39676163D01*
X202186608Y-39763822D01*
X202298178Y-39875392D01*
X202385837Y-40006584D01*
X202385838Y-40006586D01*
X202446219Y-40152358D01*
X202477000Y-40307107D01*
X202477000Y-40464893D01*
X202446219Y-40619642D01*
X202385838Y-40765414D01*
X202385837Y-40765416D01*
X202298178Y-40896608D01*
X202186608Y-41008178D01*
X202055416Y-41095837D01*
X202055415Y-41095838D01*
X202055414Y-41095838D01*
X201909642Y-41156219D01*
X201754893Y-41187000D01*
X201597107Y-41187000D01*
X201442358Y-41156219D01*
X201296586Y-41095838D01*
X201296585Y-41095838D01*
X201296584Y-41095837D01*
X201165392Y-41008178D01*
X201053822Y-40896608D01*
X200966163Y-40765416D01*
X200966162Y-40765414D01*
X200905781Y-40619642D01*
X200875000Y-40464893D01*
X200875000Y-40307107D01*
X200905781Y-40152358D01*
X200966162Y-40006586D01*
X200966163Y-40006584D01*
X201053822Y-39875392D01*
X201165392Y-39763822D01*
X201296584Y-39676163D01*
X201296586Y-39676162D01*
X201442358Y-39615781D01*
X201597107Y-39585000D01*
X201754893Y-39585000D01*
X201909642Y-39615781D01*
X201909642Y-39615781D01*
G37*
G36*
X206989642Y-39615781D02*
G01*
X207135414Y-39676162D01*
X207135416Y-39676163D01*
X207266608Y-39763822D01*
X207378178Y-39875392D01*
X207465837Y-40006584D01*
X207465838Y-40006586D01*
X207526219Y-40152358D01*
X207557000Y-40307107D01*
X207557000Y-40464893D01*
X207526219Y-40619642D01*
X207465838Y-40765414D01*
X207465837Y-40765416D01*
X207378178Y-40896608D01*
X207266608Y-41008178D01*
X207135416Y-41095837D01*
X207135415Y-41095838D01*
X207135414Y-41095838D01*
X206989642Y-41156219D01*
X206834893Y-41187000D01*
X206677107Y-41187000D01*
X206522358Y-41156219D01*
X206376586Y-41095838D01*
X206376585Y-41095838D01*
X206376584Y-41095837D01*
X206245392Y-41008178D01*
X206133822Y-40896608D01*
X206046163Y-40765416D01*
X206046162Y-40765414D01*
X205985781Y-40619642D01*
X205955000Y-40464893D01*
X205955000Y-40307107D01*
X205985781Y-40152358D01*
X206046162Y-40006586D01*
X206046163Y-40006584D01*
X206133822Y-39875392D01*
X206245392Y-39763822D01*
X206376584Y-39676163D01*
X206376586Y-39676162D01*
X206522358Y-39615781D01*
X206677107Y-39585000D01*
X206834893Y-39585000D01*
X206989642Y-39615781D01*
X206989642Y-39615781D01*
G37*
M02*
