G04 #@! TF.GenerationSoftware,KiCad,Pcbnew,(5.1.0-0)*
G04 #@! TF.CreationDate,2019-07-17T00:11:31+01:00*
G04 #@! TF.ProjectId,Face6,46616365-362e-46b6-9963-61645f706362,rev?*
G04 #@! TF.SameCoordinates,Original*
G04 #@! TF.FileFunction,Legend,Bot*
G04 #@! TF.FilePolarity,Positive*
%FSLAX46Y46*%
G04 Gerber Fmt 4.6, Leading zero omitted, Abs format (unit mm)*
G04 Created by KiCad (PCBNEW (5.1.0-0)) date 2019-07-17 00:11:31*
%MOMM*%
%LPD*%
G04 APERTURE LIST*
%ADD10C,0.120000*%
%ADD11C,0.150000*%
G04 APERTURE END LIST*
D10*
X233296000Y-57626000D02*
X233296000Y-38386000D01*
X233296000Y-57626000D02*
X182756000Y-57626000D01*
X182756000Y-57626000D02*
X182756000Y-38386000D01*
X182756000Y-38386000D02*
X233296000Y-38386000D01*
X215376000Y-58006000D02*
X213376000Y-58006000D01*
D11*
X234138380Y-55264095D02*
X234947904Y-55264095D01*
X235043142Y-55311714D01*
X235090761Y-55359333D01*
X235138380Y-55454571D01*
X235138380Y-55645047D01*
X235090761Y-55740285D01*
X235043142Y-55787904D01*
X234947904Y-55835523D01*
X234138380Y-55835523D01*
X234138380Y-56740285D02*
X234138380Y-56549809D01*
X234186000Y-56454571D01*
X234233619Y-56406952D01*
X234376476Y-56311714D01*
X234566952Y-56264095D01*
X234947904Y-56264095D01*
X235043142Y-56311714D01*
X235090761Y-56359333D01*
X235138380Y-56454571D01*
X235138380Y-56645047D01*
X235090761Y-56740285D01*
X235043142Y-56787904D01*
X234947904Y-56835523D01*
X234709809Y-56835523D01*
X234614571Y-56787904D01*
X234566952Y-56740285D01*
X234519333Y-56645047D01*
X234519333Y-56454571D01*
X234566952Y-56359333D01*
X234614571Y-56311714D01*
X234709809Y-56264095D01*
X170208533Y-125301380D02*
X170208533Y-126015666D01*
X170256152Y-126158523D01*
X170351390Y-126253761D01*
X170494247Y-126301380D01*
X170589485Y-126301380D01*
X169779961Y-125396619D02*
X169732342Y-125349000D01*
X169637104Y-125301380D01*
X169399009Y-125301380D01*
X169303771Y-125349000D01*
X169256152Y-125396619D01*
X169208533Y-125491857D01*
X169208533Y-125587095D01*
X169256152Y-125729952D01*
X169827580Y-126301380D01*
X169208533Y-126301380D01*
M02*
