M48
; DRILL file {KiCad (5.1.0-0)} date 2019 July 17, Wednesday 00:12:06
; FORMAT={-:-/ absolute / inch / decimal}
; #@! TF.CreationDate,2019-07-17T00:12:06+01:00
; #@! TF.GenerationSoftware,Kicad,Pcbnew,(5.1.0-0)
FMAT,2
INCH
T1C0.0098
T2C0.0157
T3C0.0197
T4C0.0236
T5C0.0295
T6C0.0315
T7C0.0394
T8C0.0400
T9C0.0402
T10C0.0433
T11C0.0591
T12C0.0295
T13C0.0394
T14C0.0433
%
G90
G05
T2
X5.68Y-2.92
X5.76Y-3.7
X5.76Y-3.81
X5.77Y-3.43
X5.95Y-3.28
X6.09Y-3.26
X6.12Y-3.7
X6.12Y-3.56
X6.13Y-3.93
X6.15Y-3.77
X6.17Y-3.68
X6.17Y-3.43
X6.17Y-3.5615
X6.2144Y-3.06
X6.23Y-3.56
X6.23Y-3.64
X6.26Y-2.95
X6.26Y-3.82
X6.28Y-3.17
X6.29Y-3.21
X6.29Y-3.26
X6.31Y-3.4
X6.31Y-3.44
X6.32Y-2.95
X6.39Y-3.01
X6.41Y-3.6
X6.5Y-2.94
X6.53Y-3.87
X6.5634Y-3.68
X6.5666Y-4.0
X6.57Y-4.07
X6.64Y-3.51
X6.64Y-4.22
X6.68Y-3.58
X6.69Y-3.02
X6.71Y-4.23
X6.72Y-3.52
X6.73Y-3.71
X6.73Y-3.75
X6.73Y-3.8
X6.73Y-3.87
X6.7438Y-2.9234
X6.7479Y-3.3479
X6.75Y-3.02
X6.783Y-2.9195
X6.7966Y-3.47
X6.8Y-4.23
X6.8262Y-2.8862
X6.8587Y-2.8571
X6.86Y-3.52
X6.9333Y-2.8571
X6.94Y-3.17
X6.95Y-3.22
X6.95Y-3.36
X6.9886Y-2.8571
X7.03Y-2.8
X7.03Y-3.04
X7.07Y-2.88
X7.08Y-4.75
X7.23Y-2.94
X7.28Y-4.61
X7.33Y-2.95
X7.4Y-4.75
X7.59Y-4.61
X7.6Y-2.01
X7.6052Y-3.1248
X7.61Y-2.28
X7.63Y-1.57
X7.68Y-4.61
X7.69Y-3.09
X7.7185Y-2.01
X7.78Y-1.57
X7.79Y-1.97
X7.8Y-2.28
X7.84Y-1.97
X7.92Y-1.96
X7.95Y-1.83
X7.97Y-3.23
X8.08Y-1.83
X8.11Y-3.14
X8.11Y-3.83
X8.11Y-4.56
X8.11Y-5.29
X8.2Y-3.09
X8.29Y-2.99
X8.31Y-2.65
X8.32Y-3.23
X8.32Y-3.58
X8.32Y-4.2
X8.32Y-4.93
X8.43Y-3.23
X8.58Y-2.45
X8.68Y-3.0
X8.68Y-3.73
X8.68Y-4.46
X8.68Y-5.19
X8.73Y-2.65
X8.73Y-4.11
X8.73Y-4.84
X8.74Y-3.38
T3
X7.06Y-4.95
X7.28Y-4.47
X7.01Y-5.15
X7.09Y-5.15
X5.94Y-3.15
X7.17Y-4.47
X6.28Y-5.4
X7.39Y-4.55
X7.49Y-4.47
X7.39Y-4.67
X7.38Y-4.96
X6.04Y-3.15
X7.05Y-4.67
X7.05Y-4.55
X6.84Y-4.97
X7.6Y-4.47
T4
X6.9616Y-3.81
X7.0108Y-3.81
X7.06Y-3.81
X7.4616Y-3.81
X7.5108Y-3.81
X7.56Y-3.81
X7.4616Y-3.45
X7.5108Y-3.45
X7.56Y-3.45
X6.0416Y-5.31
X6.0908Y-5.31
X6.14Y-5.31
X6.9616Y-3.63
X7.0108Y-3.63
X7.06Y-3.63
X7.2116Y-3.45
X7.2608Y-3.45
X7.31Y-3.45
X7.4616Y-3.63
X7.5108Y-3.63
X7.56Y-3.63
X7.2116Y-3.63
X7.2608Y-3.63
X7.31Y-3.63
X6.9616Y-3.45
X7.0108Y-3.45
X7.06Y-3.45
X7.2116Y-3.81
X7.2608Y-3.81
X7.31Y-3.81
T5
X7.01Y-5.3
X7.0887Y-5.3
T6
X5.4224Y-4.73
X5.5011Y-4.73
X5.5798Y-4.73
X7.344Y-5.323
X7.4227Y-5.323
X7.5015Y-5.323
T7
X5.81Y-2.62
X5.81Y-2.72
X5.81Y-2.82
X5.55Y-2.2919
X5.55Y-2.3919
X5.55Y-2.4919
X5.42Y-2.62
X5.42Y-2.72
X5.42Y-2.82
X5.68Y-2.62
X5.68Y-2.72
X5.68Y-2.82
X5.42Y-2.29
X5.42Y-2.39
X5.42Y-2.49
X7.94Y-1.59
X7.94Y-2.19
X5.6811Y-2.2919
X5.6811Y-2.3919
X5.6811Y-2.4919
X5.55Y-2.62
X5.55Y-2.72
X5.55Y-2.82
X5.81Y-2.29
X5.81Y-2.39
X5.81Y-2.49
X8.14Y-1.59
X8.24Y-1.59
X8.34Y-1.59
X8.44Y-1.59
X8.04Y-2.19
X8.14Y-2.19
X8.24Y-2.19
X8.34Y-2.19
X8.44Y-2.19
X8.04Y-1.59
T8
X8.86Y-3.4
X8.86Y-3.5
X8.86Y-3.6
X8.86Y-3.7
X8.96Y-3.4
X8.96Y-3.5
X8.96Y-3.6
X8.96Y-3.7
X5.424Y-3.476
X5.424Y-3.576
X5.424Y-3.676
X5.424Y-3.776
X5.424Y-3.876
X5.424Y-3.976
X5.424Y-4.076
X5.424Y-4.176
X5.424Y-4.276
X5.424Y-4.376
X5.524Y-3.476
X5.524Y-3.576
X5.524Y-3.676
X5.524Y-3.776
X8.86Y-2.67
X8.86Y-2.77
X8.86Y-2.97
X8.96Y-2.67
X8.96Y-2.77
X8.96Y-2.87
X8.96Y-2.97
X8.86Y-4.86
X8.86Y-4.96
X8.86Y-5.06
X8.86Y-5.16
X8.96Y-4.86
X8.96Y-4.96
X8.96Y-5.06
X8.96Y-5.16
X8.86Y-2.87
X5.524Y-3.876
X5.524Y-3.976
X5.524Y-4.076
X5.524Y-4.176
X5.524Y-4.276
X5.524Y-4.376
X8.86Y-4.13
X8.86Y-4.23
X8.86Y-4.33
X8.86Y-4.43
X8.96Y-4.13
X8.96Y-4.23
X8.96Y-4.33
X8.96Y-4.43
T9
X7.93Y-2.7
X7.93Y-2.8
X7.93Y-2.9
X7.93Y-3.0
X7.93Y-4.89
X7.93Y-4.99
X7.93Y-5.09
X7.93Y-5.19
X7.93Y-4.16
X7.93Y-4.26
X7.93Y-4.36
X7.93Y-4.46
X7.93Y-3.43
X7.93Y-3.53
X7.93Y-3.63
X7.93Y-3.73
T10
X6.4Y-4.99
X6.4Y-5.39
T11
X5.3397Y-4.73
X5.6625Y-4.73
X7.2613Y-5.323
X7.5842Y-5.323
T12
X6.56Y-5.07
T13
X6.555Y-5.41
X6.83Y-5.1025
X6.83Y-5.41
T14
X8.015Y-2.9
X8.015Y-5.09
X8.015Y-4.36
X8.015Y-3.63
T1
G00X6.6784Y-5.41
M15
G01X6.6016Y-5.41
M16
G05
T2
G00X6.4975Y-5.2811
M15
G01X6.4975Y-5.1039
M16
G05
G00X6.7854Y-5.3
M15
G01X6.7146Y-5.3
M16
G05
T0
M30
